%TF.GenerationSoftware,KiCad,Pcbnew,9.0.1*%
%TF.CreationDate,2025-09-04T18:16:01+02:00*%
%TF.ProjectId,Neopixel USB,4e656f70-6978-4656-9c20-5553422e6b69,rev?*%
%TF.SameCoordinates,Original*%
%TF.FileFunction,Soldermask,Bot*%
%TF.FilePolarity,Negative*%
%FSLAX46Y46*%
G04 Gerber Fmt 4.6, Leading zero omitted, Abs format (unit mm)*
G04 Created by KiCad (PCBNEW 9.0.1) date 2025-09-04 18:16:01*
%MOMM*%
%LPD*%
G01*
G04 APERTURE LIST*
G04 Aperture macros list*
%AMRoundRect*
0 Rectangle with rounded corners*
0 $1 Rounding radius*
0 $2 $3 $4 $5 $6 $7 $8 $9 X,Y pos of 4 corners*
0 Add a 4 corners polygon primitive as box body*
4,1,4,$2,$3,$4,$5,$6,$7,$8,$9,$2,$3,0*
0 Add four circle primitives for the rounded corners*
1,1,$1+$1,$2,$3*
1,1,$1+$1,$4,$5*
1,1,$1+$1,$6,$7*
1,1,$1+$1,$8,$9*
0 Add four rect primitives between the rounded corners*
20,1,$1+$1,$2,$3,$4,$5,0*
20,1,$1+$1,$4,$5,$6,$7,0*
20,1,$1+$1,$6,$7,$8,$9,0*
20,1,$1+$1,$8,$9,$2,$3,0*%
G04 Aperture macros list end*
%ADD10C,0.010000*%
%ADD11RoundRect,0.102000X-0.650000X0.350000X-0.650000X-0.350000X0.650000X-0.350000X0.650000X0.350000X0*%
%ADD12RoundRect,0.225000X-0.250000X0.225000X-0.250000X-0.225000X0.250000X-0.225000X0.250000X0.225000X0*%
%ADD13RoundRect,0.075000X0.662500X0.075000X-0.662500X0.075000X-0.662500X-0.075000X0.662500X-0.075000X0*%
%ADD14RoundRect,0.075000X0.075000X0.662500X-0.075000X0.662500X-0.075000X-0.662500X0.075000X-0.662500X0*%
%ADD15RoundRect,0.225000X0.225000X0.250000X-0.225000X0.250000X-0.225000X-0.250000X0.225000X-0.250000X0*%
%ADD16RoundRect,0.200000X-0.275000X0.200000X-0.275000X-0.200000X0.275000X-0.200000X0.275000X0.200000X0*%
%ADD17RoundRect,0.225000X-0.225000X-0.250000X0.225000X-0.250000X0.225000X0.250000X-0.225000X0.250000X0*%
G04 APERTURE END LIST*
D10*
%TO.C,J1*%
X30148809Y-36574819D02*
X28548809Y-36574819D01*
X28548809Y-36174819D01*
X30148809Y-36174819D01*
X30148809Y-36574819D01*
G36*
X30148809Y-36574819D02*
G01*
X28548809Y-36574819D01*
X28548809Y-36174819D01*
X30148809Y-36174819D01*
X30148809Y-36574819D01*
G37*
X30148809Y-37074819D02*
X28548809Y-37074819D01*
X28548809Y-36674819D01*
X30148809Y-36674819D01*
X30148809Y-37074819D01*
G36*
X30148809Y-37074819D02*
G01*
X28548809Y-37074819D01*
X28548809Y-36674819D01*
X30148809Y-36674819D01*
X30148809Y-37074819D01*
G37*
X30148809Y-37574819D02*
X28548809Y-37574819D01*
X28548809Y-37174819D01*
X30148809Y-37174819D01*
X30148809Y-37574819D01*
G36*
X30148809Y-37574819D02*
G01*
X28548809Y-37574819D01*
X28548809Y-37174819D01*
X30148809Y-37174819D01*
X30148809Y-37574819D01*
G37*
X30148809Y-38074819D02*
X28548809Y-38074819D01*
X28548809Y-37674819D01*
X30148809Y-37674819D01*
X30148809Y-38074819D01*
G36*
X30148809Y-38074819D02*
G01*
X28548809Y-38074819D01*
X28548809Y-37674819D01*
X30148809Y-37674819D01*
X30148809Y-38074819D01*
G37*
X30148809Y-38574819D02*
X28548809Y-38574819D01*
X28548809Y-38174819D01*
X30148809Y-38174819D01*
X30148809Y-38574819D01*
G36*
X30148809Y-38574819D02*
G01*
X28548809Y-38574819D01*
X28548809Y-38174819D01*
X30148809Y-38174819D01*
X30148809Y-38574819D01*
G37*
X30148809Y-39074819D02*
X28548809Y-39074819D01*
X28548809Y-38674819D01*
X30148809Y-38674819D01*
X30148809Y-39074819D01*
G36*
X30148809Y-39074819D02*
G01*
X28548809Y-39074819D01*
X28548809Y-38674819D01*
X30148809Y-38674819D01*
X30148809Y-39074819D01*
G37*
X30148809Y-39574819D02*
X28548809Y-39574819D01*
X28548809Y-39174819D01*
X30148809Y-39174819D01*
X30148809Y-39574819D01*
G36*
X30148809Y-39574819D02*
G01*
X28548809Y-39574819D01*
X28548809Y-39174819D01*
X30148809Y-39174819D01*
X30148809Y-39574819D01*
G37*
X30148809Y-40074819D02*
X28548809Y-40074819D01*
X28548809Y-39674819D01*
X30148809Y-39674819D01*
X30148809Y-40074819D01*
G36*
X30148809Y-40074819D02*
G01*
X28548809Y-40074819D01*
X28548809Y-39674819D01*
X30148809Y-39674819D01*
X30148809Y-40074819D01*
G37*
X30148809Y-40574819D02*
X28548809Y-40574819D01*
X28548809Y-40174819D01*
X30148809Y-40174819D01*
X30148809Y-40574819D01*
G36*
X30148809Y-40574819D02*
G01*
X28548809Y-40574819D01*
X28548809Y-40174819D01*
X30148809Y-40174819D01*
X30148809Y-40574819D01*
G37*
X30148809Y-41074819D02*
X28548809Y-41074819D01*
X28548809Y-40674819D01*
X30148809Y-40674819D01*
X30148809Y-41074819D01*
G36*
X30148809Y-41074819D02*
G01*
X28548809Y-41074819D01*
X28548809Y-40674819D01*
X30148809Y-40674819D01*
X30148809Y-41074819D01*
G37*
X30148809Y-41574819D02*
X28548809Y-41574819D01*
X28548809Y-41174819D01*
X30148809Y-41174819D01*
X30148809Y-41574819D01*
G36*
X30148809Y-41574819D02*
G01*
X28548809Y-41574819D01*
X28548809Y-41174819D01*
X30148809Y-41174819D01*
X30148809Y-41574819D01*
G37*
X30148809Y-42074819D02*
X28548809Y-42074819D01*
X28548809Y-41674819D01*
X30148809Y-41674819D01*
X30148809Y-42074819D01*
G36*
X30148809Y-42074819D02*
G01*
X28548809Y-42074819D01*
X28548809Y-41674819D01*
X30148809Y-41674819D01*
X30148809Y-42074819D01*
G37*
%TD*%
D11*
%TO.C,J1*%
X29448809Y-35524819D03*
%TD*%
D12*
%TO.C,C7*%
X43631000Y-36555000D03*
X43631000Y-38105000D03*
%TD*%
D13*
%TO.C,U2*%
X41697500Y-36334000D03*
X41697500Y-36834000D03*
X41697500Y-37334000D03*
X41697500Y-37834000D03*
X41697500Y-38334000D03*
X41697500Y-38834000D03*
X41697500Y-39334000D03*
X41697500Y-39834000D03*
X41697500Y-40334000D03*
X41697500Y-40834000D03*
X41697500Y-41334000D03*
X41697500Y-41834000D03*
D14*
X40285000Y-43246500D03*
X39785000Y-43246500D03*
X39285000Y-43246500D03*
X38785000Y-43246500D03*
X38285000Y-43246500D03*
X37785000Y-43246500D03*
X37285000Y-43246500D03*
X36785000Y-43246500D03*
X36285000Y-43246500D03*
X35785000Y-43246500D03*
X35285000Y-43246500D03*
X34785000Y-43246500D03*
D13*
X33372500Y-41834000D03*
X33372500Y-41334000D03*
X33372500Y-40834000D03*
X33372500Y-40334000D03*
X33372500Y-39834000D03*
X33372500Y-39334000D03*
X33372500Y-38834000D03*
X33372500Y-38334000D03*
X33372500Y-37834000D03*
X33372500Y-37334000D03*
X33372500Y-36834000D03*
X33372500Y-36334000D03*
D14*
X34785000Y-34921500D03*
X35285000Y-34921500D03*
X35785000Y-34921500D03*
X36285000Y-34921500D03*
X36785000Y-34921500D03*
X37285000Y-34921500D03*
X37785000Y-34921500D03*
X38285000Y-34921500D03*
X38785000Y-34921500D03*
X39285000Y-34921500D03*
X39785000Y-34921500D03*
X40285000Y-34921500D03*
%TD*%
D15*
%TO.C,C5*%
X32906000Y-43484800D03*
X31356000Y-43484800D03*
%TD*%
%TO.C,C4*%
X32855200Y-34823400D03*
X31305200Y-34823400D03*
%TD*%
D12*
%TO.C,C6*%
X43631000Y-40087000D03*
X43631000Y-41637000D03*
%TD*%
D16*
%TO.C,R3*%
X31100000Y-36375000D03*
X31100000Y-38025000D03*
%TD*%
D17*
%TO.C,C8*%
X42125600Y-34671000D03*
X43675600Y-34671000D03*
%TD*%
M02*
