%TF.GenerationSoftware,KiCad,Pcbnew,9.0.1*%
%TF.CreationDate,2025-07-08T09:29:25+02:00*%
%TF.ProjectId,Neopixel USB,4e656f70-6978-4656-9c20-5553422e6b69,rev?*%
%TF.SameCoordinates,Original*%
%TF.FileFunction,Legend,Bot*%
%TF.FilePolarity,Positive*%
%FSLAX46Y46*%
G04 Gerber Fmt 4.6, Leading zero omitted, Abs format (unit mm)*
G04 Created by KiCad (PCBNEW 9.0.1) date 2025-07-08 09:29:25*
%MOMM*%
%LPD*%
G01*
G04 APERTURE LIST*
%ADD10C,0.000000*%
G04 APERTURE END LIST*
D10*
%TO.C,REF\u002A\u002A*%
G36*
X53173874Y-18955297D02*
G01*
X53183355Y-18956353D01*
X53192713Y-18957996D01*
X53201914Y-18960235D01*
X53210924Y-18963076D01*
X53219712Y-18966526D01*
X53228242Y-18970594D01*
X53236483Y-18975284D01*
X53244400Y-18980606D01*
X53251961Y-18986565D01*
X53259132Y-18993170D01*
X53265879Y-19000427D01*
X53272493Y-19008850D01*
X53278138Y-19017571D01*
X53282839Y-19026553D01*
X53286619Y-19035760D01*
X53289502Y-19045153D01*
X53291512Y-19054697D01*
X53292673Y-19064353D01*
X53293009Y-19074084D01*
X53292544Y-19083855D01*
X53291301Y-19093627D01*
X53289304Y-19103363D01*
X53286578Y-19113026D01*
X53283145Y-19122580D01*
X53279031Y-19131987D01*
X53274259Y-19141210D01*
X53268852Y-19150212D01*
X53262836Y-19158956D01*
X53256232Y-19167404D01*
X53249067Y-19175520D01*
X53241362Y-19183267D01*
X53233143Y-19190607D01*
X53224433Y-19197503D01*
X53215255Y-19203919D01*
X53205635Y-19209817D01*
X53195595Y-19215159D01*
X53185160Y-19219910D01*
X53174353Y-19224032D01*
X53163199Y-19227488D01*
X53151721Y-19230240D01*
X53139942Y-19232252D01*
X53127888Y-19233486D01*
X53115582Y-19233905D01*
X53108383Y-19233608D01*
X53101276Y-19232730D01*
X53094277Y-19231297D01*
X53087399Y-19229333D01*
X53080659Y-19226861D01*
X53074071Y-19223906D01*
X53067650Y-19220492D01*
X53061411Y-19216643D01*
X53055369Y-19212382D01*
X53049540Y-19207735D01*
X53043937Y-19202725D01*
X53038576Y-19197376D01*
X53033472Y-19191712D01*
X53028640Y-19185757D01*
X53024094Y-19179536D01*
X53019851Y-19173072D01*
X53015924Y-19166390D01*
X53012328Y-19159514D01*
X53009080Y-19152467D01*
X53006193Y-19145274D01*
X53003683Y-19137959D01*
X53001564Y-19130546D01*
X52999852Y-19123058D01*
X52998561Y-19115521D01*
X52997707Y-19107958D01*
X52997304Y-19100393D01*
X52997368Y-19092851D01*
X52997913Y-19085355D01*
X52998954Y-19077929D01*
X53000507Y-19070598D01*
X53002585Y-19063386D01*
X53005205Y-19056316D01*
X53009589Y-19046672D01*
X53014547Y-19037467D01*
X53020049Y-19028707D01*
X53026059Y-19020399D01*
X53032546Y-19012551D01*
X53039475Y-19005170D01*
X53046813Y-18998262D01*
X53054527Y-18991835D01*
X53062584Y-18985896D01*
X53070950Y-18980452D01*
X53079593Y-18975511D01*
X53088478Y-18971079D01*
X53097572Y-18967164D01*
X53106843Y-18963773D01*
X53116257Y-18960912D01*
X53125780Y-18958590D01*
X53135379Y-18956812D01*
X53145022Y-18955587D01*
X53154674Y-18954921D01*
X53164302Y-18954822D01*
X53173874Y-18955297D01*
G37*
G36*
X53108682Y-18193542D02*
G01*
X53113807Y-18193849D01*
X53124179Y-18195056D01*
X53134664Y-18197028D01*
X53145201Y-18199731D01*
X53155732Y-18203132D01*
X53166197Y-18207198D01*
X53176537Y-18211896D01*
X53186691Y-18217193D01*
X53196600Y-18223055D01*
X53206205Y-18229450D01*
X53215446Y-18236345D01*
X53224264Y-18243706D01*
X53232599Y-18251499D01*
X53240391Y-18259693D01*
X53247581Y-18268254D01*
X53254109Y-18277149D01*
X53260000Y-18286435D01*
X53265124Y-18295874D01*
X53269496Y-18305435D01*
X53273130Y-18315090D01*
X53276042Y-18324808D01*
X53278247Y-18334562D01*
X53279760Y-18344321D01*
X53280596Y-18354057D01*
X53280771Y-18363739D01*
X53280299Y-18373339D01*
X53279195Y-18382828D01*
X53277475Y-18392175D01*
X53275154Y-18401352D01*
X53272247Y-18410330D01*
X53268769Y-18419078D01*
X53264735Y-18427568D01*
X53260160Y-18435771D01*
X53255059Y-18443657D01*
X53249448Y-18451197D01*
X53243341Y-18458361D01*
X53236754Y-18465121D01*
X53229702Y-18471447D01*
X53222199Y-18477309D01*
X53214262Y-18482679D01*
X53205904Y-18487526D01*
X53197142Y-18491823D01*
X53187991Y-18495539D01*
X53178464Y-18498644D01*
X53168579Y-18501111D01*
X53158349Y-18502909D01*
X53147790Y-18504010D01*
X53136916Y-18504383D01*
X53127811Y-18504109D01*
X53118818Y-18503299D01*
X53109953Y-18501971D01*
X53101230Y-18500141D01*
X53092665Y-18497828D01*
X53084272Y-18495049D01*
X53076066Y-18491821D01*
X53068063Y-18488162D01*
X53060278Y-18484089D01*
X53052725Y-18479621D01*
X53045419Y-18474773D01*
X53038376Y-18469565D01*
X53031611Y-18464012D01*
X53025138Y-18458134D01*
X53018972Y-18451947D01*
X53013129Y-18445468D01*
X53007623Y-18438716D01*
X53002470Y-18431708D01*
X52997684Y-18424461D01*
X52993281Y-18416992D01*
X52989276Y-18409320D01*
X52985683Y-18401462D01*
X52982517Y-18393435D01*
X52979794Y-18385256D01*
X52977528Y-18376944D01*
X52975735Y-18368515D01*
X52974429Y-18359988D01*
X52973626Y-18351379D01*
X52973341Y-18342706D01*
X52973588Y-18333987D01*
X52974382Y-18325239D01*
X52975739Y-18316480D01*
X52976972Y-18310720D01*
X52978500Y-18304971D01*
X52980312Y-18299244D01*
X52982397Y-18293550D01*
X52984742Y-18287900D01*
X52987335Y-18282306D01*
X52990166Y-18276779D01*
X52993222Y-18271330D01*
X52999963Y-18260712D01*
X53007464Y-18250544D01*
X53015631Y-18240914D01*
X53024370Y-18231915D01*
X53033588Y-18223636D01*
X53043190Y-18216167D01*
X53053082Y-18209599D01*
X53058107Y-18206681D01*
X53063170Y-18204022D01*
X53068258Y-18201634D01*
X53073361Y-18199528D01*
X53078465Y-18197714D01*
X53083560Y-18196205D01*
X53088633Y-18195012D01*
X53093673Y-18194146D01*
X53098668Y-18193618D01*
X53103607Y-18193439D01*
X53108682Y-18193542D01*
G37*
G36*
X51210939Y-19815613D02*
G01*
X51217907Y-19816506D01*
X51224756Y-19818027D01*
X51231480Y-19820182D01*
X51235060Y-19821585D01*
X51238692Y-19823149D01*
X51242350Y-19824858D01*
X51246009Y-19826694D01*
X51249644Y-19828641D01*
X51253230Y-19830683D01*
X51256742Y-19832803D01*
X51260153Y-19834984D01*
X51263439Y-19837209D01*
X51266575Y-19839463D01*
X51269534Y-19841728D01*
X51272293Y-19843987D01*
X51274825Y-19846225D01*
X51277106Y-19848423D01*
X51279109Y-19850567D01*
X51280811Y-19852639D01*
X51285066Y-19858626D01*
X51288533Y-19864505D01*
X51291159Y-19870442D01*
X51292888Y-19876608D01*
X51293667Y-19883172D01*
X51293442Y-19890301D01*
X51292159Y-19898166D01*
X51289764Y-19906935D01*
X51286202Y-19916777D01*
X51281419Y-19927861D01*
X51275362Y-19940357D01*
X51267976Y-19954432D01*
X51259207Y-19970256D01*
X51249002Y-19987997D01*
X51224064Y-20029910D01*
X51190298Y-20087154D01*
X51176219Y-20112335D01*
X51163864Y-20135702D01*
X51153124Y-20157616D01*
X51143890Y-20178438D01*
X51136053Y-20198529D01*
X51129504Y-20218249D01*
X51124134Y-20237958D01*
X51119834Y-20258018D01*
X51116495Y-20278788D01*
X51114008Y-20300630D01*
X51112264Y-20323904D01*
X51111154Y-20348971D01*
X51110568Y-20376191D01*
X51110399Y-20405926D01*
X51110592Y-20447901D01*
X51110881Y-20465759D01*
X51111343Y-20481817D01*
X51112011Y-20496287D01*
X51112918Y-20509385D01*
X51114098Y-20521323D01*
X51115584Y-20532318D01*
X51117410Y-20542581D01*
X51119608Y-20552327D01*
X51122213Y-20561771D01*
X51125257Y-20571127D01*
X51128774Y-20580607D01*
X51132797Y-20590427D01*
X51137360Y-20600801D01*
X51142495Y-20611942D01*
X51149738Y-20626690D01*
X51158036Y-20642367D01*
X51167098Y-20658493D01*
X51176631Y-20674586D01*
X51186344Y-20690166D01*
X51195945Y-20704754D01*
X51205142Y-20717869D01*
X51209498Y-20723724D01*
X51213644Y-20729031D01*
X51218301Y-20734989D01*
X51222671Y-20740914D01*
X51226754Y-20746803D01*
X51230549Y-20752654D01*
X51234056Y-20758464D01*
X51237276Y-20764232D01*
X51240208Y-20769955D01*
X51242853Y-20775631D01*
X51245209Y-20781258D01*
X51247278Y-20786833D01*
X51249058Y-20792354D01*
X51250550Y-20797819D01*
X51251754Y-20803225D01*
X51252670Y-20808571D01*
X51253297Y-20813854D01*
X51253636Y-20819072D01*
X51253686Y-20824222D01*
X51253447Y-20829302D01*
X51252920Y-20834310D01*
X51252104Y-20839244D01*
X51250999Y-20844102D01*
X51249604Y-20848880D01*
X51247921Y-20853578D01*
X51245949Y-20858192D01*
X51243687Y-20862720D01*
X51241136Y-20867161D01*
X51238295Y-20871511D01*
X51235165Y-20875769D01*
X51231746Y-20879932D01*
X51228036Y-20883998D01*
X51224037Y-20887965D01*
X51219748Y-20891831D01*
X51212548Y-20897585D01*
X51205124Y-20902670D01*
X51197509Y-20907084D01*
X51189735Y-20910823D01*
X51181835Y-20913884D01*
X51173841Y-20916266D01*
X51165786Y-20917965D01*
X51157701Y-20918978D01*
X51149620Y-20919304D01*
X51145591Y-20919208D01*
X51141575Y-20918939D01*
X51137576Y-20918496D01*
X51133598Y-20917880D01*
X51129645Y-20917090D01*
X51125721Y-20916126D01*
X51121831Y-20914986D01*
X51117978Y-20913672D01*
X51114166Y-20912183D01*
X51110399Y-20910517D01*
X51106683Y-20908676D01*
X51103019Y-20906659D01*
X51099413Y-20904464D01*
X51095869Y-20902093D01*
X51087511Y-20895187D01*
X51078193Y-20885607D01*
X51068063Y-20873611D01*
X51057270Y-20859457D01*
X51045964Y-20843403D01*
X51034294Y-20825708D01*
X51022407Y-20806628D01*
X51010453Y-20786423D01*
X50986941Y-20743667D01*
X50964949Y-20699504D01*
X50954895Y-20677540D01*
X50945668Y-20655998D01*
X50937417Y-20635137D01*
X50930290Y-20615215D01*
X50920288Y-20584731D01*
X50916216Y-20571393D01*
X50912725Y-20558947D01*
X50909783Y-20547110D01*
X50907362Y-20535598D01*
X50905433Y-20524128D01*
X50903964Y-20512416D01*
X50902928Y-20500180D01*
X50902293Y-20487135D01*
X50902032Y-20472999D01*
X50902112Y-20457488D01*
X50903184Y-20421207D01*
X50905272Y-20376027D01*
X50906895Y-20346594D01*
X50908744Y-20319159D01*
X50910863Y-20293538D01*
X50913294Y-20269544D01*
X50916081Y-20246993D01*
X50919265Y-20225700D01*
X50922889Y-20205479D01*
X50926996Y-20186145D01*
X50931629Y-20167513D01*
X50936830Y-20149396D01*
X50942642Y-20131611D01*
X50949107Y-20113972D01*
X50956269Y-20096292D01*
X50964169Y-20078388D01*
X50972851Y-20060074D01*
X50982357Y-20041164D01*
X50998368Y-20011245D01*
X51014528Y-19983289D01*
X51030792Y-19957336D01*
X51047115Y-19933426D01*
X51063454Y-19911598D01*
X51071615Y-19901477D01*
X51079764Y-19891891D01*
X51087894Y-19882846D01*
X51096000Y-19874346D01*
X51104077Y-19866395D01*
X51112118Y-19859000D01*
X51120119Y-19852165D01*
X51128074Y-19845895D01*
X51135977Y-19840194D01*
X51143823Y-19835069D01*
X51151605Y-19830523D01*
X51159320Y-19826561D01*
X51166960Y-19823189D01*
X51174521Y-19820411D01*
X51181997Y-19818233D01*
X51189383Y-19816659D01*
X51196672Y-19815695D01*
X51203859Y-19815344D01*
X51210939Y-19815613D01*
G37*
G36*
X52315169Y-19665496D02*
G01*
X52318144Y-19665656D01*
X52320989Y-19665913D01*
X52323717Y-19666271D01*
X52326344Y-19666735D01*
X52328881Y-19667308D01*
X52331342Y-19667995D01*
X52333742Y-19668800D01*
X52336092Y-19669727D01*
X52338408Y-19670779D01*
X52340701Y-19671962D01*
X52342987Y-19673279D01*
X52345278Y-19674735D01*
X52347587Y-19676333D01*
X52349928Y-19678078D01*
X52352316Y-19679973D01*
X52354762Y-19682024D01*
X52359886Y-19686607D01*
X52365409Y-19691860D01*
X52371437Y-19697815D01*
X52371436Y-19697815D01*
X52376049Y-19702564D01*
X52380328Y-19707255D01*
X52384279Y-19711898D01*
X52387905Y-19716504D01*
X52391213Y-19721082D01*
X52394206Y-19725643D01*
X52396891Y-19730198D01*
X52399272Y-19734755D01*
X52401354Y-19739327D01*
X52403143Y-19743922D01*
X52404642Y-19748551D01*
X52405858Y-19753224D01*
X52406795Y-19757952D01*
X52407458Y-19762745D01*
X52407852Y-19767612D01*
X52407982Y-19772565D01*
X52407786Y-19780067D01*
X52407062Y-19787196D01*
X52405604Y-19794184D01*
X52403209Y-19801262D01*
X52399672Y-19808662D01*
X52394787Y-19816616D01*
X52388351Y-19825355D01*
X52380158Y-19835110D01*
X52370004Y-19846114D01*
X52357685Y-19858598D01*
X52342995Y-19872793D01*
X52325729Y-19888931D01*
X52282654Y-19927963D01*
X52226823Y-19977547D01*
X52201948Y-20000074D01*
X52190802Y-20010639D01*
X52180416Y-20020864D01*
X52170717Y-20030841D01*
X52161629Y-20040664D01*
X52153078Y-20050427D01*
X52144988Y-20060222D01*
X52137286Y-20070143D01*
X52129896Y-20080284D01*
X52122744Y-20090737D01*
X52115754Y-20101596D01*
X52108853Y-20112954D01*
X52101965Y-20124905D01*
X52095015Y-20137542D01*
X52087930Y-20150958D01*
X52075317Y-20175758D01*
X52063849Y-20199376D01*
X52053489Y-20221950D01*
X52044204Y-20243617D01*
X52035959Y-20264513D01*
X52028720Y-20284775D01*
X52022451Y-20304539D01*
X52017119Y-20323942D01*
X52012689Y-20343121D01*
X52009125Y-20362212D01*
X52006394Y-20381352D01*
X52004461Y-20400678D01*
X52003292Y-20420326D01*
X52002851Y-20440433D01*
X52003104Y-20461135D01*
X52004018Y-20482569D01*
X52005574Y-20504772D01*
X52007707Y-20525718D01*
X52010476Y-20545542D01*
X52013946Y-20564379D01*
X52018177Y-20582364D01*
X52023232Y-20599632D01*
X52029172Y-20616318D01*
X52036061Y-20632558D01*
X52043960Y-20648486D01*
X52052931Y-20664237D01*
X52063036Y-20679947D01*
X52074338Y-20695750D01*
X52086898Y-20711782D01*
X52100778Y-20728177D01*
X52116041Y-20745071D01*
X52132749Y-20762599D01*
X52151748Y-20782424D01*
X52168571Y-20800776D01*
X52183257Y-20817789D01*
X52189811Y-20825835D01*
X52195847Y-20833597D01*
X52201369Y-20841091D01*
X52206383Y-20848334D01*
X52210894Y-20855343D01*
X52214906Y-20862135D01*
X52218424Y-20868726D01*
X52221455Y-20875134D01*
X52224003Y-20881374D01*
X52226073Y-20887464D01*
X52227670Y-20893421D01*
X52228800Y-20899262D01*
X52229467Y-20905002D01*
X52229676Y-20910660D01*
X52229433Y-20916251D01*
X52228743Y-20921793D01*
X52227611Y-20927302D01*
X52226042Y-20932795D01*
X52224041Y-20938289D01*
X52221613Y-20943800D01*
X52218764Y-20949346D01*
X52215498Y-20954943D01*
X52211820Y-20960608D01*
X52207736Y-20966358D01*
X52203251Y-20972210D01*
X52198370Y-20978179D01*
X52190154Y-20987389D01*
X52181885Y-20995519D01*
X52173511Y-21002575D01*
X52164981Y-21008565D01*
X52160641Y-21011163D01*
X52156243Y-21013495D01*
X52151780Y-21015565D01*
X52147246Y-21017372D01*
X52142635Y-21018918D01*
X52137939Y-21020202D01*
X52133153Y-21021227D01*
X52128270Y-21021993D01*
X52123283Y-21022500D01*
X52118187Y-21022749D01*
X52112975Y-21022742D01*
X52107640Y-21022479D01*
X52096577Y-21021189D01*
X52084947Y-21018885D01*
X52072698Y-21015574D01*
X52059779Y-21011262D01*
X52046138Y-21005958D01*
X52031725Y-20999666D01*
X52011921Y-20989819D01*
X51992680Y-20978693D01*
X51974019Y-20966334D01*
X51955955Y-20952785D01*
X51921684Y-20922298D01*
X51889998Y-20887589D01*
X51861032Y-20849016D01*
X51834919Y-20806934D01*
X51811792Y-20761702D01*
X51791783Y-20713674D01*
X51775027Y-20663210D01*
X51761657Y-20610665D01*
X51751805Y-20556396D01*
X51745605Y-20500761D01*
X51743190Y-20444116D01*
X51744694Y-20386817D01*
X51750249Y-20329223D01*
X51759989Y-20271689D01*
X51765548Y-20245972D01*
X51771348Y-20221450D01*
X51777443Y-20198006D01*
X51783884Y-20175521D01*
X51790722Y-20153879D01*
X51798010Y-20132960D01*
X51805800Y-20112648D01*
X51814143Y-20092825D01*
X51823092Y-20073373D01*
X51832697Y-20054173D01*
X51843011Y-20035109D01*
X51854086Y-20016063D01*
X51865974Y-19996916D01*
X51878727Y-19977551D01*
X51892395Y-19957850D01*
X51907032Y-19937696D01*
X51928592Y-19909624D01*
X51950716Y-19882780D01*
X51973324Y-19857222D01*
X51996338Y-19833008D01*
X52019678Y-19810196D01*
X52043265Y-19788843D01*
X52067021Y-19769008D01*
X52090865Y-19750748D01*
X52114720Y-19734121D01*
X52138505Y-19719185D01*
X52162142Y-19705999D01*
X52185551Y-19694619D01*
X52208654Y-19685103D01*
X52231372Y-19677510D01*
X52253624Y-19671898D01*
X52275333Y-19668324D01*
X52285091Y-19667213D01*
X52293846Y-19666342D01*
X52301706Y-19665743D01*
X52308777Y-19665450D01*
X52312051Y-19665428D01*
X52315169Y-19665496D01*
G37*
G36*
X51073789Y-16997584D02*
G01*
X51080047Y-16997845D01*
X51085878Y-16998300D01*
X51091320Y-16998964D01*
X51093906Y-16999380D01*
X51096408Y-16999853D01*
X51098831Y-17000387D01*
X51101179Y-17000983D01*
X51103457Y-17001644D01*
X51105669Y-17002370D01*
X51107819Y-17003165D01*
X51109914Y-17004029D01*
X51111956Y-17004966D01*
X51113950Y-17005977D01*
X51115902Y-17007064D01*
X51117815Y-17008229D01*
X51119694Y-17009474D01*
X51121543Y-17010800D01*
X51123368Y-17012211D01*
X51125172Y-17013708D01*
X51126961Y-17015293D01*
X51128738Y-17016967D01*
X51132277Y-17020593D01*
X51135825Y-17024603D01*
X51139419Y-17029012D01*
X51139418Y-17029012D01*
X51143211Y-17033978D01*
X51146686Y-17038834D01*
X51149839Y-17043585D01*
X51152670Y-17048236D01*
X51155177Y-17052795D01*
X51157356Y-17057267D01*
X51159206Y-17061657D01*
X51160725Y-17065972D01*
X51161911Y-17070218D01*
X51162761Y-17074400D01*
X51163275Y-17078524D01*
X51163449Y-17082597D01*
X51163281Y-17086624D01*
X51162770Y-17090610D01*
X51161913Y-17094563D01*
X51160708Y-17098488D01*
X51159154Y-17102390D01*
X51157248Y-17106276D01*
X51154988Y-17110151D01*
X51152371Y-17114022D01*
X51149397Y-17117894D01*
X51146063Y-17121773D01*
X51142366Y-17125666D01*
X51138305Y-17129577D01*
X51133877Y-17133513D01*
X51129081Y-17137481D01*
X51123914Y-17141484D01*
X51118375Y-17145531D01*
X51106170Y-17153775D01*
X51092449Y-17162260D01*
X51080976Y-17169365D01*
X51070003Y-17176733D01*
X51059503Y-17184398D01*
X51049448Y-17192394D01*
X51039807Y-17200754D01*
X51030554Y-17209513D01*
X51021659Y-17218702D01*
X51013094Y-17228358D01*
X51004829Y-17238512D01*
X50996838Y-17249198D01*
X50989090Y-17260451D01*
X50981558Y-17272303D01*
X50974212Y-17284789D01*
X50967025Y-17297942D01*
X50959967Y-17311796D01*
X50953011Y-17326384D01*
X50943316Y-17348195D01*
X50939253Y-17358177D01*
X50935674Y-17367763D01*
X50932548Y-17377118D01*
X50929846Y-17386405D01*
X50927538Y-17395790D01*
X50925596Y-17405436D01*
X50923988Y-17415508D01*
X50922687Y-17426171D01*
X50921662Y-17437589D01*
X50920883Y-17449925D01*
X50919947Y-17478015D01*
X50919643Y-17511754D01*
X50919957Y-17539041D01*
X50921029Y-17564474D01*
X50921862Y-17576523D01*
X50922899Y-17588141D01*
X50924146Y-17599339D01*
X50925606Y-17610129D01*
X50927286Y-17620520D01*
X50929190Y-17630525D01*
X50931322Y-17640154D01*
X50933688Y-17649418D01*
X50936293Y-17658327D01*
X50939141Y-17666894D01*
X50942238Y-17675128D01*
X50945588Y-17683041D01*
X50949197Y-17690643D01*
X50953068Y-17697946D01*
X50957208Y-17704960D01*
X50961621Y-17711697D01*
X50966311Y-17718167D01*
X50971284Y-17724381D01*
X50976545Y-17730351D01*
X50982099Y-17736086D01*
X50987950Y-17741599D01*
X50994103Y-17746899D01*
X51000563Y-17751999D01*
X51007336Y-17756908D01*
X51014426Y-17761637D01*
X51021838Y-17766199D01*
X51029576Y-17770603D01*
X51037647Y-17774861D01*
X51052133Y-17782379D01*
X51064907Y-17789392D01*
X51076016Y-17796007D01*
X51080962Y-17799200D01*
X51085509Y-17802335D01*
X51089664Y-17805426D01*
X51093433Y-17808485D01*
X51096822Y-17811528D01*
X51099838Y-17814567D01*
X51102485Y-17817617D01*
X51104770Y-17820690D01*
X51106699Y-17823802D01*
X51108279Y-17826964D01*
X51109515Y-17830192D01*
X51110412Y-17833498D01*
X51110979Y-17836897D01*
X51111219Y-17840402D01*
X51111140Y-17844027D01*
X51110747Y-17847786D01*
X51110046Y-17851691D01*
X51109044Y-17855758D01*
X51107746Y-17859999D01*
X51106159Y-17864428D01*
X51104288Y-17869060D01*
X51102140Y-17873907D01*
X51097035Y-17884303D01*
X51090893Y-17895725D01*
X51081138Y-17913061D01*
X51076929Y-17920075D01*
X51072978Y-17926087D01*
X51069144Y-17931176D01*
X51067225Y-17933397D01*
X51065283Y-17935416D01*
X51063299Y-17937243D01*
X51061256Y-17938885D01*
X51059136Y-17940355D01*
X51056920Y-17941660D01*
X51054593Y-17942810D01*
X51052135Y-17943815D01*
X51049529Y-17944685D01*
X51046758Y-17945429D01*
X51043804Y-17946056D01*
X51040649Y-17946576D01*
X51033665Y-17947335D01*
X51025665Y-17947781D01*
X51016508Y-17947991D01*
X50994158Y-17948007D01*
X50983864Y-17947897D01*
X50974421Y-17947631D01*
X50965739Y-17947180D01*
X50957728Y-17946515D01*
X50950296Y-17945605D01*
X50943353Y-17944421D01*
X50936810Y-17942933D01*
X50930575Y-17941113D01*
X50924558Y-17938930D01*
X50918669Y-17936355D01*
X50912818Y-17933359D01*
X50906913Y-17929911D01*
X50900865Y-17925983D01*
X50894582Y-17921545D01*
X50887976Y-17916567D01*
X50880954Y-17911019D01*
X50863927Y-17896429D01*
X50847867Y-17880844D01*
X50832776Y-17864267D01*
X50818654Y-17846700D01*
X50805503Y-17828147D01*
X50793324Y-17808608D01*
X50782117Y-17788087D01*
X50771885Y-17766587D01*
X50762627Y-17744108D01*
X50754345Y-17720655D01*
X50747040Y-17696229D01*
X50740713Y-17670832D01*
X50735366Y-17644468D01*
X50730998Y-17617138D01*
X50727612Y-17588845D01*
X50725208Y-17559592D01*
X50723863Y-17527035D01*
X50724047Y-17495000D01*
X50725759Y-17463490D01*
X50728997Y-17432510D01*
X50733759Y-17402065D01*
X50740043Y-17372160D01*
X50747848Y-17342800D01*
X50757172Y-17313990D01*
X50768013Y-17285734D01*
X50780370Y-17258038D01*
X50794241Y-17230906D01*
X50809624Y-17204342D01*
X50826518Y-17178353D01*
X50844920Y-17152943D01*
X50864829Y-17128116D01*
X50886244Y-17103877D01*
X50900391Y-17088823D01*
X50913699Y-17075160D01*
X50926267Y-17062830D01*
X50938192Y-17051775D01*
X50949574Y-17041938D01*
X50960511Y-17033260D01*
X50971102Y-17025683D01*
X50981444Y-17019150D01*
X50991636Y-17013603D01*
X51001778Y-17008983D01*
X51011967Y-17005233D01*
X51022301Y-17002295D01*
X51032880Y-17000111D01*
X51043802Y-16998622D01*
X51055165Y-16997771D01*
X51067069Y-16997501D01*
X51073789Y-16997584D01*
G37*
G36*
X52176428Y-17014049D02*
G01*
X52208980Y-17016797D01*
X52241163Y-17020439D01*
X52272947Y-17024954D01*
X52304301Y-17030325D01*
X52335195Y-17036531D01*
X52365597Y-17043555D01*
X52395476Y-17051377D01*
X52424803Y-17059977D01*
X52453545Y-17069337D01*
X52481673Y-17079438D01*
X52509155Y-17090261D01*
X52535961Y-17101786D01*
X52562059Y-17113996D01*
X52587419Y-17126869D01*
X52612011Y-17140388D01*
X52635802Y-17154534D01*
X52658763Y-17169287D01*
X52680863Y-17184629D01*
X52702071Y-17200539D01*
X52722355Y-17217000D01*
X52741686Y-17233993D01*
X52760032Y-17251497D01*
X52777362Y-17269495D01*
X52793646Y-17287966D01*
X52808854Y-17306893D01*
X52822953Y-17326256D01*
X52835913Y-17346035D01*
X52847704Y-17366213D01*
X52858295Y-17386769D01*
X52867654Y-17407685D01*
X52875751Y-17428941D01*
X52882555Y-17450520D01*
X52882556Y-17450520D01*
X52886289Y-17465496D01*
X52889262Y-17481247D01*
X52891483Y-17497667D01*
X52892965Y-17514651D01*
X52893715Y-17532093D01*
X52893745Y-17549889D01*
X52893064Y-17567932D01*
X52891683Y-17586117D01*
X52889611Y-17604340D01*
X52886858Y-17622494D01*
X52883434Y-17640474D01*
X52879350Y-17658176D01*
X52874615Y-17675493D01*
X52869240Y-17692320D01*
X52863233Y-17708552D01*
X52856606Y-17724084D01*
X52847042Y-17743080D01*
X52835591Y-17762516D01*
X52822387Y-17782267D01*
X52807562Y-17802208D01*
X52791249Y-17822214D01*
X52773580Y-17842162D01*
X52754688Y-17861925D01*
X52734705Y-17881380D01*
X52713765Y-17900402D01*
X52691999Y-17918866D01*
X52669540Y-17936648D01*
X52646521Y-17953623D01*
X52623074Y-17969665D01*
X52599333Y-17984652D01*
X52575429Y-17998457D01*
X52551495Y-18010956D01*
X52522787Y-18024709D01*
X52494566Y-18037344D01*
X52466683Y-18048893D01*
X52438988Y-18059388D01*
X52411334Y-18068862D01*
X52383570Y-18077346D01*
X52355549Y-18084871D01*
X52327120Y-18091471D01*
X52298134Y-18097177D01*
X52268444Y-18102021D01*
X52237899Y-18106034D01*
X52206350Y-18109249D01*
X52173649Y-18111698D01*
X52139646Y-18113413D01*
X52104193Y-18114425D01*
X52067140Y-18114766D01*
X52030999Y-18114562D01*
X51997314Y-18113871D01*
X51965791Y-18112629D01*
X51936136Y-18110774D01*
X51908054Y-18108240D01*
X51881250Y-18104963D01*
X51855431Y-18100880D01*
X51830300Y-18095927D01*
X51805565Y-18090039D01*
X51780930Y-18083152D01*
X51756100Y-18075202D01*
X51730781Y-18066126D01*
X51704678Y-18055859D01*
X51677498Y-18044337D01*
X51648945Y-18031496D01*
X51618724Y-18017273D01*
X51602613Y-18009438D01*
X51587503Y-18001852D01*
X51573298Y-17994444D01*
X51559899Y-17987149D01*
X51547211Y-17979899D01*
X51535136Y-17972626D01*
X51523577Y-17965263D01*
X51512436Y-17957742D01*
X51501617Y-17949995D01*
X51491023Y-17941956D01*
X51480557Y-17933557D01*
X51470121Y-17924730D01*
X51459618Y-17915407D01*
X51448952Y-17905522D01*
X51438025Y-17895007D01*
X51426740Y-17883794D01*
X51407563Y-17864059D01*
X51390160Y-17845230D01*
X51374455Y-17827140D01*
X51360374Y-17809623D01*
X51347839Y-17792512D01*
X51336776Y-17775641D01*
X51333891Y-17770628D01*
X51693342Y-17770628D01*
X51693416Y-17775345D01*
X51693842Y-17780283D01*
X51694612Y-17785514D01*
X51695718Y-17791110D01*
X51697154Y-17797142D01*
X51698912Y-17803682D01*
X51700984Y-17810802D01*
X51704763Y-17821579D01*
X51709446Y-17831800D01*
X51714988Y-17841462D01*
X51721342Y-17850558D01*
X51728463Y-17859083D01*
X51736303Y-17867031D01*
X51744818Y-17874395D01*
X51753961Y-17881172D01*
X51763686Y-17887354D01*
X51773948Y-17892937D01*
X51784699Y-17897915D01*
X51795893Y-17902282D01*
X51807486Y-17906032D01*
X51819431Y-17909159D01*
X51831681Y-17911659D01*
X51844190Y-17913526D01*
X51856914Y-17914753D01*
X51869805Y-17915335D01*
X51882817Y-17915267D01*
X51895904Y-17914543D01*
X51909021Y-17913157D01*
X51922121Y-17911104D01*
X51935159Y-17908377D01*
X51948087Y-17904972D01*
X51960860Y-17900883D01*
X51973433Y-17896103D01*
X51985758Y-17890628D01*
X51997790Y-17884451D01*
X52009483Y-17877568D01*
X52020791Y-17869972D01*
X52031667Y-17861658D01*
X52042066Y-17852619D01*
X52042067Y-17852619D01*
X52045969Y-17848831D01*
X52049614Y-17844938D01*
X52053003Y-17840949D01*
X52056136Y-17836869D01*
X52059013Y-17832704D01*
X52061634Y-17828461D01*
X52064000Y-17824148D01*
X52066109Y-17819769D01*
X52067963Y-17815331D01*
X52069561Y-17810842D01*
X52070904Y-17806307D01*
X52071992Y-17801732D01*
X52072824Y-17797125D01*
X52073400Y-17792492D01*
X52073722Y-17787839D01*
X52073789Y-17783173D01*
X52073600Y-17778499D01*
X52073157Y-17773826D01*
X52072459Y-17769158D01*
X52071506Y-17764502D01*
X52070298Y-17759866D01*
X52068836Y-17755255D01*
X52067119Y-17750675D01*
X52065148Y-17746134D01*
X52062923Y-17741638D01*
X52060443Y-17737193D01*
X52057710Y-17732805D01*
X52054722Y-17728481D01*
X52051480Y-17724228D01*
X52047984Y-17720052D01*
X52044235Y-17715959D01*
X52040231Y-17711956D01*
X52030619Y-17703241D01*
X52020635Y-17695131D01*
X52010311Y-17687625D01*
X51999680Y-17680721D01*
X51988775Y-17674418D01*
X51977628Y-17668716D01*
X51966272Y-17663611D01*
X51954740Y-17659103D01*
X51943063Y-17655190D01*
X51931275Y-17651872D01*
X51919408Y-17649146D01*
X51907495Y-17647011D01*
X51895569Y-17645466D01*
X51883661Y-17644509D01*
X51871805Y-17644140D01*
X51860033Y-17644355D01*
X51848378Y-17645155D01*
X51836872Y-17646537D01*
X51825549Y-17648501D01*
X51814439Y-17651045D01*
X51803577Y-17654167D01*
X51792995Y-17657866D01*
X51782724Y-17662141D01*
X51772799Y-17666989D01*
X51763251Y-17672411D01*
X51754114Y-17678404D01*
X51745418Y-17684967D01*
X51737199Y-17692099D01*
X51729487Y-17699797D01*
X51722315Y-17708062D01*
X51715717Y-17716890D01*
X51709724Y-17726282D01*
X51706299Y-17732239D01*
X51703293Y-17737771D01*
X51700698Y-17742950D01*
X51698506Y-17747847D01*
X51696711Y-17752536D01*
X51695304Y-17757086D01*
X51694279Y-17761570D01*
X51693627Y-17766060D01*
X51693342Y-17770628D01*
X51333891Y-17770628D01*
X51327109Y-17758843D01*
X51318763Y-17741953D01*
X51311663Y-17724803D01*
X51305731Y-17707227D01*
X51300894Y-17689059D01*
X51297075Y-17670133D01*
X51294199Y-17650281D01*
X51292191Y-17629338D01*
X51290975Y-17607136D01*
X51290475Y-17583510D01*
X51290522Y-17553324D01*
X51290794Y-17540159D01*
X51291270Y-17528079D01*
X51291980Y-17516934D01*
X51292953Y-17506573D01*
X51294218Y-17496847D01*
X51295804Y-17487605D01*
X51297740Y-17478698D01*
X51300056Y-17469975D01*
X51302779Y-17461285D01*
X51305941Y-17452480D01*
X51309569Y-17443408D01*
X51313693Y-17433919D01*
X51318343Y-17423864D01*
X51323546Y-17413092D01*
X51349837Y-17366081D01*
X51381283Y-17321287D01*
X51417550Y-17278864D01*
X51458305Y-17238970D01*
X51503217Y-17201759D01*
X51551952Y-17167387D01*
X51604178Y-17136010D01*
X51659563Y-17107783D01*
X51717773Y-17082861D01*
X51778476Y-17061402D01*
X51841340Y-17043559D01*
X51871805Y-17036933D01*
X51906032Y-17029489D01*
X51972220Y-17019348D01*
X52039570Y-17013290D01*
X52107750Y-17011472D01*
X52176428Y-17014049D01*
G37*
G36*
X53646104Y-17480654D02*
G01*
X53656032Y-17482003D01*
X53665489Y-17484204D01*
X53670004Y-17485634D01*
X53674359Y-17487289D01*
X53682508Y-17492032D01*
X53693055Y-17500359D01*
X53705732Y-17511946D01*
X53720267Y-17526466D01*
X53753839Y-17562999D01*
X53791615Y-17607349D01*
X53831439Y-17656907D01*
X53871154Y-17709065D01*
X53908604Y-17761211D01*
X53941633Y-17810739D01*
X53967249Y-17852330D01*
X53991836Y-17894883D01*
X54015369Y-17938328D01*
X54037824Y-17982595D01*
X54059173Y-18027612D01*
X54079391Y-18073311D01*
X54098451Y-18119619D01*
X54116329Y-18166467D01*
X54132999Y-18213784D01*
X54148433Y-18261500D01*
X54162608Y-18309544D01*
X54175496Y-18357845D01*
X54187072Y-18406335D01*
X54197310Y-18454940D01*
X54206185Y-18503593D01*
X54213669Y-18552221D01*
X54213670Y-18552221D01*
X54216596Y-18577716D01*
X54218840Y-18606943D01*
X54221359Y-18674613D01*
X54221391Y-18751262D01*
X54219099Y-18832922D01*
X54214645Y-18915624D01*
X54208192Y-18995400D01*
X54199904Y-19068282D01*
X54189944Y-19130301D01*
X54181198Y-19172202D01*
X54171304Y-19213827D01*
X54160264Y-19255173D01*
X54148080Y-19296238D01*
X54134752Y-19337017D01*
X54120282Y-19377508D01*
X54104672Y-19417707D01*
X54087924Y-19457611D01*
X54070037Y-19497217D01*
X54051015Y-19536520D01*
X54030858Y-19575519D01*
X54009569Y-19614208D01*
X53987147Y-19652586D01*
X53963595Y-19690649D01*
X53938915Y-19728393D01*
X53913107Y-19765815D01*
X53894360Y-19791399D01*
X53873340Y-19818456D01*
X53850318Y-19846707D01*
X53825569Y-19875874D01*
X53771973Y-19935841D01*
X53714732Y-19996126D01*
X53656023Y-20054501D01*
X53598024Y-20108735D01*
X53569972Y-20133603D01*
X53542915Y-20156600D01*
X53517124Y-20177447D01*
X53492873Y-20195866D01*
X53399763Y-20263982D01*
X53435381Y-20297255D01*
X53441667Y-20303384D01*
X53447509Y-20309602D01*
X53452906Y-20315899D01*
X53457859Y-20322263D01*
X53462371Y-20328683D01*
X53466441Y-20335147D01*
X53470070Y-20341645D01*
X53473260Y-20348166D01*
X53476012Y-20354697D01*
X53478325Y-20361228D01*
X53480202Y-20367748D01*
X53481642Y-20374246D01*
X53482648Y-20380710D01*
X53483219Y-20387129D01*
X53483358Y-20393492D01*
X53483064Y-20399787D01*
X53482338Y-20406004D01*
X53481182Y-20412131D01*
X53479597Y-20418157D01*
X53477583Y-20424071D01*
X53475141Y-20429862D01*
X53472272Y-20435518D01*
X53468978Y-20441029D01*
X53465258Y-20446382D01*
X53461115Y-20451568D01*
X53456548Y-20456574D01*
X53451559Y-20461389D01*
X53446148Y-20466003D01*
X53440318Y-20470403D01*
X53434067Y-20474580D01*
X53427398Y-20478521D01*
X53420312Y-20482215D01*
X53407734Y-20487832D01*
X53401567Y-20490169D01*
X53395469Y-20492187D01*
X53389432Y-20493883D01*
X53383447Y-20495253D01*
X53377504Y-20496295D01*
X53371596Y-20497005D01*
X53365713Y-20497379D01*
X53359846Y-20497414D01*
X53353987Y-20497108D01*
X53348126Y-20496456D01*
X53342255Y-20495455D01*
X53336366Y-20494102D01*
X53330448Y-20492394D01*
X53324493Y-20490327D01*
X53318493Y-20487898D01*
X53312438Y-20485103D01*
X53306321Y-20481940D01*
X53300130Y-20478405D01*
X53287498Y-20470205D01*
X53274471Y-20460477D01*
X53260979Y-20449194D01*
X53246950Y-20436330D01*
X53232313Y-20421857D01*
X53216999Y-20405750D01*
X53200213Y-20386980D01*
X53184381Y-20367975D01*
X53169521Y-20348769D01*
X53155649Y-20329399D01*
X53142781Y-20309900D01*
X53130934Y-20290307D01*
X53120125Y-20270655D01*
X53110370Y-20250979D01*
X53101685Y-20231315D01*
X53094088Y-20211699D01*
X53087594Y-20192164D01*
X53082220Y-20172747D01*
X53077983Y-20153484D01*
X53074900Y-20134408D01*
X53072986Y-20115556D01*
X53072259Y-20096962D01*
X53072217Y-20084787D01*
X53072296Y-20073873D01*
X53072529Y-20064110D01*
X53072951Y-20055390D01*
X53073243Y-20051387D01*
X53073596Y-20047603D01*
X53074013Y-20044025D01*
X53074499Y-20040640D01*
X53075058Y-20037434D01*
X53075694Y-20034392D01*
X53076412Y-20031502D01*
X53077216Y-20028750D01*
X53078110Y-20026122D01*
X53079099Y-20023605D01*
X53080186Y-20021184D01*
X53081377Y-20018847D01*
X53082675Y-20016579D01*
X53084086Y-20014367D01*
X53085612Y-20012197D01*
X53087259Y-20010056D01*
X53089030Y-20007929D01*
X53090930Y-20005804D01*
X53092964Y-20003667D01*
X53095136Y-20001504D01*
X53099909Y-19997045D01*
X53105285Y-19992318D01*
X53111054Y-19987636D01*
X53116971Y-19983385D01*
X53123020Y-19979562D01*
X53129186Y-19976162D01*
X53135454Y-19973182D01*
X53141807Y-19970618D01*
X53148230Y-19968466D01*
X53154708Y-19966722D01*
X53161225Y-19965382D01*
X53167765Y-19964442D01*
X53174314Y-19963899D01*
X53180855Y-19963749D01*
X53187373Y-19963988D01*
X53193852Y-19964611D01*
X53200278Y-19965616D01*
X53206633Y-19966998D01*
X53212904Y-19968753D01*
X53219073Y-19970877D01*
X53225127Y-19973368D01*
X53231048Y-19976220D01*
X53236823Y-19979430D01*
X53242434Y-19982994D01*
X53247867Y-19986908D01*
X53253106Y-19991169D01*
X53258136Y-19995772D01*
X53262940Y-20000714D01*
X53267504Y-20005990D01*
X53271812Y-20011597D01*
X53275848Y-20017532D01*
X53279597Y-20023790D01*
X53283044Y-20030367D01*
X53286172Y-20037259D01*
X53300839Y-20072143D01*
X53371655Y-20019960D01*
X53398999Y-19998575D01*
X53427838Y-19973712D01*
X53457880Y-19945732D01*
X53488831Y-19914997D01*
X53520396Y-19881868D01*
X53552284Y-19846706D01*
X53584200Y-19809872D01*
X53615852Y-19771727D01*
X53646945Y-19732633D01*
X53677187Y-19692950D01*
X53706284Y-19653041D01*
X53733942Y-19613265D01*
X53759868Y-19573985D01*
X53783769Y-19535561D01*
X53805351Y-19498355D01*
X53824322Y-19462728D01*
X53848588Y-19411199D01*
X53871037Y-19356337D01*
X53891605Y-19298599D01*
X53910227Y-19238443D01*
X53926842Y-19176325D01*
X53941384Y-19112703D01*
X53953791Y-19048035D01*
X53963999Y-18982778D01*
X53971945Y-18917389D01*
X53977565Y-18852325D01*
X53980796Y-18788044D01*
X53981573Y-18725003D01*
X53979835Y-18663659D01*
X53975516Y-18604470D01*
X53968555Y-18547893D01*
X53958886Y-18494386D01*
X53946920Y-18441531D01*
X53933845Y-18390204D01*
X53919579Y-18340240D01*
X53904043Y-18291474D01*
X53887156Y-18243742D01*
X53868836Y-18196878D01*
X53849003Y-18150719D01*
X53827576Y-18105099D01*
X53804475Y-18059854D01*
X53779619Y-18014818D01*
X53752927Y-17969828D01*
X53724319Y-17924718D01*
X53693713Y-17879324D01*
X53661029Y-17833481D01*
X53626187Y-17787025D01*
X53589105Y-17739790D01*
X53573619Y-17720102D01*
X53559810Y-17701719D01*
X53547651Y-17684544D01*
X53537112Y-17668479D01*
X53532441Y-17660832D01*
X53528165Y-17653426D01*
X53524280Y-17646248D01*
X53520781Y-17639287D01*
X53517666Y-17632530D01*
X53514932Y-17625965D01*
X53512574Y-17619580D01*
X53510588Y-17613363D01*
X53508973Y-17607301D01*
X53507722Y-17601382D01*
X53506834Y-17595594D01*
X53506305Y-17589926D01*
X53506130Y-17584363D01*
X53506307Y-17578895D01*
X53506832Y-17573510D01*
X53507701Y-17568194D01*
X53508911Y-17562936D01*
X53510458Y-17557724D01*
X53512339Y-17552545D01*
X53514549Y-17547388D01*
X53517086Y-17542239D01*
X53519946Y-17537087D01*
X53523124Y-17531920D01*
X53526619Y-17526725D01*
X53529264Y-17523202D01*
X53532181Y-17519788D01*
X53535355Y-17516487D01*
X53538771Y-17513303D01*
X53546274Y-17507302D01*
X53554573Y-17501815D01*
X53563553Y-17496874D01*
X53573100Y-17492508D01*
X53583099Y-17488748D01*
X53593432Y-17485626D01*
X53603987Y-17483173D01*
X53614647Y-17481418D01*
X53625296Y-17480393D01*
X53635821Y-17480128D01*
X53646104Y-17480654D01*
G37*
G36*
X53149461Y-15996447D02*
G01*
X53190213Y-15998880D01*
X53230077Y-16002195D01*
X53269153Y-16006417D01*
X53307543Y-16011574D01*
X53345348Y-16017692D01*
X53382669Y-16024799D01*
X53419607Y-16032920D01*
X53456264Y-16042084D01*
X53492742Y-16052317D01*
X53529140Y-16063645D01*
X53565561Y-16076096D01*
X53602105Y-16089696D01*
X53638874Y-16104473D01*
X53675970Y-16120452D01*
X53713493Y-16137662D01*
X53751544Y-16156128D01*
X53852826Y-16210989D01*
X53950621Y-16272876D01*
X54044846Y-16341673D01*
X54135420Y-16417262D01*
X54222260Y-16499526D01*
X54305284Y-16588347D01*
X54384412Y-16683608D01*
X54459560Y-16785192D01*
X54530647Y-16892982D01*
X54597591Y-17006859D01*
X54660310Y-17126708D01*
X54718722Y-17252410D01*
X54772745Y-17383848D01*
X54822296Y-17520905D01*
X54867296Y-17663463D01*
X54907660Y-17811406D01*
X54915062Y-17841583D01*
X54922263Y-17872564D01*
X54929085Y-17903470D01*
X54935348Y-17933419D01*
X54940874Y-17961533D01*
X54945484Y-17986929D01*
X54948999Y-18008729D01*
X54951241Y-18026051D01*
X54958737Y-18097759D01*
X55007860Y-18110486D01*
X55016097Y-18112635D01*
X55095853Y-18133444D01*
X55099888Y-18134453D01*
X55103794Y-18135327D01*
X55107550Y-18136065D01*
X55111140Y-18136666D01*
X55114546Y-18137132D01*
X55117749Y-18137461D01*
X55120732Y-18137655D01*
X55123477Y-18137713D01*
X55124755Y-18137691D01*
X55125966Y-18137636D01*
X55127109Y-18137546D01*
X55128181Y-18137423D01*
X55129181Y-18137265D01*
X55130105Y-18137074D01*
X55130952Y-18136849D01*
X55131719Y-18136590D01*
X55132404Y-18136297D01*
X55133005Y-18135970D01*
X55133520Y-18135609D01*
X55133946Y-18135215D01*
X55134282Y-18134787D01*
X55134524Y-18134324D01*
X55134671Y-18133829D01*
X55134720Y-18133299D01*
X55135633Y-18129428D01*
X55138312Y-18123863D01*
X55148599Y-18108043D01*
X55164853Y-18086615D01*
X55186346Y-18060356D01*
X55242132Y-17996448D01*
X55310124Y-17922530D01*
X55384493Y-17844812D01*
X55459408Y-17769506D01*
X55529036Y-17702823D01*
X55560047Y-17674655D01*
X55587549Y-17650973D01*
X55650254Y-17600544D01*
X55716343Y-17550569D01*
X55785644Y-17501138D01*
X55857986Y-17452343D01*
X55933196Y-17404275D01*
X56011104Y-17357027D01*
X56091537Y-17310690D01*
X56174325Y-17265355D01*
X56346276Y-17178059D01*
X56525585Y-17095872D01*
X56710880Y-17019527D01*
X56900787Y-16949756D01*
X57016015Y-16911837D01*
X57134727Y-16876212D01*
X57253296Y-16843733D01*
X57368094Y-16815251D01*
X57475492Y-16791617D01*
X57571861Y-16773682D01*
X57614776Y-16767117D01*
X57653573Y-16762297D01*
X57687800Y-16759326D01*
X57717001Y-16758313D01*
X57734414Y-16758744D01*
X57734809Y-16758753D01*
X57753702Y-16760049D01*
X57773524Y-16762157D01*
X57794118Y-16765037D01*
X57815327Y-16768647D01*
X57836995Y-16772946D01*
X57858964Y-16777892D01*
X57881079Y-16783445D01*
X57903182Y-16789562D01*
X57925117Y-16796203D01*
X57946726Y-16803326D01*
X57967854Y-16810890D01*
X57988343Y-16818853D01*
X58008037Y-16827174D01*
X58026780Y-16835811D01*
X58044413Y-16844724D01*
X58074053Y-16861766D01*
X58103815Y-16881432D01*
X58133561Y-16903554D01*
X58163149Y-16927964D01*
X58192441Y-16954495D01*
X58221297Y-16982979D01*
X58249576Y-17013247D01*
X58269284Y-17036044D01*
X58277139Y-17045131D01*
X58303846Y-17078464D01*
X58329558Y-17113077D01*
X58354134Y-17148802D01*
X58377435Y-17185472D01*
X58399321Y-17222919D01*
X58419653Y-17260973D01*
X58438289Y-17299469D01*
X58455091Y-17338236D01*
X58466515Y-17367088D01*
X58476858Y-17395053D01*
X58486157Y-17422363D01*
X58494445Y-17449248D01*
X58501757Y-17475939D01*
X58508128Y-17502667D01*
X58513593Y-17529662D01*
X58518185Y-17557155D01*
X58521939Y-17585377D01*
X58524890Y-17614557D01*
X58527073Y-17644928D01*
X58528521Y-17676718D01*
X58529270Y-17710160D01*
X58529355Y-17745484D01*
X58527667Y-17822698D01*
X58526004Y-17863333D01*
X58523900Y-17901438D01*
X58521297Y-17937268D01*
X58518135Y-17971078D01*
X58514357Y-18003123D01*
X58509903Y-18033659D01*
X58504716Y-18062940D01*
X58498736Y-18091223D01*
X58491904Y-18118762D01*
X58484163Y-18145813D01*
X58475454Y-18172630D01*
X58465718Y-18199470D01*
X58454896Y-18226588D01*
X58442931Y-18254238D01*
X58429763Y-18282676D01*
X58415333Y-18312158D01*
X58407033Y-18328485D01*
X58398977Y-18343816D01*
X58391079Y-18358272D01*
X58383249Y-18371973D01*
X58375400Y-18385041D01*
X58367444Y-18397596D01*
X58359293Y-18409759D01*
X58350858Y-18421650D01*
X58342053Y-18433389D01*
X58332788Y-18445098D01*
X58322976Y-18456897D01*
X58312528Y-18468906D01*
X58301358Y-18481247D01*
X58289376Y-18494040D01*
X58262628Y-18521464D01*
X58226716Y-18556200D01*
X58190881Y-18588055D01*
X58154691Y-18617190D01*
X58117711Y-18643764D01*
X58079510Y-18667939D01*
X58039654Y-18689876D01*
X57997710Y-18709735D01*
X57953246Y-18727678D01*
X57905829Y-18743864D01*
X57855024Y-18758455D01*
X57800401Y-18771612D01*
X57741526Y-18783496D01*
X57677965Y-18794267D01*
X57609286Y-18804085D01*
X57535056Y-18813113D01*
X57454843Y-18821511D01*
X57371270Y-18830406D01*
X57289594Y-18840387D01*
X57252393Y-18845404D01*
X57219179Y-18850233D01*
X57191123Y-18854724D01*
X57169393Y-18858724D01*
X57150675Y-18862820D01*
X57131616Y-18867519D01*
X57112441Y-18872732D01*
X57093374Y-18878368D01*
X57074638Y-18884334D01*
X57056459Y-18890542D01*
X57039058Y-18896899D01*
X57022661Y-18903316D01*
X57007492Y-18909701D01*
X56993774Y-18915963D01*
X56981731Y-18922012D01*
X56971587Y-18927757D01*
X56963566Y-18933107D01*
X56960421Y-18935605D01*
X56957892Y-18937971D01*
X56956005Y-18940193D01*
X56954788Y-18942259D01*
X56954270Y-18944158D01*
X56954479Y-18945880D01*
X56955454Y-18947675D01*
X56957503Y-18950676D01*
X56964598Y-18960018D01*
X56975302Y-18973355D01*
X56989155Y-18990134D01*
X57024463Y-19031805D01*
X57063292Y-19076528D01*
X57066838Y-19080612D01*
X57163778Y-19192926D01*
X57206299Y-19243904D01*
X57245280Y-19292087D01*
X57281040Y-19337968D01*
X57313898Y-19382040D01*
X57344173Y-19424797D01*
X57372186Y-19466730D01*
X57398254Y-19508335D01*
X57422697Y-19550103D01*
X57445835Y-19592528D01*
X57467986Y-19636103D01*
X57489470Y-19681321D01*
X57510606Y-19728675D01*
X57531714Y-19778659D01*
X57553112Y-19831765D01*
X57565143Y-19861979D01*
X57576683Y-19890479D01*
X57587457Y-19916620D01*
X57597191Y-19939754D01*
X57605610Y-19959235D01*
X57612437Y-19974419D01*
X57617398Y-19984657D01*
X57619094Y-19987720D01*
X57620219Y-19989305D01*
X57626282Y-19989825D01*
X57640681Y-19988461D01*
X57690326Y-19980908D01*
X57760837Y-19968297D01*
X57843897Y-19952279D01*
X58014392Y-19916618D01*
X58085191Y-19900276D01*
X58135269Y-19887127D01*
X58149076Y-19882700D01*
X58167258Y-19876383D01*
X58213644Y-19859256D01*
X58268207Y-19838104D01*
X58324732Y-19815284D01*
X58389557Y-19789391D01*
X58419061Y-19778342D01*
X58446907Y-19768498D01*
X58473307Y-19759811D01*
X58498471Y-19752237D01*
X58522610Y-19745730D01*
X58545935Y-19740244D01*
X58568657Y-19735733D01*
X58590985Y-19732151D01*
X58613132Y-19729453D01*
X58635308Y-19727593D01*
X58657724Y-19726525D01*
X58680591Y-19726203D01*
X58704119Y-19726582D01*
X58728520Y-19727616D01*
X58737420Y-19728222D01*
X58754626Y-19729394D01*
X58780019Y-19731876D01*
X58804743Y-19735078D01*
X58828844Y-19739014D01*
X58852365Y-19743701D01*
X58875353Y-19749153D01*
X58897852Y-19755386D01*
X58919906Y-19762415D01*
X58941561Y-19770255D01*
X58962862Y-19778922D01*
X58983854Y-19788430D01*
X59004580Y-19798796D01*
X59025088Y-19810034D01*
X59045420Y-19822159D01*
X59065623Y-19835188D01*
X59085740Y-19849134D01*
X59128103Y-19881966D01*
X59168351Y-19918160D01*
X59206474Y-19957693D01*
X59242461Y-20000541D01*
X59260713Y-20025427D01*
X59276301Y-20046680D01*
X59307983Y-20096088D01*
X59337497Y-20148740D01*
X59364832Y-20204612D01*
X59389977Y-20263682D01*
X59412921Y-20325925D01*
X59433654Y-20391318D01*
X59452165Y-20459837D01*
X59468442Y-20531460D01*
X59482476Y-20606161D01*
X59494256Y-20683918D01*
X59503770Y-20764707D01*
X59503769Y-20764707D01*
X59503769Y-20764708D01*
X59503768Y-20764708D01*
X59503767Y-20764708D01*
X59503766Y-20764708D01*
X59503765Y-20764708D01*
X59503764Y-20764708D01*
X59507455Y-20810183D01*
X59509513Y-20857501D01*
X59509987Y-20906318D01*
X59508928Y-20956290D01*
X59506384Y-21007073D01*
X59502406Y-21058322D01*
X59497043Y-21109694D01*
X59490346Y-21160844D01*
X59482362Y-21211427D01*
X59473143Y-21261101D01*
X59462738Y-21309520D01*
X59451197Y-21356340D01*
X59438569Y-21401217D01*
X59424903Y-21443808D01*
X59410251Y-21483767D01*
X59394660Y-21520750D01*
X59364544Y-21581861D01*
X59330840Y-21640465D01*
X59293751Y-21696413D01*
X59253481Y-21749552D01*
X59210232Y-21799733D01*
X59164208Y-21846805D01*
X59115611Y-21890617D01*
X59064645Y-21931018D01*
X59011512Y-21967858D01*
X58956417Y-22000987D01*
X58899561Y-22030253D01*
X58841148Y-22055505D01*
X58781382Y-22076594D01*
X58720464Y-22093368D01*
X58658599Y-22105676D01*
X58595989Y-22113369D01*
X58493029Y-22122099D01*
X58489743Y-22265612D01*
X58486485Y-22333590D01*
X58479902Y-22401912D01*
X58470125Y-22470247D01*
X58457286Y-22538263D01*
X58441519Y-22605628D01*
X58422956Y-22672011D01*
X58401730Y-22737080D01*
X58377972Y-22800505D01*
X58351816Y-22861953D01*
X58323393Y-22921093D01*
X58292837Y-22977594D01*
X58260280Y-23031124D01*
X58225854Y-23081351D01*
X58189692Y-23127945D01*
X58151927Y-23170573D01*
X58112690Y-23208905D01*
X58098581Y-23221274D01*
X58083582Y-23233721D01*
X58067846Y-23246150D01*
X58051526Y-23258467D01*
X58034773Y-23270575D01*
X58017742Y-23282381D01*
X58000583Y-23293789D01*
X57983451Y-23304703D01*
X57966497Y-23315030D01*
X57949874Y-23324673D01*
X57933735Y-23333537D01*
X57918232Y-23341528D01*
X57903519Y-23348551D01*
X57889747Y-23354510D01*
X57877069Y-23359310D01*
X57865638Y-23362856D01*
X57849539Y-23367393D01*
X57842892Y-23369594D01*
X57837052Y-23371918D01*
X57831924Y-23374489D01*
X57829597Y-23375906D01*
X57827412Y-23377431D01*
X57825357Y-23379080D01*
X57823421Y-23380870D01*
X57821590Y-23382814D01*
X57819853Y-23384929D01*
X57818199Y-23387231D01*
X57816614Y-23389735D01*
X57813608Y-23395411D01*
X57810738Y-23402083D01*
X57807910Y-23409876D01*
X57805027Y-23418913D01*
X57801993Y-23429320D01*
X57795091Y-23454743D01*
X57781983Y-23501249D01*
X57767345Y-23548063D01*
X57751227Y-23595051D01*
X57733682Y-23642079D01*
X57714760Y-23689016D01*
X57694514Y-23735729D01*
X57672995Y-23782083D01*
X57650254Y-23827948D01*
X57638731Y-23850634D01*
X57627969Y-23872169D01*
X57618206Y-23892055D01*
X57609677Y-23909794D01*
X57602619Y-23924889D01*
X57597271Y-23936842D01*
X57593867Y-23945155D01*
X57592969Y-23947790D01*
X57592646Y-23949329D01*
X57593180Y-23950591D01*
X57594800Y-23952413D01*
X57597451Y-23954760D01*
X57601077Y-23957599D01*
X57611036Y-23964609D01*
X57624234Y-23973165D01*
X57640228Y-23982987D01*
X57658575Y-23993798D01*
X57678834Y-24005318D01*
X57700561Y-24017269D01*
X57808750Y-24075807D01*
X57862013Y-24051943D01*
X57891905Y-24039377D01*
X57923210Y-24027777D01*
X57955675Y-24017176D01*
X57989046Y-24007608D01*
X58023068Y-23999105D01*
X58057489Y-23991702D01*
X58092052Y-23985432D01*
X58126506Y-23980329D01*
X58160595Y-23976424D01*
X58194066Y-23973753D01*
X58226665Y-23972348D01*
X58258137Y-23972243D01*
X58288229Y-23973470D01*
X58316686Y-23976065D01*
X58343256Y-23980059D01*
X58367683Y-23985486D01*
X58404365Y-23996718D01*
X58440097Y-24010730D01*
X58474829Y-24027471D01*
X58508514Y-24046889D01*
X58541103Y-24068930D01*
X58572550Y-24093544D01*
X58602804Y-24120678D01*
X58631820Y-24150279D01*
X58659547Y-24182297D01*
X58685940Y-24216677D01*
X58710948Y-24253369D01*
X58734525Y-24292320D01*
X58756622Y-24333477D01*
X58777192Y-24376790D01*
X58796186Y-24422205D01*
X58813555Y-24469670D01*
X58832548Y-24529494D01*
X58849058Y-24590212D01*
X58863122Y-24651682D01*
X58874778Y-24713763D01*
X58884064Y-24776313D01*
X58891017Y-24839191D01*
X58895673Y-24902253D01*
X58898072Y-24965360D01*
X58898251Y-25028368D01*
X58896246Y-25091137D01*
X58892095Y-25153524D01*
X58885837Y-25215388D01*
X58877508Y-25276587D01*
X58867146Y-25336980D01*
X58854788Y-25396424D01*
X58840472Y-25454778D01*
X58824235Y-25511900D01*
X58806116Y-25567649D01*
X58786151Y-25621883D01*
X58764377Y-25674459D01*
X58740833Y-25725237D01*
X58715556Y-25774075D01*
X58688584Y-25820830D01*
X58659953Y-25865361D01*
X58629701Y-25907527D01*
X58597867Y-25947185D01*
X58564487Y-25984195D01*
X58529598Y-26018413D01*
X58493239Y-26049699D01*
X58455447Y-26077911D01*
X58416260Y-26102907D01*
X58375714Y-26124545D01*
X58352828Y-26135356D01*
X58330947Y-26145154D01*
X58309879Y-26153980D01*
X58289434Y-26161872D01*
X58269419Y-26168872D01*
X58249643Y-26175019D01*
X58229915Y-26180354D01*
X58210043Y-26184917D01*
X58189835Y-26188747D01*
X58169101Y-26191885D01*
X58147649Y-26194371D01*
X58125287Y-26196245D01*
X58101823Y-26197547D01*
X58077068Y-26198317D01*
X58022912Y-26198422D01*
X57957987Y-26195587D01*
X57889636Y-26188849D01*
X57818187Y-26178324D01*
X57743970Y-26164130D01*
X57667314Y-26146382D01*
X57588548Y-26125198D01*
X57508001Y-26100694D01*
X57426003Y-26072986D01*
X57342882Y-26042192D01*
X57258969Y-26008427D01*
X57174591Y-25971809D01*
X57090078Y-25932455D01*
X57005759Y-25890479D01*
X56921964Y-25846001D01*
X56839021Y-25799135D01*
X56757260Y-25749999D01*
X56720643Y-25727470D01*
X56690158Y-25709020D01*
X56678209Y-25701920D01*
X56668986Y-25696554D01*
X56662887Y-25693160D01*
X56661134Y-25692277D01*
X56660310Y-25691976D01*
X56659513Y-25692578D01*
X56657839Y-25694345D01*
X56652045Y-25701137D01*
X56631995Y-25726079D01*
X56603168Y-25762994D01*
X56568576Y-25808072D01*
X56545756Y-25837347D01*
X56521516Y-25867147D01*
X56496033Y-25897294D01*
X56469488Y-25927612D01*
X56442057Y-25957922D01*
X56413921Y-25988049D01*
X56356244Y-26047041D01*
X56327061Y-26075552D01*
X56297887Y-26103169D01*
X56268900Y-26129717D01*
X56240279Y-26155016D01*
X56212202Y-26178891D01*
X56184848Y-26201164D01*
X56158397Y-26221657D01*
X56133026Y-26240194D01*
X56085215Y-26272590D01*
X56036116Y-26303165D01*
X55985832Y-26331887D01*
X55934470Y-26358720D01*
X55882134Y-26383629D01*
X55828930Y-26406582D01*
X55774962Y-26427543D01*
X55720336Y-26446478D01*
X55665157Y-26463352D01*
X55609531Y-26478133D01*
X55553561Y-26490785D01*
X55497354Y-26501273D01*
X55441015Y-26509565D01*
X55384649Y-26515624D01*
X55328360Y-26519418D01*
X55272255Y-26520912D01*
X55238281Y-26520884D01*
X55206586Y-26520371D01*
X55177067Y-26519348D01*
X55149624Y-26517795D01*
X55124155Y-26515690D01*
X55100559Y-26513010D01*
X55078734Y-26509733D01*
X55058580Y-26505837D01*
X55039994Y-26501301D01*
X55022876Y-26496102D01*
X55007124Y-26490217D01*
X54999729Y-26487012D01*
X54992637Y-26483626D01*
X54985836Y-26480059D01*
X54979314Y-26476306D01*
X54973057Y-26472366D01*
X54967053Y-26468235D01*
X54961289Y-26463911D01*
X54955753Y-26459391D01*
X54950431Y-26454672D01*
X54945312Y-26449751D01*
X54938601Y-26442972D01*
X54932681Y-26436800D01*
X54927513Y-26431112D01*
X54923054Y-26425790D01*
X54919263Y-26420712D01*
X54916099Y-26415758D01*
X54914739Y-26413289D01*
X54913520Y-26410806D01*
X54912437Y-26408294D01*
X54911485Y-26405737D01*
X54910658Y-26403121D01*
X54909951Y-26400431D01*
X54908878Y-26394765D01*
X54908225Y-26388620D01*
X54907949Y-26381876D01*
X54908009Y-26374411D01*
X54908364Y-26366106D01*
X54908972Y-26356839D01*
X54909792Y-26346489D01*
X54910716Y-26337102D01*
X54911922Y-26328045D01*
X54913460Y-26319203D01*
X54915384Y-26310458D01*
X54917745Y-26301692D01*
X54920593Y-26292788D01*
X54920857Y-26292074D01*
X55203210Y-26292074D01*
X55273610Y-26284171D01*
X55332834Y-26276966D01*
X55390170Y-26268878D01*
X55445284Y-26259972D01*
X55497843Y-26250314D01*
X55547517Y-26239969D01*
X55593971Y-26229001D01*
X55636873Y-26217476D01*
X55675891Y-26205459D01*
X55698072Y-26197893D01*
X55721007Y-26189668D01*
X55744032Y-26181048D01*
X55766485Y-26172296D01*
X55787705Y-26163675D01*
X55807029Y-26155449D01*
X55823795Y-26147880D01*
X55837341Y-26141234D01*
X55894142Y-26111667D01*
X55851490Y-26111110D01*
X55832211Y-26110549D01*
X55813076Y-26109381D01*
X55794115Y-26107625D01*
X55775360Y-26105298D01*
X55756839Y-26102418D01*
X55738585Y-26099003D01*
X55720627Y-26095072D01*
X55702997Y-26090641D01*
X55685724Y-26085728D01*
X55668840Y-26080352D01*
X55652374Y-26074531D01*
X55636357Y-26068281D01*
X55620821Y-26061622D01*
X55605795Y-26054570D01*
X55591310Y-26047145D01*
X55577397Y-26039362D01*
X55564085Y-26031241D01*
X55551407Y-26022800D01*
X55539391Y-26014055D01*
X55528070Y-26005025D01*
X55517472Y-25995728D01*
X55507630Y-25986182D01*
X55498573Y-25976404D01*
X55490331Y-25966413D01*
X55482937Y-25956225D01*
X55476419Y-25945860D01*
X55470809Y-25935335D01*
X55466138Y-25924667D01*
X55462434Y-25913874D01*
X55459731Y-25902976D01*
X55458057Y-25891988D01*
X55457443Y-25880929D01*
X55457135Y-25878316D01*
X55456768Y-25877473D01*
X55456260Y-25876937D01*
X55455614Y-25876705D01*
X55454831Y-25876775D01*
X55452858Y-25877813D01*
X55450354Y-25880036D01*
X55447329Y-25883426D01*
X55443795Y-25887967D01*
X55439763Y-25893641D01*
X55430253Y-25908325D01*
X55418890Y-25927344D01*
X55405766Y-25950565D01*
X55390971Y-25977855D01*
X55376981Y-26003850D01*
X55362628Y-26030033D01*
X55348317Y-26055694D01*
X55334458Y-26080121D01*
X55321456Y-26102603D01*
X55309720Y-26122429D01*
X55299656Y-26138887D01*
X55291672Y-26151266D01*
X55276667Y-26173908D01*
X55260214Y-26199347D01*
X55244307Y-26224469D01*
X55230937Y-26246161D01*
X55203210Y-26292074D01*
X54920857Y-26292074D01*
X54923981Y-26283629D01*
X54927961Y-26274098D01*
X54932584Y-26264076D01*
X54937901Y-26253448D01*
X54943965Y-26242095D01*
X54950826Y-26229899D01*
X54967150Y-26202514D01*
X54987284Y-26170352D01*
X55021060Y-26116329D01*
X55059597Y-26053225D01*
X55098146Y-25988887D01*
X55131962Y-25931164D01*
X55204364Y-25805591D01*
X55092200Y-25790465D01*
X54997383Y-25775199D01*
X54897234Y-25754235D01*
X54791613Y-25727531D01*
X54680383Y-25695045D01*
X54563409Y-25656734D01*
X54440551Y-25612555D01*
X54311674Y-25562466D01*
X54176639Y-25506424D01*
X54047183Y-25449238D01*
X53925679Y-25391619D01*
X53867648Y-25362496D01*
X53811292Y-25333085D01*
X53756507Y-25303325D01*
X53703188Y-25273155D01*
X53651230Y-25242515D01*
X53600530Y-25211345D01*
X53550983Y-25179584D01*
X53502485Y-25147173D01*
X53499437Y-25145050D01*
X53969635Y-25145050D01*
X54076792Y-25199077D01*
X54131456Y-25225584D01*
X54201079Y-25257817D01*
X54276717Y-25291706D01*
X54349422Y-25323177D01*
X54482597Y-25377370D01*
X54609510Y-25424318D01*
X54671152Y-25445213D01*
X54731867Y-25464463D01*
X54791871Y-25482122D01*
X54851375Y-25498247D01*
X54910594Y-25512893D01*
X54969740Y-25526114D01*
X55029027Y-25537966D01*
X55088668Y-25548505D01*
X55148877Y-25557785D01*
X55209866Y-25565862D01*
X55335040Y-25578628D01*
X55335040Y-25578630D01*
X55354860Y-25580178D01*
X55373350Y-25581430D01*
X55390106Y-25582371D01*
X55404722Y-25582989D01*
X55416795Y-25583270D01*
X55421751Y-25583280D01*
X55425920Y-25583200D01*
X55429250Y-25583029D01*
X55431691Y-25582765D01*
X55433193Y-25582406D01*
X55433576Y-25582191D01*
X55433705Y-25581952D01*
X55432254Y-25578111D01*
X55427546Y-25571949D01*
X55406214Y-25550904D01*
X55365428Y-25515304D01*
X55300908Y-25461634D01*
X55083542Y-25286027D01*
X54719867Y-24995972D01*
X54714159Y-24994328D01*
X54703109Y-24994041D01*
X54666137Y-24997323D01*
X54611249Y-25005390D01*
X54540744Y-25017814D01*
X54456923Y-25034165D01*
X54362083Y-25054015D01*
X54258525Y-25076935D01*
X54148548Y-25102496D01*
X53969635Y-25145050D01*
X53499437Y-25145050D01*
X53454931Y-25114051D01*
X53408218Y-25080158D01*
X53362239Y-25045433D01*
X53316892Y-25009816D01*
X53246837Y-24950216D01*
X53159821Y-24870829D01*
X53062114Y-24777899D01*
X52959987Y-24677669D01*
X52859710Y-24576381D01*
X52767554Y-24480279D01*
X52689789Y-24395607D01*
X52658263Y-24359507D01*
X52632686Y-24328605D01*
X52543509Y-24210244D01*
X52457926Y-24083843D01*
X52376223Y-23950224D01*
X52298686Y-23810209D01*
X52273750Y-23760534D01*
X52573022Y-23760534D01*
X52599862Y-23808371D01*
X52607105Y-23820666D01*
X52617439Y-23837326D01*
X52645456Y-23880801D01*
X52680056Y-23932908D01*
X52717384Y-23987762D01*
X52759764Y-24048208D01*
X52802367Y-24106872D01*
X52845332Y-24163903D01*
X52888796Y-24219446D01*
X52932897Y-24273649D01*
X52977771Y-24326658D01*
X53023556Y-24378620D01*
X53070390Y-24429683D01*
X53118410Y-24479993D01*
X53167754Y-24529698D01*
X53218559Y-24578943D01*
X53270962Y-24627876D01*
X53325101Y-24676643D01*
X53381113Y-24725393D01*
X53439137Y-24774271D01*
X53499308Y-24823424D01*
X53675725Y-24965442D01*
X53966059Y-24898606D01*
X54096457Y-24869086D01*
X54236876Y-24838117D01*
X54242625Y-24836880D01*
X54896834Y-24836880D01*
X54928059Y-24860798D01*
X55053838Y-24959701D01*
X55218149Y-25091951D01*
X55378776Y-25223302D01*
X55455614Y-25287735D01*
X55493503Y-25319507D01*
X55519054Y-25341336D01*
X55543522Y-25361716D01*
X55566326Y-25380201D01*
X55586885Y-25396340D01*
X55604618Y-25409688D01*
X55612244Y-25415175D01*
X55618946Y-25419796D01*
X55624651Y-25423495D01*
X55629287Y-25426216D01*
X55632782Y-25427903D01*
X55634078Y-25428342D01*
X55635062Y-25428501D01*
X55637576Y-25428154D01*
X55640735Y-25427034D01*
X55648850Y-25422611D01*
X55659133Y-25415503D01*
X55671308Y-25405980D01*
X55685103Y-25394312D01*
X55700242Y-25380769D01*
X55733459Y-25349138D01*
X55768766Y-25313249D01*
X55803969Y-25275262D01*
X55836876Y-25237339D01*
X55851783Y-25219077D01*
X55865293Y-25201641D01*
X55895098Y-25159424D01*
X55924613Y-25112644D01*
X55953696Y-25061691D01*
X55982206Y-25006957D01*
X56010002Y-24948832D01*
X56036942Y-24887708D01*
X56062886Y-24823976D01*
X56087691Y-24758026D01*
X56111217Y-24690251D01*
X56133321Y-24621040D01*
X56153864Y-24550786D01*
X56172702Y-24479878D01*
X56189696Y-24408709D01*
X56204704Y-24337669D01*
X56217584Y-24267150D01*
X56228195Y-24197541D01*
X56228193Y-24197544D01*
X56235413Y-24142558D01*
X56242338Y-24086034D01*
X56248182Y-24034620D01*
X56252160Y-23994961D01*
X56258906Y-23918443D01*
X56160240Y-23926065D01*
X56009755Y-23935265D01*
X55786507Y-23946683D01*
X55550085Y-23958230D01*
X55367927Y-23967742D01*
X55224415Y-23975805D01*
X55160072Y-24149216D01*
X55085418Y-24347219D01*
X54996282Y-24579754D01*
X54896834Y-24836880D01*
X54242625Y-24836880D01*
X54370444Y-24809377D01*
X54480288Y-24786541D01*
X54513281Y-24779832D01*
X54543009Y-24773686D01*
X54569629Y-24768056D01*
X54593297Y-24762898D01*
X54614171Y-24758163D01*
X54632406Y-24753808D01*
X54648161Y-24749786D01*
X54655157Y-24747885D01*
X54661592Y-24746051D01*
X54667484Y-24744277D01*
X54672855Y-24742557D01*
X54677722Y-24740886D01*
X54682107Y-24739258D01*
X54686029Y-24737667D01*
X54689506Y-24736108D01*
X54692559Y-24734575D01*
X54695208Y-24733062D01*
X54697472Y-24731564D01*
X54699370Y-24730074D01*
X54700922Y-24728587D01*
X54702148Y-24727097D01*
X54703068Y-24725598D01*
X54703109Y-24725499D01*
X54703701Y-24724085D01*
X54704066Y-24722552D01*
X54704183Y-24720993D01*
X54705544Y-24711764D01*
X54709468Y-24696057D01*
X54724047Y-24647896D01*
X54746003Y-24581892D01*
X54773422Y-24503426D01*
X54836985Y-24330631D01*
X54869299Y-24247064D01*
X54899412Y-24172558D01*
X54899412Y-24172559D01*
X54934157Y-24088847D01*
X54948144Y-24054751D01*
X54960027Y-24025283D01*
X54965216Y-24012157D01*
X54969921Y-24000034D01*
X54974157Y-23988864D01*
X54977939Y-23978596D01*
X54981280Y-23969177D01*
X54984195Y-23960558D01*
X54986699Y-23952687D01*
X54988805Y-23945512D01*
X54990528Y-23938984D01*
X54991882Y-23933049D01*
X54992882Y-23927659D01*
X54993541Y-23922760D01*
X54993748Y-23920480D01*
X54993875Y-23918303D01*
X54993923Y-23916224D01*
X54993896Y-23914236D01*
X54993795Y-23912332D01*
X54993620Y-23910507D01*
X54993375Y-23908754D01*
X54993062Y-23907067D01*
X54992680Y-23905438D01*
X54992234Y-23903863D01*
X54991724Y-23902334D01*
X54991151Y-23900844D01*
X54989829Y-23897960D01*
X54988280Y-23895160D01*
X54986520Y-23892391D01*
X54984563Y-23889603D01*
X54980112Y-23883766D01*
X54973840Y-23875179D01*
X54964227Y-23861270D01*
X54936895Y-23820390D01*
X54901953Y-23766936D01*
X54863235Y-23706717D01*
X54607011Y-23306076D01*
X54469464Y-23089515D01*
X54409004Y-22993137D01*
X54364690Y-22921519D01*
X54283254Y-22788109D01*
X54209682Y-22774901D01*
X54164131Y-22767837D01*
X54094489Y-22758365D01*
X54010234Y-22747724D01*
X53920843Y-22737153D01*
X53814407Y-22723436D01*
X53683740Y-22704230D01*
X53545408Y-22682079D01*
X53453573Y-22666082D01*
X54475426Y-22666082D01*
X54527019Y-22736388D01*
X54642596Y-22894935D01*
X54680279Y-22950749D01*
X54742539Y-23046934D01*
X54906702Y-23306099D01*
X55066907Y-23563793D01*
X55124220Y-23658138D01*
X55154976Y-23711377D01*
X55172938Y-23745935D01*
X55360129Y-23737687D01*
X55453822Y-23732645D01*
X55570551Y-23725012D01*
X55695436Y-23715825D01*
X55813598Y-23706120D01*
X55923109Y-23697064D01*
X56024439Y-23689649D01*
X56106307Y-23684639D01*
X56136417Y-23683274D01*
X56157431Y-23682798D01*
X56234986Y-23682800D01*
X56233598Y-23625992D01*
X56233214Y-23614093D01*
X56232653Y-23602048D01*
X56231942Y-23590189D01*
X56231107Y-23578847D01*
X56230175Y-23568352D01*
X56229174Y-23559037D01*
X56228129Y-23551231D01*
X56227067Y-23545267D01*
X56217898Y-23498513D01*
X56203079Y-23419693D01*
X56190867Y-23362881D01*
X56174058Y-23297934D01*
X56153565Y-23227604D01*
X56130302Y-23154643D01*
X56105181Y-23081804D01*
X56079116Y-23011838D01*
X56053020Y-22947498D01*
X56027807Y-22891536D01*
X56004184Y-22843935D01*
X55980159Y-22798647D01*
X55955498Y-22755406D01*
X55929964Y-22713943D01*
X55903321Y-22673990D01*
X55875334Y-22635279D01*
X55845765Y-22597543D01*
X55814380Y-22560512D01*
X55780943Y-22523920D01*
X55745216Y-22487498D01*
X55706966Y-22450979D01*
X55665954Y-22414093D01*
X55621946Y-22376574D01*
X55574706Y-22338153D01*
X55523998Y-22298562D01*
X55469585Y-22257533D01*
X55387812Y-22197347D01*
X55310480Y-22141452D01*
X55239276Y-22091000D01*
X55175887Y-22047141D01*
X55121999Y-22011026D01*
X55079301Y-21983805D01*
X55062675Y-21973889D01*
X55049480Y-21966628D01*
X55039925Y-21962167D01*
X55036578Y-21961030D01*
X55034222Y-21960647D01*
X55025703Y-21964183D01*
X55012482Y-21974480D01*
X54994935Y-21991073D01*
X54973438Y-22013494D01*
X54920100Y-22073957D01*
X54855478Y-22152142D01*
X54782582Y-22244318D01*
X54704424Y-22346757D01*
X54624013Y-22455727D01*
X54544360Y-22567501D01*
X54475426Y-22666082D01*
X53453573Y-22666082D01*
X53415977Y-22659533D01*
X53301848Y-22638933D01*
X53205179Y-22622083D01*
X53136173Y-22610725D01*
X53115233Y-22607648D01*
X53105034Y-22606597D01*
X53101818Y-22607284D01*
X53098259Y-22609374D01*
X53094304Y-22612967D01*
X53089899Y-22618165D01*
X53084993Y-22625071D01*
X53079532Y-22633785D01*
X53066738Y-22657046D01*
X53051094Y-22688764D01*
X53032181Y-22729752D01*
X53009577Y-22780824D01*
X52982860Y-22842794D01*
X52866266Y-23109630D01*
X52727528Y-23419690D01*
X52573022Y-23760534D01*
X52273750Y-23760534D01*
X52225601Y-23664618D01*
X52157254Y-23514274D01*
X52093932Y-23359996D01*
X52035919Y-23202608D01*
X51983503Y-23042930D01*
X51936970Y-22881783D01*
X51896604Y-22719989D01*
X51862693Y-22558369D01*
X51835523Y-22397744D01*
X51815379Y-22238936D01*
X51802548Y-22082766D01*
X51798414Y-21962097D01*
X52038529Y-21962097D01*
X52042036Y-22057199D01*
X52050583Y-22162680D01*
X52063830Y-22276001D01*
X52081440Y-22394618D01*
X52103074Y-22515989D01*
X52128394Y-22637573D01*
X52157063Y-22756827D01*
X52177910Y-22832586D01*
X52204768Y-22922599D01*
X52235707Y-23021075D01*
X52268795Y-23122219D01*
X52302101Y-23220240D01*
X52333693Y-23309344D01*
X52361641Y-23383739D01*
X52384014Y-23437631D01*
X52422031Y-23521346D01*
X52449504Y-23467530D01*
X52466789Y-23430591D01*
X52493543Y-23369798D01*
X52526112Y-23293590D01*
X52560842Y-23210402D01*
X52600667Y-23115452D01*
X52647104Y-23007217D01*
X52694383Y-22899026D01*
X52736732Y-22804207D01*
X52774630Y-22721150D01*
X52809787Y-22644985D01*
X52838284Y-22584150D01*
X52856200Y-22547080D01*
X52883641Y-22492839D01*
X52767319Y-22247567D01*
X52718463Y-22142662D01*
X52671430Y-22038342D01*
X52631571Y-21946677D01*
X52616003Y-21909361D01*
X52604236Y-21879736D01*
X52557475Y-21757176D01*
X52306328Y-21764869D01*
X52208475Y-21768143D01*
X52127700Y-21771369D01*
X52072385Y-21774177D01*
X52056895Y-21775308D01*
X52052649Y-21775785D01*
X52050912Y-21776194D01*
X52050445Y-21777084D01*
X52049927Y-21778967D01*
X52048762Y-21785503D01*
X52047460Y-21795376D01*
X52046063Y-21808162D01*
X52043160Y-21840769D01*
X52040398Y-21879919D01*
X52038770Y-21919234D01*
X52038529Y-21962097D01*
X51798414Y-21962097D01*
X51797316Y-21930055D01*
X51795824Y-21761931D01*
X51638475Y-21747568D01*
X51529005Y-21735590D01*
X51422561Y-21719890D01*
X51393445Y-21714414D01*
X52793884Y-21714414D01*
X52841070Y-21828560D01*
X52866441Y-21888018D01*
X52900503Y-21965234D01*
X52980593Y-22142183D01*
X53053117Y-22297888D01*
X53077722Y-22348550D01*
X53089851Y-22370831D01*
X53091730Y-22371925D01*
X53095613Y-22373227D01*
X53105034Y-22375455D01*
X53108963Y-22376384D01*
X53129040Y-22380169D01*
X53154980Y-22384446D01*
X53221002Y-22393935D01*
X53300130Y-22403772D01*
X53470992Y-22423970D01*
X53597939Y-22439682D01*
X53740894Y-22460713D01*
X53944142Y-22492784D01*
X54132811Y-22523834D01*
X54232028Y-22541805D01*
X54236665Y-22542731D01*
X54241169Y-22543044D01*
X54245665Y-22542619D01*
X54250276Y-22541332D01*
X54255126Y-22539058D01*
X54260339Y-22535672D01*
X54266038Y-22531051D01*
X54272347Y-22525068D01*
X54279390Y-22517601D01*
X54287290Y-22508523D01*
X54296171Y-22497710D01*
X54306158Y-22485038D01*
X54329940Y-22453618D01*
X54359627Y-22413266D01*
X54477676Y-22253607D01*
X54622356Y-22060299D01*
X54622356Y-22060298D01*
X54686905Y-21974049D01*
X54741689Y-21899824D01*
X54780918Y-21845538D01*
X54792889Y-21828346D01*
X54798801Y-21819106D01*
X54800667Y-21815224D01*
X54801955Y-21811461D01*
X54802582Y-21807714D01*
X54802622Y-21805816D01*
X54802466Y-21803885D01*
X54802104Y-21801908D01*
X54801525Y-21799872D01*
X54799676Y-21795575D01*
X54796836Y-21790894D01*
X54792922Y-21785727D01*
X54787852Y-21779976D01*
X54781543Y-21773539D01*
X54773912Y-21766316D01*
X54764878Y-21758206D01*
X54742266Y-21738925D01*
X54713045Y-21714893D01*
X54685375Y-21691762D01*
X54655979Y-21666097D01*
X54593262Y-21608456D01*
X54527387Y-21544558D01*
X54460849Y-21476991D01*
X54396142Y-21408345D01*
X54335760Y-21341208D01*
X54282198Y-21278168D01*
X54258754Y-21248993D01*
X54237950Y-21221814D01*
X54148647Y-21101668D01*
X54103012Y-21142896D01*
X54049934Y-21188745D01*
X53993838Y-21233125D01*
X53934777Y-21276013D01*
X53872804Y-21317384D01*
X53807969Y-21357216D01*
X53740325Y-21395483D01*
X53669925Y-21432162D01*
X53596819Y-21467230D01*
X53521061Y-21500661D01*
X53442702Y-21532432D01*
X53361794Y-21562520D01*
X53278390Y-21590899D01*
X53192541Y-21617547D01*
X53104299Y-21642439D01*
X53013717Y-21665552D01*
X52920846Y-21686861D01*
X52793884Y-21714414D01*
X51393445Y-21714414D01*
X51319033Y-21700419D01*
X51218314Y-21677127D01*
X51120297Y-21649965D01*
X51024873Y-21618883D01*
X50931934Y-21583832D01*
X50841372Y-21544761D01*
X50753080Y-21501622D01*
X50666949Y-21454364D01*
X50582872Y-21402938D01*
X50500741Y-21347295D01*
X50420447Y-21287384D01*
X50341884Y-21223157D01*
X50264942Y-21154563D01*
X50189514Y-21081553D01*
X50119936Y-21007898D01*
X50052778Y-20929599D01*
X49988165Y-20846915D01*
X49926219Y-20760105D01*
X49867062Y-20669430D01*
X49810818Y-20575148D01*
X49757609Y-20477519D01*
X49707559Y-20376803D01*
X49660791Y-20273257D01*
X49617427Y-20167143D01*
X49577590Y-20058719D01*
X49541404Y-19948245D01*
X49508991Y-19835980D01*
X49480474Y-19722183D01*
X49455976Y-19607114D01*
X49435620Y-19491032D01*
X49426240Y-19413660D01*
X49418609Y-19316270D01*
X49412872Y-19205436D01*
X49409175Y-19087731D01*
X49407661Y-18969730D01*
X49407787Y-18952541D01*
X49649001Y-18952541D01*
X49650241Y-19081410D01*
X49657142Y-19210922D01*
X49669660Y-19340714D01*
X49687755Y-19470426D01*
X49711381Y-19599696D01*
X49740498Y-19728162D01*
X49775062Y-19855464D01*
X49815031Y-19981238D01*
X49860363Y-20105125D01*
X49911013Y-20226762D01*
X49966941Y-20345788D01*
X49986914Y-20385114D01*
X50007092Y-20423235D01*
X50027554Y-20460266D01*
X50048384Y-20496321D01*
X50069662Y-20531516D01*
X50091470Y-20565965D01*
X50113890Y-20599784D01*
X50137004Y-20633088D01*
X50160892Y-20665991D01*
X50185637Y-20698609D01*
X50211321Y-20731057D01*
X50238025Y-20763449D01*
X50265830Y-20795901D01*
X50294819Y-20828528D01*
X50325073Y-20861444D01*
X50356673Y-20894766D01*
X50427328Y-20965479D01*
X50498732Y-21031483D01*
X50571109Y-21092882D01*
X50644683Y-21149781D01*
X50719677Y-21202282D01*
X50796315Y-21250490D01*
X50874822Y-21294509D01*
X50955421Y-21334442D01*
X51038335Y-21370393D01*
X51123789Y-21402467D01*
X51212006Y-21430767D01*
X51303210Y-21455396D01*
X51397626Y-21476460D01*
X51495476Y-21494061D01*
X51596985Y-21508304D01*
X51702377Y-21519292D01*
X51795368Y-21524712D01*
X51914059Y-21527598D01*
X52049307Y-21528124D01*
X52191965Y-21526461D01*
X52332889Y-21522781D01*
X52462935Y-21517257D01*
X52557475Y-21511074D01*
X52572956Y-21510062D01*
X52653810Y-21501367D01*
X52773424Y-21481577D01*
X52889557Y-21458254D01*
X53002172Y-21431416D01*
X53111235Y-21401080D01*
X53216712Y-21367262D01*
X53318565Y-21329982D01*
X53416762Y-21289256D01*
X53511265Y-21245101D01*
X53602040Y-21197535D01*
X53689053Y-21146576D01*
X53772267Y-21092240D01*
X53851648Y-21034546D01*
X53927160Y-20973510D01*
X53998533Y-20909361D01*
X54343125Y-20909361D01*
X54374914Y-20972189D01*
X54395110Y-21009018D01*
X54419148Y-21047299D01*
X54446971Y-21086976D01*
X54478522Y-21127996D01*
X54513746Y-21170302D01*
X54552584Y-21213840D01*
X54594982Y-21258556D01*
X54640883Y-21304393D01*
X54690229Y-21351297D01*
X54742966Y-21399213D01*
X54799035Y-21448086D01*
X54858382Y-21497861D01*
X54920949Y-21548483D01*
X54986679Y-21599898D01*
X55034222Y-21635365D01*
X55127407Y-21704884D01*
X55462269Y-21946886D01*
X55595964Y-22044906D01*
X55655563Y-22089921D01*
X55710722Y-22132632D01*
X55761733Y-22173310D01*
X55808891Y-22212225D01*
X55852490Y-22249646D01*
X55892822Y-22285844D01*
X55930182Y-22321088D01*
X55964862Y-22355649D01*
X55997157Y-22389796D01*
X56027361Y-22423800D01*
X56055766Y-22457931D01*
X56082667Y-22492458D01*
X56108357Y-22527652D01*
X56133129Y-22563782D01*
X56176698Y-22633453D01*
X56217990Y-22707895D01*
X56256891Y-22786649D01*
X56258906Y-22791222D01*
X56293285Y-22869255D01*
X56327056Y-22955253D01*
X56358089Y-23044185D01*
X56386268Y-23135591D01*
X56411478Y-23229010D01*
X56433605Y-23323985D01*
X56452531Y-23420054D01*
X56468142Y-23516760D01*
X56480322Y-23613642D01*
X56488955Y-23710240D01*
X56493928Y-23806096D01*
X56495123Y-23900750D01*
X56492425Y-23993743D01*
X56488298Y-24062748D01*
X56483003Y-24126521D01*
X56476099Y-24187794D01*
X56467141Y-24249298D01*
X56455688Y-24313767D01*
X56441296Y-24383932D01*
X56423524Y-24462525D01*
X56401928Y-24552279D01*
X56376528Y-24650511D01*
X56349812Y-24743605D01*
X56321617Y-24831837D01*
X56291781Y-24915483D01*
X56260140Y-24994820D01*
X56226531Y-25070124D01*
X56190791Y-25141670D01*
X56152756Y-25209735D01*
X56112265Y-25274596D01*
X56069153Y-25336527D01*
X56023257Y-25395806D01*
X55974414Y-25452709D01*
X55922462Y-25507511D01*
X55867236Y-25560489D01*
X55808574Y-25611919D01*
X55746313Y-25662078D01*
X55724571Y-25679045D01*
X55704266Y-25695164D01*
X55685844Y-25710061D01*
X55669750Y-25723364D01*
X55656430Y-25734697D01*
X55650950Y-25739509D01*
X55646330Y-25743689D01*
X55642627Y-25747189D01*
X55639896Y-25749964D01*
X55638193Y-25751967D01*
X55637744Y-25752664D01*
X55637573Y-25753151D01*
X55637604Y-25755036D01*
X55637957Y-25757116D01*
X55638622Y-25759381D01*
X55639584Y-25761816D01*
X55642353Y-25767149D01*
X55646160Y-25773018D01*
X55650906Y-25779323D01*
X55656488Y-25785965D01*
X55662804Y-25792844D01*
X55669754Y-25799863D01*
X55677234Y-25806921D01*
X55685145Y-25813919D01*
X55693384Y-25820759D01*
X55701849Y-25827341D01*
X55710439Y-25833566D01*
X55719053Y-25839335D01*
X55727588Y-25844549D01*
X55735943Y-25849109D01*
X55756591Y-25858392D01*
X55778784Y-25866024D01*
X55802375Y-25872017D01*
X55827215Y-25876386D01*
X55853157Y-25879146D01*
X55880054Y-25880310D01*
X55907757Y-25879894D01*
X55936120Y-25877910D01*
X55964993Y-25874374D01*
X55994230Y-25869300D01*
X56023683Y-25862701D01*
X56053204Y-25854593D01*
X56082646Y-25844989D01*
X56111860Y-25833903D01*
X56140699Y-25821351D01*
X56169015Y-25807345D01*
X56198813Y-25790357D01*
X56228600Y-25770745D01*
X56258363Y-25748525D01*
X56288089Y-25723711D01*
X56317767Y-25696320D01*
X56347382Y-25666367D01*
X56376923Y-25633868D01*
X56406377Y-25598839D01*
X56435731Y-25561295D01*
X56464972Y-25521252D01*
X56494088Y-25478725D01*
X56496068Y-25475650D01*
X56797079Y-25475650D01*
X56797146Y-25476106D01*
X56797346Y-25476620D01*
X56798129Y-25477818D01*
X56799401Y-25479225D01*
X56801137Y-25480825D01*
X56803310Y-25482602D01*
X56805893Y-25484537D01*
X56812186Y-25488817D01*
X56819805Y-25493528D01*
X56828539Y-25498534D01*
X56838177Y-25503699D01*
X56848509Y-25508887D01*
X56861626Y-25515682D01*
X56879249Y-25525453D01*
X56924929Y-25552087D01*
X56979383Y-25585115D01*
X57036444Y-25620862D01*
X57065826Y-25639237D01*
X57097029Y-25658121D01*
X57129098Y-25676975D01*
X57161080Y-25695262D01*
X57192020Y-25712444D01*
X57220964Y-25727984D01*
X57246958Y-25741343D01*
X57269049Y-25751984D01*
X57311657Y-25770068D01*
X57369049Y-25792270D01*
X57437359Y-25817259D01*
X57512722Y-25843702D01*
X57591272Y-25870270D01*
X57669143Y-25895629D01*
X57742472Y-25918450D01*
X57807391Y-25937401D01*
X57849698Y-25947962D01*
X57891440Y-25955908D01*
X57932570Y-25961251D01*
X57973038Y-25964003D01*
X58012794Y-25964175D01*
X58051789Y-25961779D01*
X58089974Y-25956826D01*
X58127300Y-25949329D01*
X58163718Y-25939299D01*
X58199178Y-25926748D01*
X58233631Y-25911687D01*
X58267029Y-25894128D01*
X58299321Y-25874083D01*
X58330459Y-25851564D01*
X58360393Y-25826581D01*
X58389074Y-25799148D01*
X58402049Y-25785420D01*
X58414651Y-25771158D01*
X58426836Y-25756440D01*
X58438558Y-25741346D01*
X58449771Y-25725953D01*
X58460432Y-25710341D01*
X58470495Y-25694588D01*
X58479914Y-25678772D01*
X58488645Y-25662972D01*
X58496642Y-25647267D01*
X58503860Y-25631735D01*
X58510255Y-25616455D01*
X58515781Y-25601506D01*
X58520393Y-25586965D01*
X58524046Y-25572912D01*
X58526695Y-25559426D01*
X58528729Y-25545991D01*
X58529313Y-25540489D01*
X58529507Y-25535693D01*
X58529433Y-25533534D01*
X58529234Y-25531523D01*
X58528899Y-25529649D01*
X58528420Y-25527902D01*
X58527786Y-25526272D01*
X58526988Y-25524750D01*
X58526016Y-25523325D01*
X58524862Y-25521989D01*
X58523516Y-25520730D01*
X58521967Y-25519539D01*
X58520207Y-25518407D01*
X58518227Y-25517323D01*
X58516016Y-25516278D01*
X58513566Y-25515262D01*
X58507907Y-25513276D01*
X58501176Y-25511288D01*
X58493297Y-25509218D01*
X58473788Y-25504519D01*
X58457077Y-25500246D01*
X58439150Y-25495058D01*
X58420228Y-25489049D01*
X58400532Y-25482315D01*
X58359708Y-25467056D01*
X58318448Y-25450045D01*
X58278527Y-25432046D01*
X58259622Y-25422915D01*
X58241716Y-25413823D01*
X58225030Y-25404867D01*
X58209788Y-25396141D01*
X58196209Y-25387742D01*
X58184515Y-25379765D01*
X58179472Y-25375991D01*
X58174446Y-25371994D01*
X58169467Y-25367809D01*
X58164568Y-25363472D01*
X58159780Y-25359016D01*
X58155133Y-25354477D01*
X58150660Y-25349889D01*
X58146392Y-25345287D01*
X58142359Y-25340705D01*
X58138595Y-25336178D01*
X58135128Y-25331741D01*
X58131992Y-25327428D01*
X58129218Y-25323275D01*
X58126836Y-25319315D01*
X58124878Y-25315584D01*
X58123376Y-25312117D01*
X58120894Y-25304656D01*
X58118904Y-25296670D01*
X58117391Y-25288197D01*
X58116344Y-25279276D01*
X58115594Y-25260249D01*
X58116550Y-25239903D01*
X58119108Y-25218553D01*
X58120874Y-25208962D01*
X58329528Y-25208962D01*
X58329695Y-25212523D01*
X58330123Y-25216072D01*
X58330811Y-25219611D01*
X58331760Y-25223141D01*
X58332969Y-25226664D01*
X58334438Y-25230181D01*
X58336168Y-25233694D01*
X58338158Y-25237203D01*
X58340408Y-25240710D01*
X58342919Y-25244216D01*
X58345691Y-25247724D01*
X58348722Y-25251234D01*
X58352015Y-25254748D01*
X58355568Y-25258267D01*
X58359381Y-25261792D01*
X58363455Y-25265325D01*
X58372243Y-25272379D01*
X58381271Y-25278940D01*
X58390570Y-25285021D01*
X58400171Y-25290629D01*
X58410107Y-25295776D01*
X58420409Y-25300472D01*
X58431108Y-25304725D01*
X58442236Y-25308548D01*
X58453826Y-25311948D01*
X58465907Y-25314938D01*
X58478512Y-25317526D01*
X58491674Y-25319722D01*
X58505422Y-25321538D01*
X58519789Y-25322982D01*
X58534806Y-25324064D01*
X58550506Y-25324796D01*
X58619808Y-25327214D01*
X58633329Y-25267418D01*
X58633331Y-25267416D01*
X58636646Y-25252004D01*
X58639785Y-25235951D01*
X58642726Y-25219480D01*
X58645447Y-25202815D01*
X58650140Y-25169796D01*
X58653689Y-25138679D01*
X58654979Y-25124393D01*
X58655917Y-25111252D01*
X58656480Y-25099481D01*
X58656647Y-25089302D01*
X58656396Y-25080938D01*
X58655704Y-25074614D01*
X58655186Y-25072286D01*
X58654550Y-25070552D01*
X58653792Y-25069440D01*
X58652911Y-25068976D01*
X58636777Y-25067524D01*
X58619078Y-25067292D01*
X58600092Y-25068204D01*
X58580094Y-25070183D01*
X58559364Y-25073152D01*
X58538178Y-25077035D01*
X58516813Y-25081755D01*
X58495547Y-25087237D01*
X58474657Y-25093402D01*
X58454419Y-25100174D01*
X58435113Y-25107478D01*
X58417013Y-25115236D01*
X58400399Y-25123371D01*
X58385547Y-25131808D01*
X58372734Y-25140469D01*
X58362239Y-25149278D01*
X58358243Y-25153213D01*
X58354508Y-25157115D01*
X58351032Y-25160984D01*
X58347817Y-25164821D01*
X58344862Y-25168630D01*
X58342167Y-25172410D01*
X58339732Y-25176163D01*
X58337557Y-25179891D01*
X58335643Y-25183594D01*
X58333988Y-25187275D01*
X58332594Y-25190935D01*
X58331461Y-25194574D01*
X58330587Y-25198195D01*
X58329974Y-25201800D01*
X58329621Y-25205388D01*
X58329528Y-25208962D01*
X58120874Y-25208962D01*
X58123167Y-25196511D01*
X58128622Y-25174093D01*
X58135370Y-25151613D01*
X58143308Y-25129385D01*
X58152333Y-25107723D01*
X58162342Y-25086941D01*
X58173232Y-25067354D01*
X58184898Y-25049275D01*
X58197239Y-25033018D01*
X58203630Y-25025672D01*
X58210151Y-25018899D01*
X58216788Y-25012739D01*
X58223530Y-25007231D01*
X58241371Y-24994492D01*
X58260987Y-24982030D01*
X58282157Y-24969920D01*
X58304663Y-24958236D01*
X58328284Y-24947056D01*
X58352800Y-24936452D01*
X58377993Y-24926502D01*
X58403641Y-24917280D01*
X58429526Y-24908861D01*
X58455427Y-24901320D01*
X58481125Y-24894733D01*
X58506401Y-24889175D01*
X58531033Y-24884722D01*
X58554804Y-24881447D01*
X58577492Y-24879427D01*
X58598878Y-24878737D01*
X58598881Y-24878720D01*
X58607830Y-24878701D01*
X58615686Y-24878609D01*
X58619078Y-24878501D01*
X58622517Y-24878392D01*
X58628393Y-24877994D01*
X58630995Y-24877712D01*
X58633384Y-24877364D01*
X58635570Y-24876945D01*
X58637560Y-24876448D01*
X58639365Y-24875867D01*
X58640991Y-24875193D01*
X58642449Y-24874422D01*
X58643746Y-24873546D01*
X58644892Y-24872559D01*
X58645896Y-24871453D01*
X58646765Y-24870223D01*
X58647509Y-24868861D01*
X58648136Y-24867361D01*
X58648656Y-24865717D01*
X58649076Y-24863921D01*
X58649406Y-24861968D01*
X58649654Y-24859849D01*
X58649829Y-24857560D01*
X58649995Y-24852440D01*
X58649974Y-24846555D01*
X58649835Y-24839852D01*
X58649345Y-24830489D01*
X58648321Y-24819543D01*
X58644860Y-24793787D01*
X58639828Y-24764360D01*
X58633600Y-24733037D01*
X58626552Y-24701592D01*
X58619059Y-24671800D01*
X58611497Y-24645437D01*
X58607807Y-24634095D01*
X58604240Y-24624276D01*
X58602834Y-24620859D01*
X58601285Y-24617467D01*
X58599610Y-24614123D01*
X58597823Y-24610845D01*
X58595941Y-24607655D01*
X58593980Y-24604574D01*
X58591955Y-24601620D01*
X58589882Y-24598816D01*
X58587777Y-24596182D01*
X58585656Y-24593738D01*
X58583534Y-24591505D01*
X58581427Y-24589503D01*
X58579351Y-24587753D01*
X58578330Y-24586979D01*
X58577322Y-24586275D01*
X58576330Y-24585645D01*
X58575356Y-24585090D01*
X58574401Y-24584614D01*
X58573468Y-24584219D01*
X58570197Y-24583237D01*
X58566426Y-24582597D01*
X58557473Y-24582305D01*
X58546792Y-24583273D01*
X58534566Y-24585429D01*
X58520979Y-24588700D01*
X58506214Y-24593016D01*
X58490453Y-24598304D01*
X58473882Y-24604493D01*
X58456682Y-24611511D01*
X58439037Y-24619286D01*
X58421131Y-24627747D01*
X58403147Y-24636822D01*
X58385269Y-24646439D01*
X58367679Y-24656527D01*
X58350561Y-24667014D01*
X58334098Y-24677828D01*
X58324666Y-24684151D01*
X58315358Y-24690185D01*
X58306208Y-24695912D01*
X58297250Y-24701316D01*
X58288516Y-24706382D01*
X58280039Y-24711092D01*
X58271853Y-24715432D01*
X58263990Y-24719384D01*
X58256485Y-24722933D01*
X58249369Y-24726063D01*
X58242676Y-24728756D01*
X58236439Y-24730998D01*
X58230691Y-24732772D01*
X58225465Y-24734061D01*
X58220795Y-24734850D01*
X58216712Y-24735122D01*
X58212130Y-24734994D01*
X58207590Y-24734589D01*
X58203099Y-24733918D01*
X58198663Y-24732985D01*
X58194290Y-24731800D01*
X58189986Y-24730370D01*
X58185757Y-24728703D01*
X58181612Y-24726806D01*
X58177556Y-24724686D01*
X58173596Y-24722352D01*
X58169739Y-24719811D01*
X58165992Y-24717070D01*
X58162362Y-24714137D01*
X58158855Y-24711020D01*
X58155478Y-24707726D01*
X58152238Y-24704263D01*
X58149142Y-24700638D01*
X58146197Y-24696860D01*
X58143409Y-24692935D01*
X58140785Y-24688871D01*
X58138332Y-24684676D01*
X58136057Y-24680358D01*
X58133966Y-24675923D01*
X58132067Y-24671380D01*
X58130365Y-24666737D01*
X58128869Y-24662000D01*
X58127584Y-24657177D01*
X58126517Y-24652276D01*
X58125676Y-24647305D01*
X58125066Y-24642271D01*
X58124696Y-24637182D01*
X58124571Y-24632045D01*
X58124681Y-24625360D01*
X58125039Y-24619095D01*
X58125680Y-24613182D01*
X58126642Y-24607552D01*
X58127964Y-24602138D01*
X58129682Y-24596872D01*
X58131835Y-24591686D01*
X58134459Y-24586512D01*
X58137592Y-24581282D01*
X58141273Y-24575929D01*
X58145537Y-24570384D01*
X58150424Y-24564580D01*
X58155970Y-24558449D01*
X58162214Y-24551923D01*
X58169192Y-24544933D01*
X58176942Y-24537413D01*
X58189380Y-24525990D01*
X58202438Y-24514952D01*
X58216086Y-24504315D01*
X58230294Y-24494094D01*
X58245032Y-24484304D01*
X58260269Y-24474960D01*
X58275976Y-24466076D01*
X58292123Y-24457669D01*
X58308680Y-24449752D01*
X58325616Y-24442341D01*
X58342902Y-24435451D01*
X58360508Y-24429097D01*
X58378403Y-24423293D01*
X58396559Y-24418055D01*
X58414943Y-24413398D01*
X58433528Y-24409337D01*
X58509277Y-24394090D01*
X58469406Y-24334587D01*
X58460412Y-24321869D01*
X58450915Y-24309801D01*
X58440927Y-24298391D01*
X58430459Y-24287645D01*
X58419524Y-24277572D01*
X58408133Y-24268179D01*
X58396300Y-24259473D01*
X58384035Y-24251461D01*
X58371351Y-24244152D01*
X58358260Y-24237552D01*
X58344773Y-24231668D01*
X58330905Y-24226509D01*
X58316665Y-24222082D01*
X58302066Y-24218393D01*
X58287121Y-24215451D01*
X58271841Y-24213263D01*
X58256595Y-24212137D01*
X58239567Y-24212078D01*
X58220945Y-24213040D01*
X58200916Y-24214980D01*
X58179668Y-24217850D01*
X58157388Y-24221608D01*
X58134264Y-24226206D01*
X58110484Y-24231601D01*
X58086234Y-24237747D01*
X58061703Y-24244600D01*
X58037078Y-24252114D01*
X58012546Y-24260243D01*
X57988296Y-24268944D01*
X57964514Y-24278171D01*
X57941388Y-24287879D01*
X57919107Y-24298022D01*
X57898709Y-24307510D01*
X57880026Y-24315734D01*
X57862886Y-24322695D01*
X57847116Y-24328393D01*
X57839691Y-24330768D01*
X57832543Y-24332828D01*
X57825652Y-24334572D01*
X57818996Y-24336000D01*
X57812552Y-24337113D01*
X57806301Y-24337910D01*
X57800219Y-24338392D01*
X57794286Y-24338558D01*
X57788480Y-24338409D01*
X57782779Y-24337944D01*
X57777162Y-24337164D01*
X57771608Y-24336069D01*
X57766094Y-24334658D01*
X57760599Y-24332932D01*
X57755102Y-24330891D01*
X57749581Y-24328535D01*
X57744015Y-24325863D01*
X57738381Y-24322876D01*
X57732659Y-24319574D01*
X57726827Y-24315957D01*
X57714746Y-24307778D01*
X57701966Y-24298339D01*
X57686753Y-24287106D01*
X57670288Y-24275660D01*
X57652725Y-24264082D01*
X57634217Y-24252450D01*
X57594974Y-24229345D01*
X57553783Y-24206982D01*
X57511865Y-24186000D01*
X57470443Y-24167035D01*
X57450300Y-24158509D01*
X57430739Y-24150726D01*
X57411913Y-24143766D01*
X57393975Y-24137709D01*
X57375218Y-24131892D01*
X57356562Y-24126458D01*
X57338162Y-24121433D01*
X57320170Y-24116840D01*
X57302739Y-24112706D01*
X57286022Y-24109055D01*
X57270172Y-24105912D01*
X57255341Y-24103303D01*
X57241682Y-24101251D01*
X57229349Y-24099783D01*
X57218494Y-24098923D01*
X57209269Y-24098696D01*
X57201829Y-24099127D01*
X57198825Y-24099597D01*
X57196325Y-24100241D01*
X57194347Y-24101062D01*
X57192911Y-24102064D01*
X57192035Y-24103248D01*
X57191738Y-24104619D01*
X57189715Y-24131731D01*
X57184044Y-24174778D01*
X57175325Y-24230403D01*
X57164155Y-24295252D01*
X57136863Y-24439193D01*
X57121937Y-24511574D01*
X57106958Y-24579754D01*
X57070779Y-24734305D01*
X57037156Y-24868636D01*
X57021058Y-24928975D01*
X57005304Y-24985164D01*
X56989797Y-25037508D01*
X56974437Y-25086306D01*
X56959128Y-25131863D01*
X56943770Y-25174479D01*
X56928266Y-25214457D01*
X56912516Y-25252099D01*
X56896424Y-25287707D01*
X56879891Y-25321583D01*
X56862819Y-25354030D01*
X56845109Y-25385348D01*
X56835461Y-25401999D01*
X56826459Y-25417858D01*
X56818303Y-25432556D01*
X56811187Y-25445721D01*
X56805310Y-25456983D01*
X56800869Y-25465972D01*
X56799248Y-25469499D01*
X56798059Y-25472318D01*
X56797328Y-25474384D01*
X56797079Y-25475650D01*
X56496068Y-25475650D01*
X56523066Y-25433731D01*
X56551893Y-25386285D01*
X56580557Y-25336402D01*
X56609045Y-25284098D01*
X56637344Y-25229390D01*
X56663444Y-25175117D01*
X56689151Y-25116713D01*
X56714333Y-25054662D01*
X56738858Y-24989450D01*
X56785411Y-24851490D01*
X56827754Y-24706718D01*
X56864830Y-24559022D01*
X56895585Y-24412288D01*
X56908263Y-24340497D01*
X56918964Y-24270404D01*
X56927557Y-24202495D01*
X56933911Y-24137256D01*
X56933909Y-24137256D01*
X56941808Y-24011908D01*
X56945388Y-23884383D01*
X56944718Y-23755949D01*
X56939868Y-23627879D01*
X56930907Y-23501441D01*
X56917903Y-23377906D01*
X56900925Y-23258544D01*
X56894292Y-23222361D01*
X57137426Y-23222361D01*
X57152084Y-23329996D01*
X57155199Y-23355816D01*
X57158434Y-23388020D01*
X57164890Y-23466438D01*
X57170696Y-23554970D01*
X57175097Y-23643333D01*
X57183454Y-23849037D01*
X57209269Y-23854573D01*
X57242001Y-23861593D01*
X57262092Y-23865816D01*
X57279951Y-23869317D01*
X57295766Y-23872032D01*
X57302966Y-23873073D01*
X57309725Y-23873892D01*
X57316068Y-23874481D01*
X57322016Y-23874831D01*
X57327595Y-23874935D01*
X57332828Y-23874783D01*
X57337737Y-23874368D01*
X57342347Y-23873682D01*
X57346681Y-23872715D01*
X57350762Y-23871460D01*
X57354615Y-23869908D01*
X57358262Y-23868052D01*
X57361726Y-23865882D01*
X57365033Y-23863390D01*
X57368204Y-23860569D01*
X57371263Y-23857409D01*
X57374235Y-23853903D01*
X57377142Y-23850042D01*
X57380008Y-23845818D01*
X57382856Y-23841222D01*
X57385711Y-23836247D01*
X57388595Y-23830883D01*
X57394544Y-23818959D01*
X57400894Y-23805382D01*
X57419984Y-23761238D01*
X57441989Y-23706270D01*
X57465622Y-23644078D01*
X57489600Y-23578263D01*
X57512635Y-23512423D01*
X57533443Y-23450160D01*
X57550738Y-23395073D01*
X57563235Y-23350761D01*
X57568314Y-23328127D01*
X57574224Y-23296991D01*
X57587684Y-23214805D01*
X57601909Y-23115386D01*
X57604977Y-23091032D01*
X57882940Y-23091032D01*
X57883032Y-23093494D01*
X57883166Y-23094481D01*
X57883359Y-23095299D01*
X57883612Y-23095943D01*
X57883927Y-23096409D01*
X57884303Y-23096692D01*
X57884742Y-23096788D01*
X57885980Y-23096462D01*
X57887786Y-23095506D01*
X57890126Y-23093953D01*
X57892965Y-23091834D01*
X57899998Y-23086027D01*
X57908605Y-23078345D01*
X57918505Y-23069043D01*
X57929418Y-23058381D01*
X57941062Y-23046614D01*
X57953158Y-23034002D01*
X57974067Y-23010716D01*
X57994665Y-22985502D01*
X58014910Y-22958445D01*
X58034760Y-22929631D01*
X58054172Y-22899146D01*
X58073105Y-22867076D01*
X58091515Y-22833507D01*
X58109360Y-22798525D01*
X58126599Y-22762216D01*
X58143189Y-22724666D01*
X58159087Y-22685960D01*
X58174252Y-22646184D01*
X58188641Y-22605425D01*
X58202211Y-22563768D01*
X58214921Y-22521300D01*
X58226728Y-22478106D01*
X58226728Y-22478105D01*
X58232140Y-22456289D01*
X58237192Y-22433828D01*
X58241868Y-22410896D01*
X58246149Y-22387667D01*
X58253455Y-22341012D01*
X58258971Y-22295253D01*
X58261013Y-22273145D01*
X58262553Y-22251783D01*
X58263575Y-22231341D01*
X58264060Y-22211991D01*
X58263992Y-22193910D01*
X58263351Y-22177269D01*
X58262120Y-22162243D01*
X58260282Y-22149006D01*
X58254533Y-22116118D01*
X58082780Y-22116118D01*
X57911027Y-22116118D01*
X57916677Y-22184885D01*
X57924231Y-22267758D01*
X57934455Y-22370440D01*
X57938760Y-22416365D01*
X57942147Y-22462266D01*
X57944625Y-22508003D01*
X57946202Y-22553436D01*
X57946885Y-22598424D01*
X57946683Y-22642828D01*
X57945604Y-22686506D01*
X57943654Y-22729319D01*
X57940843Y-22771127D01*
X57937178Y-22811788D01*
X57932667Y-22851164D01*
X57927318Y-22889114D01*
X57921139Y-22925497D01*
X57914137Y-22960173D01*
X57906321Y-22993002D01*
X57897698Y-23023845D01*
X57895496Y-23031275D01*
X57893448Y-23038497D01*
X57891562Y-23045474D01*
X57889843Y-23052167D01*
X57888299Y-23058540D01*
X57886937Y-23064555D01*
X57885762Y-23070174D01*
X57884782Y-23075361D01*
X57884003Y-23080077D01*
X57883432Y-23084286D01*
X57883075Y-23087950D01*
X57882940Y-23091032D01*
X57604977Y-23091032D01*
X57615196Y-23009919D01*
X57615197Y-23009919D01*
X57629815Y-22884172D01*
X57635783Y-22832032D01*
X57640904Y-22786467D01*
X57645214Y-22747044D01*
X57648748Y-22713328D01*
X57651543Y-22684885D01*
X57653633Y-22661280D01*
X57654426Y-22651157D01*
X57655055Y-22642080D01*
X57655527Y-22633995D01*
X57655844Y-22626848D01*
X57656013Y-22620585D01*
X57656036Y-22615152D01*
X57655919Y-22610494D01*
X57655667Y-22606557D01*
X57655282Y-22603286D01*
X57654771Y-22600627D01*
X57654137Y-22598527D01*
X57653385Y-22596930D01*
X57652966Y-22596304D01*
X57652520Y-22595783D01*
X57652046Y-22595360D01*
X57651545Y-22595030D01*
X57651018Y-22594785D01*
X57650465Y-22594619D01*
X57649285Y-22594494D01*
X57647549Y-22595343D01*
X57644785Y-22597834D01*
X57636411Y-22607406D01*
X57624646Y-22622540D01*
X57609972Y-22642563D01*
X57592871Y-22666806D01*
X57573824Y-22694596D01*
X57553313Y-22725263D01*
X57531820Y-22758135D01*
X57502727Y-22802239D01*
X57474480Y-22843114D01*
X57446346Y-22881679D01*
X57417591Y-22918856D01*
X57387484Y-22955564D01*
X57355291Y-22992722D01*
X57320280Y-23031250D01*
X57281718Y-23072069D01*
X57137426Y-23222361D01*
X56894292Y-23222361D01*
X56880043Y-23144626D01*
X56866211Y-23082058D01*
X56850121Y-23017424D01*
X56831957Y-22951195D01*
X56811903Y-22883837D01*
X56790143Y-22815820D01*
X56766864Y-22747611D01*
X56742248Y-22679678D01*
X56716481Y-22612490D01*
X56689747Y-22546515D01*
X56662231Y-22482221D01*
X56634118Y-22420076D01*
X56605591Y-22360549D01*
X56576836Y-22304107D01*
X56548038Y-22251219D01*
X56529225Y-22219140D01*
X56810853Y-22219140D01*
X56810925Y-22220485D01*
X56811967Y-22223841D01*
X56816775Y-22236164D01*
X56835974Y-22280322D01*
X56865453Y-22344917D01*
X56902212Y-22423251D01*
X56937881Y-22499341D01*
X56968527Y-22566956D01*
X56994609Y-22627274D01*
X57016585Y-22681471D01*
X57034915Y-22730724D01*
X57042856Y-22753865D01*
X57050057Y-22776211D01*
X57056576Y-22797909D01*
X57062469Y-22819107D01*
X57067795Y-22839952D01*
X57072610Y-22860590D01*
X57074222Y-22867595D01*
X57075893Y-22874404D01*
X57077610Y-22880981D01*
X57079360Y-22887291D01*
X57081130Y-22893299D01*
X57082908Y-22898969D01*
X57084679Y-22904267D01*
X57086431Y-22909157D01*
X57088150Y-22913603D01*
X57089824Y-22917571D01*
X57091439Y-22921025D01*
X57092983Y-22923931D01*
X57094441Y-22926252D01*
X57095135Y-22927182D01*
X57095802Y-22927953D01*
X57096442Y-22928561D01*
X57097052Y-22929000D01*
X57097631Y-22929267D01*
X57098178Y-22929357D01*
X57101103Y-22928697D01*
X57105057Y-22926762D01*
X57115798Y-22919345D01*
X57129893Y-22907655D01*
X57146832Y-22892241D01*
X57187215Y-22852439D01*
X57232885Y-22804334D01*
X57279777Y-22752321D01*
X57323828Y-22700796D01*
X57343519Y-22676590D01*
X57360975Y-22654154D01*
X57375690Y-22634037D01*
X57387155Y-22616790D01*
X57398952Y-22597174D01*
X57410747Y-22576493D01*
X57434092Y-22532496D01*
X57456712Y-22485916D01*
X57478131Y-22437873D01*
X57497872Y-22389483D01*
X57515456Y-22341865D01*
X57530406Y-22296137D01*
X57536745Y-22274332D01*
X57542247Y-22253418D01*
X57542245Y-22253418D01*
X57556970Y-22193204D01*
X57567468Y-22148871D01*
X57574958Y-22115848D01*
X57505931Y-22123027D01*
X57463086Y-22128125D01*
X57397457Y-22136698D01*
X57233593Y-22159485D01*
X57058388Y-22184188D01*
X56922648Y-22202467D01*
X56880528Y-22208022D01*
X56845409Y-22213018D01*
X56831622Y-22215135D01*
X56820961Y-22216906D01*
X56813885Y-22218264D01*
X56811835Y-22218766D01*
X56810853Y-22219140D01*
X56529225Y-22219140D01*
X56519380Y-22202352D01*
X56491047Y-22157976D01*
X56460437Y-22113773D01*
X56427601Y-22069253D01*
X56392569Y-22024445D01*
X56355370Y-21979378D01*
X56316033Y-21934081D01*
X56274589Y-21888583D01*
X56231065Y-21842912D01*
X56185491Y-21797097D01*
X56137898Y-21751167D01*
X56088312Y-21705151D01*
X56036765Y-21659078D01*
X55983286Y-21612977D01*
X55927903Y-21566876D01*
X55870646Y-21520804D01*
X55811544Y-21474790D01*
X55750627Y-21428863D01*
X55656911Y-21358872D01*
X55574313Y-21296157D01*
X55500966Y-21239202D01*
X55455473Y-21202848D01*
X55888165Y-21202848D01*
X55889049Y-21204819D01*
X55891643Y-21208182D01*
X55901612Y-21218769D01*
X55917373Y-21233977D01*
X55938227Y-21253172D01*
X55963474Y-21275722D01*
X55992416Y-21300993D01*
X56024353Y-21328352D01*
X56058587Y-21357167D01*
X56142339Y-21429088D01*
X56228218Y-21506513D01*
X56313174Y-21586390D01*
X56394155Y-21665670D01*
X56468111Y-21741301D01*
X56531989Y-21810233D01*
X56559196Y-21841234D01*
X56582740Y-21869416D01*
X56602239Y-21894398D01*
X56617312Y-21915798D01*
X56622752Y-21924021D01*
X56628169Y-21932013D01*
X56633528Y-21939733D01*
X56638797Y-21947139D01*
X56643942Y-21954191D01*
X56648929Y-21960845D01*
X56653725Y-21967062D01*
X56658296Y-21972800D01*
X56662609Y-21978017D01*
X56666630Y-21982672D01*
X56670325Y-21986724D01*
X56673661Y-21990131D01*
X56676605Y-21992852D01*
X56677920Y-21993943D01*
X56679123Y-21994846D01*
X56680212Y-21995557D01*
X56681181Y-21996071D01*
X56682028Y-21996382D01*
X56682746Y-21996486D01*
X56687368Y-21996119D01*
X56695690Y-21995084D01*
X56721561Y-21991296D01*
X56756608Y-21985700D01*
X56797079Y-21978873D01*
X56940331Y-21959515D01*
X57168629Y-21933655D01*
X57421936Y-21907746D01*
X57574958Y-21894072D01*
X57640214Y-21888241D01*
X57649285Y-21887784D01*
X57724719Y-21883981D01*
X57848719Y-21880687D01*
X57911027Y-21879837D01*
X57995534Y-21878685D01*
X58148489Y-21878302D01*
X58283306Y-21878277D01*
X58340881Y-21877760D01*
X58392621Y-21876827D01*
X58439064Y-21875419D01*
X58480753Y-21873476D01*
X58518226Y-21870939D01*
X58552023Y-21867749D01*
X58582685Y-21863845D01*
X58610752Y-21859170D01*
X58636764Y-21853662D01*
X58661260Y-21847264D01*
X58684780Y-21839914D01*
X58707866Y-21831555D01*
X58731056Y-21822126D01*
X58754891Y-21811569D01*
X58782349Y-21798277D01*
X58809590Y-21783663D01*
X58836544Y-21767790D01*
X58863138Y-21750724D01*
X58889303Y-21732528D01*
X58914965Y-21713266D01*
X58940053Y-21693002D01*
X58964497Y-21671802D01*
X58988223Y-21649729D01*
X59011162Y-21626847D01*
X59033241Y-21603221D01*
X59054389Y-21578915D01*
X59074534Y-21553993D01*
X59093605Y-21528520D01*
X59111530Y-21502559D01*
X59128237Y-21476176D01*
X59143915Y-21449817D01*
X59149762Y-21439053D01*
X59154119Y-21429687D01*
X59155701Y-21425478D01*
X59156864Y-21421558D01*
X59157593Y-21417907D01*
X59157874Y-21414506D01*
X59157690Y-21411334D01*
X59157027Y-21408371D01*
X59155869Y-21405598D01*
X59154201Y-21402993D01*
X59152008Y-21400538D01*
X59149274Y-21398212D01*
X59145985Y-21395996D01*
X59142124Y-21393868D01*
X59137677Y-21391810D01*
X59132628Y-21389801D01*
X59120665Y-21385850D01*
X59106112Y-21381856D01*
X59088847Y-21377659D01*
X59045693Y-21368014D01*
X59007039Y-21358805D01*
X58971353Y-21348785D01*
X58938570Y-21337894D01*
X58923247Y-21332102D01*
X58908624Y-21326069D01*
X58894694Y-21319788D01*
X58881449Y-21313250D01*
X58868880Y-21306448D01*
X58856979Y-21299374D01*
X58845737Y-21292021D01*
X58835148Y-21284381D01*
X58825201Y-21276445D01*
X58815889Y-21268208D01*
X58807204Y-21259660D01*
X58799137Y-21250794D01*
X58791681Y-21241603D01*
X58784827Y-21232079D01*
X58778566Y-21222214D01*
X58772891Y-21212000D01*
X58767793Y-21201430D01*
X58763264Y-21190495D01*
X58759296Y-21179190D01*
X58755880Y-21167505D01*
X58753008Y-21155433D01*
X58750673Y-21142966D01*
X58748865Y-21130097D01*
X58747576Y-21116817D01*
X58746799Y-21103120D01*
X58746586Y-21092133D01*
X58961729Y-21092133D01*
X58962015Y-21101753D01*
X58962947Y-21110553D01*
X58964634Y-21118610D01*
X58967187Y-21125997D01*
X58968822Y-21129462D01*
X58970714Y-21132788D01*
X58972878Y-21135984D01*
X58975326Y-21139059D01*
X58978073Y-21142023D01*
X58981132Y-21144884D01*
X58988242Y-21150336D01*
X58996767Y-21155491D01*
X59006814Y-21160422D01*
X59018495Y-21165206D01*
X59031919Y-21169915D01*
X59047196Y-21174624D01*
X59064436Y-21179408D01*
X59083747Y-21184341D01*
X59105241Y-21189497D01*
X59123661Y-21193920D01*
X59141625Y-21198444D01*
X59158683Y-21202943D01*
X59174386Y-21207288D01*
X59188285Y-21211353D01*
X59199932Y-21215010D01*
X59208878Y-21218131D01*
X59212198Y-21219450D01*
X59214674Y-21220588D01*
X59217687Y-21221975D01*
X59220449Y-21222879D01*
X59222985Y-21223247D01*
X59224177Y-21223213D01*
X59225323Y-21223025D01*
X59226426Y-21222677D01*
X59227489Y-21222162D01*
X59228515Y-21221473D01*
X59229509Y-21220604D01*
X59231411Y-21218298D01*
X59233220Y-21215192D01*
X59234964Y-21211232D01*
X59236668Y-21206366D01*
X59238360Y-21200541D01*
X59240066Y-21193704D01*
X59241813Y-21185803D01*
X59243627Y-21176784D01*
X59247563Y-21155181D01*
X59247563Y-21155182D01*
X59250204Y-21138050D01*
X59252669Y-21118274D01*
X59254902Y-21096556D01*
X59256850Y-21073601D01*
X59258459Y-21050114D01*
X59259675Y-21026798D01*
X59260444Y-21004357D01*
X59260713Y-20983497D01*
X59260713Y-20887321D01*
X59145198Y-20936606D01*
X59119877Y-20947623D01*
X59096789Y-20958141D01*
X59075852Y-20968228D01*
X59056984Y-20977955D01*
X59040100Y-20987392D01*
X59032377Y-20992024D01*
X59025119Y-20996610D01*
X59018316Y-21001158D01*
X59011957Y-21005677D01*
X59006033Y-21010177D01*
X59000533Y-21014666D01*
X58995446Y-21019152D01*
X58990762Y-21023645D01*
X58986471Y-21028153D01*
X58982563Y-21032685D01*
X58979026Y-21037249D01*
X58975852Y-21041856D01*
X58973029Y-21046512D01*
X58970547Y-21051228D01*
X58968396Y-21056012D01*
X58966565Y-21060872D01*
X58965044Y-21065817D01*
X58963823Y-21070857D01*
X58962891Y-21076000D01*
X58962239Y-21081254D01*
X58961855Y-21086629D01*
X58961729Y-21092133D01*
X58746586Y-21092133D01*
X58746525Y-21088998D01*
X58747832Y-21059220D01*
X58751887Y-21030855D01*
X58754962Y-21017189D01*
X58758743Y-21003859D01*
X58763238Y-20990861D01*
X58768451Y-20978187D01*
X58774391Y-20965834D01*
X58781062Y-20953794D01*
X58788473Y-20942063D01*
X58796629Y-20930634D01*
X58805536Y-20919503D01*
X58815202Y-20908663D01*
X58836833Y-20887834D01*
X58861574Y-20868104D01*
X58889476Y-20849427D01*
X58920592Y-20831758D01*
X58954972Y-20815051D01*
X58992668Y-20799263D01*
X59033731Y-20784346D01*
X59078214Y-20770257D01*
X59126168Y-20756951D01*
X59126167Y-20756951D01*
X59138644Y-20753635D01*
X59150752Y-20750279D01*
X59162429Y-20746905D01*
X59173613Y-20743538D01*
X59184241Y-20740201D01*
X59194253Y-20736915D01*
X59203587Y-20733704D01*
X59212179Y-20730592D01*
X59219970Y-20727601D01*
X59226895Y-20724754D01*
X59232895Y-20722075D01*
X59237907Y-20719586D01*
X59241869Y-20717311D01*
X59243437Y-20716261D01*
X59244719Y-20715272D01*
X59245708Y-20714349D01*
X59246395Y-20713493D01*
X59246774Y-20712708D01*
X59246836Y-20711997D01*
X59245734Y-20703621D01*
X59244147Y-20690473D01*
X59240365Y-20657073D01*
X59238618Y-20643735D01*
X59236071Y-20628132D01*
X59228954Y-20591613D01*
X59219771Y-20550475D01*
X59209278Y-20507674D01*
X59198229Y-20466170D01*
X59187382Y-20428920D01*
X59177491Y-20398883D01*
X59173141Y-20387494D01*
X59169314Y-20379017D01*
X59165669Y-20372294D01*
X59161985Y-20366410D01*
X59158151Y-20361353D01*
X59154058Y-20357112D01*
X59151880Y-20355293D01*
X59149595Y-20353673D01*
X59147191Y-20352251D01*
X59144652Y-20351025D01*
X59141967Y-20349994D01*
X59139120Y-20349156D01*
X59136098Y-20348509D01*
X59132888Y-20348053D01*
X59125845Y-20347706D01*
X59117883Y-20348102D01*
X59108890Y-20349228D01*
X59098758Y-20351073D01*
X59087375Y-20353625D01*
X59074632Y-20356872D01*
X59060418Y-20360801D01*
X59044624Y-20365402D01*
X59025352Y-20371361D01*
X59006909Y-20377564D01*
X58989263Y-20384030D01*
X58972383Y-20390777D01*
X58956235Y-20397825D01*
X58940789Y-20405193D01*
X58926012Y-20412899D01*
X58911872Y-20420964D01*
X58898337Y-20429406D01*
X58885375Y-20438244D01*
X58872954Y-20447497D01*
X58861042Y-20457185D01*
X58849608Y-20467326D01*
X58838618Y-20477939D01*
X58828042Y-20489045D01*
X58817846Y-20500661D01*
X58812139Y-20507278D01*
X58806383Y-20513656D01*
X58800601Y-20519776D01*
X58794816Y-20525622D01*
X58789052Y-20531173D01*
X58783331Y-20536411D01*
X58777677Y-20541319D01*
X58772112Y-20545878D01*
X58766661Y-20550070D01*
X58761346Y-20553875D01*
X58756190Y-20557276D01*
X58751216Y-20560254D01*
X58746449Y-20562791D01*
X58741909Y-20564869D01*
X58737622Y-20566469D01*
X58733610Y-20567572D01*
X58726810Y-20568823D01*
X58720053Y-20569591D01*
X58713352Y-20569892D01*
X58706723Y-20569739D01*
X58700179Y-20569148D01*
X58693736Y-20568132D01*
X58687408Y-20566708D01*
X58681209Y-20564890D01*
X58675154Y-20562692D01*
X58669257Y-20560130D01*
X58663534Y-20557217D01*
X58657998Y-20553969D01*
X58652664Y-20550400D01*
X58647547Y-20546526D01*
X58642660Y-20542360D01*
X58638020Y-20537918D01*
X58633640Y-20533215D01*
X58629534Y-20528264D01*
X58625718Y-20523081D01*
X58622205Y-20517681D01*
X58619011Y-20512078D01*
X58616150Y-20506287D01*
X58613636Y-20500323D01*
X58611484Y-20494200D01*
X58609708Y-20487933D01*
X58608324Y-20481538D01*
X58607345Y-20475028D01*
X58606786Y-20468418D01*
X58606661Y-20461723D01*
X58606986Y-20454959D01*
X58607774Y-20448139D01*
X58609040Y-20441278D01*
X58610296Y-20436569D01*
X58612053Y-20431542D01*
X58616985Y-20420630D01*
X58623662Y-20408726D01*
X58631913Y-20396014D01*
X58641563Y-20382679D01*
X58652440Y-20368905D01*
X58664372Y-20354877D01*
X58677184Y-20340779D01*
X58690705Y-20326796D01*
X58704761Y-20313112D01*
X58719179Y-20299911D01*
X58733786Y-20287378D01*
X58748410Y-20275697D01*
X58762877Y-20265053D01*
X58777015Y-20255630D01*
X58790650Y-20247612D01*
X58804342Y-20240667D01*
X58820949Y-20233081D01*
X58839832Y-20225100D01*
X58860355Y-20216968D01*
X58881880Y-20208931D01*
X58903769Y-20201234D01*
X58925386Y-20194122D01*
X58946092Y-20187840D01*
X59043243Y-20159792D01*
X59002499Y-20103646D01*
X58986932Y-20083493D01*
X58970686Y-20065021D01*
X58953727Y-20048218D01*
X58936020Y-20033072D01*
X58917532Y-20019570D01*
X58898229Y-20007701D01*
X58878077Y-19997451D01*
X58857041Y-19988808D01*
X58835088Y-19981760D01*
X58812183Y-19976294D01*
X58788293Y-19972398D01*
X58763383Y-19970060D01*
X58737420Y-19969266D01*
X58710369Y-19970005D01*
X58682196Y-19972265D01*
X58652868Y-19976032D01*
X58616840Y-19982030D01*
X58582620Y-19989057D01*
X58548625Y-19997622D01*
X58513274Y-20008236D01*
X58474985Y-20021412D01*
X58432176Y-20037659D01*
X58383264Y-20057490D01*
X58326669Y-20081415D01*
X58284312Y-20098946D01*
X58244219Y-20113846D01*
X58203215Y-20126884D01*
X58158126Y-20138825D01*
X58105777Y-20150438D01*
X58042993Y-20162490D01*
X57966600Y-20175748D01*
X57873423Y-20190981D01*
X57756809Y-20211907D01*
X57633196Y-20238184D01*
X57504862Y-20269174D01*
X57374085Y-20304235D01*
X57243143Y-20342727D01*
X57114312Y-20384011D01*
X56989872Y-20427445D01*
X56872099Y-20472391D01*
X56821142Y-20493460D01*
X56769243Y-20516226D01*
X56716725Y-20540498D01*
X56663915Y-20566090D01*
X56611135Y-20592810D01*
X56558712Y-20620471D01*
X56506969Y-20648882D01*
X56456232Y-20677855D01*
X56406826Y-20707201D01*
X56359074Y-20736731D01*
X56313302Y-20766255D01*
X56269834Y-20795585D01*
X56228996Y-20824531D01*
X56191111Y-20852904D01*
X56156506Y-20880516D01*
X56125503Y-20907176D01*
X56111797Y-20920153D01*
X56096070Y-20936195D01*
X56078723Y-20954802D01*
X56060156Y-20975474D01*
X56020967Y-21021018D01*
X55981711Y-21068829D01*
X55945596Y-21114914D01*
X55915828Y-21155276D01*
X55904327Y-21172062D01*
X55895615Y-21185919D01*
X55890094Y-21196347D01*
X55888655Y-21200120D01*
X55888165Y-21202848D01*
X55455473Y-21202848D01*
X55435002Y-21186489D01*
X55374555Y-21136502D01*
X55317756Y-21087723D01*
X55262737Y-21038634D01*
X55207632Y-20987719D01*
X55183546Y-20965602D01*
X55158925Y-20943964D01*
X55133721Y-20922774D01*
X55107887Y-20901998D01*
X55081375Y-20881608D01*
X55054138Y-20861570D01*
X55026128Y-20841853D01*
X54997297Y-20822427D01*
X54936983Y-20784319D01*
X54918136Y-20773356D01*
X55337990Y-20773356D01*
X55394816Y-20826242D01*
X55408307Y-20838423D01*
X55424903Y-20852797D01*
X55443955Y-20868833D01*
X55464813Y-20886003D01*
X55486826Y-20903776D01*
X55509345Y-20921622D01*
X55531720Y-20939013D01*
X55553300Y-20955417D01*
X55667888Y-21041510D01*
X55668732Y-21041972D01*
X55669733Y-21042198D01*
X55670889Y-21042190D01*
X55672198Y-21041951D01*
X55675270Y-21040784D01*
X55678932Y-21038711D01*
X55683169Y-21035748D01*
X55687967Y-21031909D01*
X55693310Y-21027209D01*
X55699184Y-21021662D01*
X55705573Y-21015284D01*
X55712461Y-21008088D01*
X55727679Y-20991304D01*
X55744715Y-20971426D01*
X55763451Y-20948574D01*
X55786130Y-20921010D01*
X55810086Y-20893095D01*
X55835157Y-20864980D01*
X55861183Y-20836816D01*
X55888002Y-20808754D01*
X55915454Y-20780945D01*
X55971611Y-20726687D01*
X55999994Y-20700540D01*
X56028365Y-20675248D01*
X56056563Y-20650963D01*
X56084428Y-20627835D01*
X56111797Y-20606015D01*
X56138510Y-20585654D01*
X56164406Y-20566902D01*
X56189324Y-20549910D01*
X56244012Y-20516019D01*
X56312046Y-20477272D01*
X56390059Y-20435357D01*
X56474686Y-20391963D01*
X56562562Y-20348781D01*
X56650321Y-20307498D01*
X56734597Y-20269805D01*
X56812025Y-20237389D01*
X56812022Y-20237389D01*
X56837812Y-20226903D01*
X56861803Y-20216861D01*
X56883475Y-20207502D01*
X56902308Y-20199064D01*
X56917781Y-20191785D01*
X56924095Y-20188655D01*
X56929375Y-20185904D01*
X56933554Y-20183562D01*
X56936568Y-20181658D01*
X56938353Y-20180224D01*
X56938763Y-20179691D01*
X56938842Y-20179287D01*
X56937374Y-20163053D01*
X56934666Y-20123708D01*
X56927075Y-19999307D01*
X56919102Y-19890570D01*
X56907914Y-19784576D01*
X56893516Y-19681357D01*
X56875915Y-19580942D01*
X56855116Y-19483363D01*
X56845346Y-19444789D01*
X57060755Y-19444789D01*
X57061118Y-19449350D01*
X57062092Y-19455198D01*
X57063681Y-19462341D01*
X57076332Y-19517255D01*
X57086827Y-19569753D01*
X57095323Y-19621250D01*
X57101973Y-19673159D01*
X57106934Y-19726893D01*
X57110360Y-19783865D01*
X57112408Y-19845489D01*
X57113232Y-19913178D01*
X57113381Y-19944824D01*
X57113592Y-19973130D01*
X57113880Y-19998268D01*
X57114262Y-20020409D01*
X57114754Y-20039725D01*
X57115046Y-20048378D01*
X57115371Y-20056388D01*
X57115731Y-20063778D01*
X57116129Y-20070570D01*
X57116566Y-20076783D01*
X57117044Y-20082441D01*
X57117566Y-20087564D01*
X57118133Y-20092175D01*
X57118747Y-20096293D01*
X57119410Y-20099941D01*
X57120125Y-20103141D01*
X57120893Y-20105913D01*
X57121716Y-20108280D01*
X57122596Y-20110262D01*
X57123059Y-20111116D01*
X57123536Y-20111882D01*
X57124028Y-20112562D01*
X57124537Y-20113160D01*
X57125061Y-20113677D01*
X57125601Y-20114118D01*
X57126157Y-20114484D01*
X57126730Y-20114777D01*
X57127319Y-20115002D01*
X57127926Y-20115160D01*
X57128550Y-20115254D01*
X57129191Y-20115287D01*
X57130528Y-20115180D01*
X57131938Y-20114860D01*
X57255860Y-20078405D01*
X57277489Y-20072126D01*
X57298321Y-20066267D01*
X57317855Y-20060958D01*
X57335587Y-20056327D01*
X57351014Y-20052502D01*
X57363635Y-20049611D01*
X57372945Y-20047783D01*
X57376202Y-20047307D01*
X57378443Y-20047145D01*
X57378443Y-20047144D01*
X57379294Y-20047133D01*
X57380134Y-20047098D01*
X57380961Y-20047041D01*
X57381775Y-20046961D01*
X57382575Y-20046861D01*
X57383359Y-20046739D01*
X57384126Y-20046598D01*
X57384876Y-20046437D01*
X57385607Y-20046256D01*
X57386318Y-20046058D01*
X57387009Y-20045841D01*
X57387678Y-20045607D01*
X57388324Y-20045357D01*
X57388946Y-20045090D01*
X57389542Y-20044807D01*
X57390113Y-20044510D01*
X57390657Y-20044198D01*
X57391172Y-20043872D01*
X57391658Y-20043533D01*
X57392114Y-20043181D01*
X57392539Y-20042817D01*
X57392931Y-20042441D01*
X57393289Y-20042055D01*
X57393613Y-20041658D01*
X57393901Y-20041251D01*
X57394153Y-20040835D01*
X57394367Y-20040410D01*
X57394542Y-20039977D01*
X57394677Y-20039536D01*
X57394771Y-20039089D01*
X57394824Y-20038635D01*
X57394833Y-20038175D01*
X57392822Y-20032590D01*
X57387143Y-20020065D01*
X57366364Y-19977388D01*
X57335665Y-19916519D01*
X57298216Y-19843835D01*
X57267442Y-19784956D01*
X57238669Y-19730508D01*
X57211929Y-19680543D01*
X57187254Y-19635113D01*
X57164675Y-19594268D01*
X57144223Y-19558061D01*
X57125931Y-19526543D01*
X57109830Y-19499764D01*
X57095951Y-19477777D01*
X57084326Y-19460633D01*
X57079369Y-19453893D01*
X57074987Y-19448382D01*
X57071184Y-19444109D01*
X57067965Y-19441078D01*
X57065333Y-19439296D01*
X57063292Y-19438770D01*
X57062494Y-19438979D01*
X57061846Y-19439505D01*
X57060999Y-19441510D01*
X57060755Y-19444789D01*
X56845346Y-19444789D01*
X56831126Y-19388649D01*
X56803949Y-19296832D01*
X56773593Y-19207941D01*
X56761269Y-19175037D01*
X56755630Y-19160967D01*
X56750110Y-19148156D01*
X56744537Y-19136358D01*
X56738738Y-19125325D01*
X56732541Y-19114811D01*
X56725774Y-19104568D01*
X56718264Y-19094349D01*
X56709840Y-19083908D01*
X56700328Y-19072998D01*
X56689556Y-19061371D01*
X56677353Y-19048781D01*
X56663545Y-19034980D01*
X56630429Y-19002760D01*
X56596008Y-18970418D01*
X56560068Y-18938245D01*
X56522843Y-18906401D01*
X56484569Y-18875043D01*
X56445478Y-18844332D01*
X56405806Y-18814427D01*
X56365787Y-18785485D01*
X56325655Y-18757667D01*
X56285645Y-18731132D01*
X56245992Y-18706037D01*
X56206929Y-18682543D01*
X56168692Y-18660809D01*
X56131514Y-18640993D01*
X56095630Y-18623254D01*
X56061275Y-18607751D01*
X56028683Y-18594644D01*
X56012467Y-18588657D01*
X55997339Y-18583247D01*
X55983630Y-18578520D01*
X55971671Y-18574582D01*
X55961793Y-18571540D01*
X55957738Y-18570387D01*
X55954328Y-18569498D01*
X55951603Y-18568885D01*
X55949606Y-18568562D01*
X55948892Y-18568514D01*
X55948377Y-18568543D01*
X55948063Y-18568650D01*
X55947958Y-18568839D01*
X55948582Y-18571393D01*
X55950372Y-18576983D01*
X55956946Y-18595866D01*
X55966676Y-18622673D01*
X55978558Y-18654592D01*
X55993492Y-18696257D01*
X56007375Y-18739087D01*
X56020199Y-18783040D01*
X56031960Y-18828072D01*
X56042651Y-18874143D01*
X56052267Y-18921208D01*
X56060800Y-18969225D01*
X56068246Y-19018152D01*
X56074599Y-19067947D01*
X56079852Y-19118566D01*
X56084000Y-19169967D01*
X56087036Y-19222108D01*
X56088955Y-19274946D01*
X56089751Y-19328438D01*
X56087950Y-19437216D01*
X56084454Y-19511127D01*
X56079522Y-19578571D01*
X56072824Y-19641522D01*
X56064033Y-19701953D01*
X56052820Y-19761838D01*
X56038859Y-19823149D01*
X56021819Y-19887860D01*
X56001374Y-19957944D01*
X55979871Y-20025440D01*
X55957385Y-20089019D01*
X55933710Y-20148953D01*
X55908641Y-20205513D01*
X55881974Y-20258968D01*
X55853504Y-20309590D01*
X55823026Y-20357650D01*
X55790334Y-20403416D01*
X55755224Y-20447162D01*
X55717491Y-20489156D01*
X55676929Y-20529670D01*
X55633334Y-20568974D01*
X55586501Y-20607338D01*
X55536225Y-20645035D01*
X55482301Y-20682333D01*
X55424524Y-20719503D01*
X55337990Y-20773356D01*
X54918136Y-20773356D01*
X54872815Y-20746994D01*
X54804412Y-20710201D01*
X54731392Y-20673690D01*
X54669624Y-20644020D01*
X54618362Y-20619723D01*
X54582942Y-20603306D01*
X54572842Y-20598836D01*
X54569986Y-20597673D01*
X54568704Y-20597277D01*
X54567945Y-20597727D01*
X54566623Y-20599046D01*
X54562416Y-20604118D01*
X54556337Y-20612137D01*
X54548639Y-20622746D01*
X54529407Y-20650316D01*
X54506752Y-20683982D01*
X54480264Y-20723119D01*
X54450596Y-20765586D01*
X54421375Y-20806261D01*
X54408064Y-20824326D01*
X54396226Y-20840024D01*
X54343125Y-20909361D01*
X53998533Y-20909361D01*
X53998768Y-20909150D01*
X54066438Y-20841483D01*
X54130133Y-20770527D01*
X54148647Y-20748068D01*
X54193554Y-20693594D01*
X54253366Y-20616229D01*
X54309655Y-20538246D01*
X54362504Y-20459458D01*
X54411999Y-20379679D01*
X54415199Y-20374075D01*
X54717424Y-20374075D01*
X54717455Y-20374730D01*
X54717620Y-20375090D01*
X54720111Y-20376700D01*
X54725502Y-20379729D01*
X54743634Y-20389344D01*
X54769319Y-20402530D01*
X54799858Y-20417882D01*
X54818325Y-20427351D01*
X54841063Y-20439458D01*
X54895791Y-20469586D01*
X54956906Y-20504276D01*
X55017275Y-20539536D01*
X55156958Y-20622480D01*
X55303317Y-20535132D01*
X55334034Y-20516388D01*
X55365234Y-20496587D01*
X55396054Y-20476327D01*
X55425628Y-20456208D01*
X55453092Y-20436828D01*
X55477580Y-20418787D01*
X55498228Y-20402682D01*
X55506841Y-20395544D01*
X55514171Y-20389114D01*
X55543661Y-20360785D01*
X55572144Y-20330381D01*
X55599599Y-20297948D01*
X55626002Y-20263530D01*
X55651330Y-20227174D01*
X55675562Y-20188924D01*
X55698674Y-20148827D01*
X55720643Y-20106927D01*
X55741447Y-20063269D01*
X55761063Y-20017900D01*
X55779469Y-19970865D01*
X55796642Y-19922209D01*
X55812558Y-19871977D01*
X55827197Y-19820214D01*
X55840533Y-19766967D01*
X55852546Y-19712281D01*
X55852548Y-19712281D01*
X55857185Y-19686681D01*
X55861569Y-19656710D01*
X55869465Y-19586057D01*
X55876010Y-19505122D01*
X55880981Y-19418709D01*
X55884150Y-19331620D01*
X55885294Y-19248655D01*
X55884186Y-19174619D01*
X55880601Y-19114312D01*
X55875393Y-19068369D01*
X55868460Y-19021846D01*
X55859936Y-18975114D01*
X55849954Y-18928542D01*
X55838649Y-18882501D01*
X55826153Y-18837362D01*
X55812601Y-18793496D01*
X55798126Y-18751272D01*
X55782862Y-18711062D01*
X55766942Y-18673235D01*
X55750501Y-18638163D01*
X55733671Y-18606216D01*
X55716587Y-18577765D01*
X55699383Y-18553179D01*
X55682191Y-18532830D01*
X55673642Y-18524360D01*
X55665146Y-18517088D01*
X55656104Y-18510781D01*
X55644801Y-18504256D01*
X55631385Y-18497561D01*
X55616004Y-18490739D01*
X55579940Y-18476896D01*
X55537792Y-18463091D01*
X55490745Y-18449684D01*
X55439983Y-18437037D01*
X55386691Y-18425510D01*
X55332052Y-18415466D01*
X55278382Y-18405864D01*
X55220656Y-18394504D01*
X55165808Y-18382806D01*
X55141629Y-18377274D01*
X55120770Y-18372190D01*
X55099452Y-18366806D01*
X55080684Y-18362164D01*
X55064310Y-18358275D01*
X55050176Y-18355151D01*
X55043900Y-18353880D01*
X55038125Y-18352804D01*
X55032833Y-18351926D01*
X55028003Y-18351247D01*
X55023617Y-18350769D01*
X55019655Y-18350492D01*
X55016097Y-18350419D01*
X55012924Y-18350551D01*
X55010117Y-18350890D01*
X55007656Y-18351437D01*
X55005522Y-18352193D01*
X55004572Y-18352650D01*
X55003696Y-18353161D01*
X55002892Y-18353724D01*
X55002157Y-18354341D01*
X55001490Y-18355011D01*
X55000887Y-18355735D01*
X54999867Y-18357346D01*
X54999076Y-18359173D01*
X54998495Y-18361220D01*
X54998106Y-18363486D01*
X54997888Y-18365975D01*
X54997822Y-18368687D01*
X54997889Y-18371624D01*
X54998069Y-18374787D01*
X54998691Y-18381799D01*
X55022198Y-18592571D01*
X55030295Y-18683890D01*
X55035310Y-18785263D01*
X55037315Y-18893426D01*
X55036378Y-19005114D01*
X55032568Y-19117063D01*
X55025955Y-19226007D01*
X55016608Y-19328683D01*
X55004596Y-19421826D01*
X54986725Y-19526113D01*
X54964705Y-19632644D01*
X54938862Y-19740285D01*
X54909525Y-19847905D01*
X54877019Y-19954371D01*
X54841672Y-20058553D01*
X54803810Y-20159317D01*
X54763761Y-20255531D01*
X54753680Y-20278811D01*
X54744452Y-20300691D01*
X54736268Y-20320679D01*
X54729316Y-20338286D01*
X54723786Y-20353021D01*
X54719867Y-20364393D01*
X54718571Y-20368665D01*
X54717749Y-20371913D01*
X54717424Y-20374075D01*
X54415199Y-20374075D01*
X54458224Y-20298722D01*
X54501263Y-20216402D01*
X54541201Y-20132531D01*
X54568704Y-20068761D01*
X54578122Y-20046924D01*
X54612111Y-19959394D01*
X54643253Y-19869755D01*
X54671631Y-19777820D01*
X54697332Y-19683403D01*
X54720438Y-19586318D01*
X54741035Y-19486378D01*
X54759206Y-19383397D01*
X54759205Y-19383397D01*
X54770159Y-19296646D01*
X54777928Y-19193261D01*
X54782515Y-19076834D01*
X54783927Y-18950957D01*
X54782167Y-18819221D01*
X54777240Y-18685218D01*
X54769153Y-18552539D01*
X54757909Y-18424775D01*
X54747573Y-18332275D01*
X54735961Y-18242883D01*
X54725939Y-18175993D01*
X55419385Y-18175993D01*
X55419855Y-18178346D01*
X55420971Y-18180220D01*
X55422739Y-18181612D01*
X55430171Y-18184384D01*
X55444890Y-18188717D01*
X55492674Y-18201187D01*
X55559060Y-18217265D01*
X55637016Y-18235193D01*
X55720008Y-18254574D01*
X55799011Y-18274626D01*
X55874353Y-18295499D01*
X55946365Y-18317345D01*
X55948892Y-18318186D01*
X56015375Y-18340316D01*
X56081712Y-18364563D01*
X56145707Y-18390238D01*
X56207688Y-18417491D01*
X56267985Y-18446476D01*
X56326926Y-18477342D01*
X56384842Y-18510241D01*
X56442061Y-18545325D01*
X56498913Y-18582746D01*
X56555728Y-18622654D01*
X56612833Y-18665202D01*
X56670559Y-18710540D01*
X56753334Y-18777138D01*
X56784637Y-18753993D01*
X56794636Y-18747631D01*
X56808630Y-18740259D01*
X56846811Y-18723109D01*
X56895592Y-18703794D01*
X56951387Y-18683567D01*
X57010609Y-18663678D01*
X57069671Y-18645378D01*
X57124987Y-18629918D01*
X57172969Y-18618548D01*
X57195657Y-18614353D01*
X57224808Y-18609737D01*
X57297665Y-18599851D01*
X57381868Y-18590101D01*
X57467742Y-18581694D01*
X57548034Y-18574302D01*
X57614983Y-18567245D01*
X57644185Y-18563707D01*
X57670928Y-18560091D01*
X57695505Y-18556342D01*
X57718208Y-18552407D01*
X57739329Y-18548230D01*
X57759160Y-18543759D01*
X57777995Y-18538939D01*
X57796124Y-18533716D01*
X57813842Y-18528036D01*
X57831439Y-18521845D01*
X57849208Y-18515088D01*
X57867442Y-18507711D01*
X57895394Y-18495378D01*
X57922612Y-18481892D01*
X57949072Y-18467277D01*
X57974749Y-18451555D01*
X57999618Y-18434749D01*
X58023656Y-18416882D01*
X58046837Y-18397977D01*
X58069139Y-18378057D01*
X58090535Y-18357143D01*
X58111002Y-18335260D01*
X58130516Y-18312430D01*
X58149052Y-18288675D01*
X58166585Y-18264019D01*
X58183092Y-18238483D01*
X58198548Y-18212092D01*
X58212928Y-18184868D01*
X58212928Y-18184867D01*
X58229095Y-18151904D01*
X58235068Y-18138401D01*
X58239446Y-18126606D01*
X58240992Y-18121284D01*
X58242087Y-18116312D01*
X58242712Y-18111664D01*
X58242849Y-18107313D01*
X58242482Y-18103233D01*
X58241591Y-18099400D01*
X58240161Y-18095786D01*
X58238172Y-18092366D01*
X58235608Y-18089114D01*
X58232450Y-18086004D01*
X58228681Y-18083010D01*
X58224283Y-18080106D01*
X58219239Y-18077267D01*
X58213531Y-18074466D01*
X58200050Y-18068876D01*
X58183701Y-18063127D01*
X58164341Y-18057014D01*
X58116024Y-18042864D01*
X58086634Y-18033766D01*
X58057966Y-18023651D01*
X58030142Y-18012604D01*
X58003283Y-18000710D01*
X57977509Y-17988052D01*
X57952941Y-17974714D01*
X57929700Y-17960782D01*
X57907908Y-17946339D01*
X57887684Y-17931470D01*
X57869150Y-17916260D01*
X57860555Y-17908552D01*
X57852427Y-17900791D01*
X57844783Y-17892987D01*
X57837636Y-17885150D01*
X57831002Y-17877290D01*
X57824897Y-17869419D01*
X57819335Y-17861547D01*
X57814331Y-17853685D01*
X57809901Y-17845842D01*
X57806060Y-17838030D01*
X57802823Y-17830258D01*
X57800204Y-17822539D01*
X57796797Y-17809784D01*
X57794236Y-17797091D01*
X57792519Y-17784459D01*
X57791646Y-17771891D01*
X57791615Y-17759388D01*
X57791923Y-17754663D01*
X58008473Y-17754663D01*
X58008740Y-17759353D01*
X58009766Y-17764156D01*
X58011525Y-17769055D01*
X58013991Y-17774035D01*
X58017139Y-17779080D01*
X58025374Y-17789297D01*
X58036024Y-17799578D01*
X58048882Y-17809792D01*
X58063739Y-17819809D01*
X58080388Y-17829500D01*
X58098623Y-17838736D01*
X58118235Y-17847386D01*
X58139018Y-17855320D01*
X58160763Y-17862410D01*
X58183264Y-17868525D01*
X58206314Y-17873536D01*
X58229704Y-17877312D01*
X58292004Y-17885577D01*
X58291244Y-17767432D01*
X58290875Y-17743162D01*
X58290113Y-17719481D01*
X58289004Y-17696982D01*
X58287594Y-17676258D01*
X58285931Y-17657901D01*
X58284061Y-17642504D01*
X58283063Y-17636101D01*
X58282030Y-17630660D01*
X58280969Y-17626255D01*
X58279885Y-17622960D01*
X58269284Y-17596632D01*
X58196012Y-17621377D01*
X58182205Y-17626354D01*
X58168192Y-17632007D01*
X58154084Y-17638263D01*
X58139992Y-17645049D01*
X58126026Y-17652293D01*
X58112297Y-17659922D01*
X58098917Y-17667864D01*
X58085997Y-17676045D01*
X58073647Y-17684395D01*
X58061978Y-17692839D01*
X58051102Y-17701306D01*
X58041129Y-17709722D01*
X58032170Y-17718016D01*
X58024336Y-17726114D01*
X58017738Y-17733945D01*
X58014937Y-17737737D01*
X58012487Y-17741435D01*
X58010321Y-17745688D01*
X58008992Y-17750103D01*
X58008473Y-17754663D01*
X57791923Y-17754663D01*
X57792425Y-17746950D01*
X57794076Y-17734580D01*
X57796566Y-17722278D01*
X57799894Y-17710047D01*
X57804060Y-17697886D01*
X57809061Y-17685798D01*
X57814897Y-17673784D01*
X57821567Y-17661845D01*
X57829070Y-17649982D01*
X57837405Y-17638198D01*
X57846570Y-17626492D01*
X57867389Y-17603322D01*
X57891517Y-17580484D01*
X57918947Y-17557989D01*
X57949669Y-17535846D01*
X57983676Y-17514066D01*
X58020958Y-17492659D01*
X58061507Y-17471636D01*
X58105314Y-17451008D01*
X58114582Y-17446779D01*
X58123589Y-17442546D01*
X58132288Y-17438338D01*
X58140633Y-17434180D01*
X58148576Y-17430101D01*
X58156073Y-17426127D01*
X58163076Y-17422285D01*
X58169538Y-17418603D01*
X58175413Y-17415108D01*
X58180655Y-17411826D01*
X58185217Y-17408785D01*
X58189052Y-17406012D01*
X58192114Y-17403534D01*
X58193340Y-17402414D01*
X58194356Y-17401377D01*
X58195155Y-17400429D01*
X58195732Y-17399571D01*
X58196081Y-17398807D01*
X58196195Y-17398140D01*
X58195474Y-17392632D01*
X58193475Y-17385186D01*
X58190329Y-17376058D01*
X58186167Y-17365501D01*
X58181122Y-17353773D01*
X58175324Y-17341127D01*
X58161994Y-17314105D01*
X58147227Y-17286478D01*
X58132073Y-17260287D01*
X58124679Y-17248368D01*
X58117581Y-17237575D01*
X58110913Y-17228161D01*
X58104803Y-17220383D01*
X58095959Y-17210798D01*
X58091467Y-17206640D01*
X58086913Y-17202908D01*
X58082288Y-17199607D01*
X58077580Y-17196740D01*
X58072778Y-17194310D01*
X58067872Y-17192320D01*
X58062851Y-17190773D01*
X58057704Y-17189673D01*
X58052420Y-17189023D01*
X58046988Y-17188826D01*
X58041398Y-17189085D01*
X58035639Y-17189805D01*
X58029700Y-17190987D01*
X58023570Y-17192636D01*
X58017239Y-17194754D01*
X58010695Y-17197345D01*
X57996928Y-17203958D01*
X57982181Y-17212501D01*
X57966369Y-17223002D01*
X57949405Y-17235484D01*
X57931202Y-17249976D01*
X57911675Y-17266502D01*
X57890737Y-17285089D01*
X57877057Y-17297068D01*
X57863939Y-17307695D01*
X57851338Y-17316979D01*
X57845216Y-17321120D01*
X57839207Y-17324929D01*
X57833304Y-17328406D01*
X57827501Y-17331554D01*
X57821793Y-17334372D01*
X57816173Y-17336863D01*
X57810637Y-17339026D01*
X57805178Y-17340864D01*
X57799790Y-17342378D01*
X57794469Y-17343568D01*
X57789208Y-17344436D01*
X57784000Y-17344982D01*
X57778842Y-17345209D01*
X57773726Y-17345116D01*
X57768647Y-17344706D01*
X57763600Y-17343979D01*
X57758578Y-17342936D01*
X57753576Y-17341579D01*
X57748588Y-17339909D01*
X57743608Y-17337926D01*
X57738631Y-17335633D01*
X57733651Y-17333029D01*
X57728661Y-17330116D01*
X57723657Y-17326896D01*
X57718632Y-17323369D01*
X57713581Y-17319536D01*
X57709059Y-17315855D01*
X57704965Y-17312243D01*
X57701281Y-17308655D01*
X57697987Y-17305044D01*
X57695065Y-17301366D01*
X57692495Y-17297575D01*
X57690260Y-17293625D01*
X57688340Y-17289471D01*
X57686717Y-17285068D01*
X57685371Y-17280370D01*
X57684284Y-17275331D01*
X57683437Y-17269906D01*
X57682811Y-17264050D01*
X57682387Y-17257716D01*
X57682146Y-17250860D01*
X57682070Y-17243437D01*
X57682151Y-17235238D01*
X57682432Y-17227746D01*
X57682969Y-17220857D01*
X57683817Y-17214468D01*
X57685035Y-17208474D01*
X57685800Y-17205593D01*
X57686677Y-17202773D01*
X57687676Y-17199999D01*
X57688801Y-17197260D01*
X57690061Y-17194542D01*
X57691463Y-17191832D01*
X57693013Y-17189118D01*
X57694719Y-17186386D01*
X57698625Y-17180817D01*
X57703238Y-17175024D01*
X57708614Y-17168901D01*
X57714810Y-17162345D01*
X57721881Y-17155253D01*
X57729885Y-17147521D01*
X57738877Y-17139045D01*
X57744926Y-17133518D01*
X57751320Y-17127908D01*
X57764921Y-17116597D01*
X57779240Y-17105428D01*
X57793837Y-17094713D01*
X57808273Y-17084766D01*
X57822105Y-17075900D01*
X57828658Y-17071970D01*
X57834896Y-17068428D01*
X57840762Y-17065312D01*
X57846203Y-17062663D01*
X57851351Y-17060244D01*
X57856357Y-17057805D01*
X57861196Y-17055363D01*
X57865842Y-17052933D01*
X57870268Y-17050532D01*
X57874448Y-17048177D01*
X57878358Y-17045883D01*
X57881969Y-17043667D01*
X57885257Y-17041547D01*
X57888196Y-17039537D01*
X57890759Y-17037654D01*
X57892921Y-17035915D01*
X57894655Y-17034336D01*
X57895353Y-17033612D01*
X57895935Y-17032933D01*
X57896397Y-17032303D01*
X57896736Y-17031724D01*
X57896949Y-17031196D01*
X57897032Y-17030723D01*
X57896958Y-17030255D01*
X57896710Y-17029741D01*
X57895705Y-17028585D01*
X57894051Y-17027269D01*
X57891782Y-17025809D01*
X57888935Y-17024219D01*
X57885542Y-17022514D01*
X57877262Y-17018814D01*
X57867220Y-17014827D01*
X57855694Y-17010669D01*
X57842961Y-17006457D01*
X57829299Y-17002307D01*
X57811044Y-16997463D01*
X57792710Y-16993601D01*
X57774014Y-16990758D01*
X57754676Y-16988972D01*
X57734414Y-16988280D01*
X57712948Y-16988720D01*
X57689997Y-16990330D01*
X57665279Y-16993147D01*
X57638513Y-16997209D01*
X57609417Y-17002553D01*
X57543115Y-17017238D01*
X57464122Y-17037502D01*
X57370190Y-17063647D01*
X57187064Y-17116677D01*
X57033211Y-17163195D01*
X56901321Y-17205943D01*
X56784080Y-17247663D01*
X56728668Y-17268993D01*
X56674178Y-17291094D01*
X56564302Y-17338979D01*
X56447140Y-17394058D01*
X56315382Y-17459072D01*
X56237378Y-17499436D01*
X56165517Y-17539779D01*
X56130794Y-17560724D01*
X56096291Y-17582601D01*
X56061570Y-17605724D01*
X56026193Y-17630404D01*
X55951714Y-17685689D01*
X55869346Y-17750958D01*
X55775583Y-17828711D01*
X55666914Y-17921450D01*
X55634765Y-17949365D01*
X55604699Y-17975905D01*
X55576754Y-18001031D01*
X55550965Y-18024705D01*
X55527368Y-18046888D01*
X55505999Y-18067543D01*
X55486894Y-18086631D01*
X55470088Y-18104115D01*
X55455618Y-18119955D01*
X55443520Y-18134113D01*
X55433829Y-18146552D01*
X55429897Y-18152115D01*
X55426581Y-18157233D01*
X55423884Y-18161902D01*
X55421812Y-18166118D01*
X55420368Y-18169874D01*
X55419558Y-18173168D01*
X55419385Y-18175993D01*
X54725939Y-18175993D01*
X54722989Y-18156305D01*
X54708572Y-18072244D01*
X54692624Y-17990405D01*
X54675060Y-17910494D01*
X54655797Y-17832214D01*
X54634748Y-17755270D01*
X54611829Y-17679368D01*
X54586954Y-17604210D01*
X54560040Y-17529503D01*
X54531000Y-17454951D01*
X54499750Y-17380258D01*
X54466205Y-17305130D01*
X54430280Y-17229270D01*
X54391891Y-17152383D01*
X54332837Y-17044993D01*
X54268573Y-16943178D01*
X54199453Y-16847176D01*
X54125831Y-16757223D01*
X54048063Y-16673555D01*
X53966500Y-16596410D01*
X53881499Y-16526024D01*
X53793414Y-16462635D01*
X53702598Y-16406478D01*
X53609406Y-16357790D01*
X53514192Y-16316809D01*
X53417311Y-16283770D01*
X53319116Y-16258911D01*
X53219962Y-16242469D01*
X53170136Y-16237478D01*
X53120204Y-16234679D01*
X53070209Y-16234104D01*
X53020195Y-16235780D01*
X52979952Y-16238577D01*
X52941371Y-16242395D01*
X52904236Y-16247315D01*
X52868330Y-16253419D01*
X52833437Y-16260789D01*
X52799339Y-16269505D01*
X52765822Y-16279650D01*
X52732666Y-16291305D01*
X52699657Y-16304552D01*
X52666577Y-16319471D01*
X52633211Y-16336145D01*
X52599340Y-16354655D01*
X52564749Y-16375083D01*
X52529221Y-16397510D01*
X52492540Y-16422018D01*
X52454488Y-16448687D01*
X52387949Y-16495532D01*
X52359029Y-16514546D01*
X52331741Y-16530901D01*
X52305131Y-16544807D01*
X52278249Y-16556472D01*
X52250142Y-16566105D01*
X52219858Y-16573917D01*
X52186446Y-16580117D01*
X52148954Y-16584914D01*
X52106430Y-16588517D01*
X52057922Y-16591136D01*
X51939146Y-16594260D01*
X51785014Y-16595959D01*
X51692359Y-16596975D01*
X51616371Y-16598346D01*
X51554006Y-16600273D01*
X51502222Y-16602956D01*
X51479346Y-16604644D01*
X51457974Y-16606597D01*
X51437725Y-16608839D01*
X51418219Y-16611395D01*
X51399075Y-16614290D01*
X51379913Y-16617550D01*
X51340014Y-16625264D01*
X51291551Y-16635743D01*
X51243956Y-16647116D01*
X51197187Y-16659401D01*
X51151200Y-16672616D01*
X51105952Y-16686778D01*
X51061398Y-16701907D01*
X51017495Y-16718018D01*
X50974200Y-16735131D01*
X50931469Y-16753263D01*
X50889259Y-16772432D01*
X50847525Y-16792656D01*
X50806225Y-16813952D01*
X50765315Y-16836339D01*
X50724751Y-16859835D01*
X50684489Y-16884456D01*
X50644487Y-16910222D01*
X50611795Y-16932751D01*
X50577929Y-16957873D01*
X50543141Y-16985333D01*
X50507680Y-17014879D01*
X50471797Y-17046258D01*
X50435742Y-17079216D01*
X50399764Y-17113501D01*
X50364114Y-17148859D01*
X50329043Y-17185038D01*
X50294800Y-17221784D01*
X50261635Y-17258845D01*
X50229799Y-17295967D01*
X50199542Y-17332897D01*
X50171114Y-17369382D01*
X50144765Y-17405170D01*
X50120745Y-17440007D01*
X50091061Y-17486089D01*
X50061529Y-17534685D01*
X50032263Y-17585529D01*
X50003382Y-17638356D01*
X49947239Y-17748901D01*
X49894030Y-17864198D01*
X49844690Y-17982126D01*
X49800150Y-18100564D01*
X49761343Y-18217392D01*
X49744381Y-18274539D01*
X49729203Y-18330488D01*
X49701500Y-18450721D01*
X49679671Y-18573405D01*
X49663673Y-18698177D01*
X49653464Y-18824676D01*
X49649001Y-18952541D01*
X49407787Y-18952541D01*
X49408478Y-18858005D01*
X49411770Y-18759131D01*
X49417683Y-18679681D01*
X49431743Y-18567950D01*
X49449766Y-18457098D01*
X49471733Y-18347194D01*
X49497627Y-18238306D01*
X49527431Y-18130504D01*
X49561127Y-18023855D01*
X49598697Y-17918428D01*
X49640124Y-17814292D01*
X49702135Y-17676065D01*
X49769709Y-17543987D01*
X49842714Y-17418177D01*
X49921015Y-17298755D01*
X50004478Y-17185840D01*
X50092969Y-17079550D01*
X50186354Y-16980005D01*
X50284500Y-16887323D01*
X50387271Y-16801624D01*
X50494534Y-16723026D01*
X50606155Y-16651649D01*
X50722000Y-16587611D01*
X50841936Y-16531031D01*
X50965827Y-16482029D01*
X51093540Y-16440723D01*
X51224941Y-16407233D01*
X51295690Y-16392457D01*
X51363638Y-16380350D01*
X51431212Y-16370696D01*
X51500838Y-16363277D01*
X51574943Y-16357877D01*
X51655955Y-16354279D01*
X51746300Y-16352268D01*
X51848406Y-16351627D01*
X51900530Y-16351358D01*
X51950903Y-16350615D01*
X51998305Y-16349449D01*
X52041517Y-16347910D01*
X52079317Y-16346049D01*
X52110486Y-16343919D01*
X52133803Y-16341570D01*
X52142136Y-16340330D01*
X52148048Y-16339054D01*
X52153120Y-16337448D01*
X52159001Y-16335236D01*
X52172907Y-16329148D01*
X52189196Y-16321106D01*
X52207302Y-16311423D01*
X52226656Y-16300412D01*
X52246690Y-16288387D01*
X52266836Y-16275662D01*
X52286527Y-16262551D01*
X52341860Y-16225772D01*
X52396252Y-16191913D01*
X52449862Y-16160922D01*
X52502854Y-16132752D01*
X52555389Y-16107351D01*
X52607629Y-16084669D01*
X52659737Y-16064658D01*
X52711874Y-16047266D01*
X52764202Y-16032444D01*
X52816883Y-16020141D01*
X52870080Y-16010309D01*
X52923954Y-16002896D01*
X52978667Y-15997854D01*
X53034381Y-15995131D01*
X53070209Y-15994846D01*
X53091259Y-15994679D01*
X53149461Y-15996447D01*
G37*
%TD*%
M02*
