%TF.GenerationSoftware,KiCad,Pcbnew,9.0.1*%
%TF.CreationDate,2025-09-04T18:16:01+02:00*%
%TF.ProjectId,Neopixel USB,4e656f70-6978-4656-9c20-5553422e6b69,rev?*%
%TF.SameCoordinates,Original*%
%TF.FileFunction,Legend,Top*%
%TF.FilePolarity,Positive*%
%FSLAX46Y46*%
G04 Gerber Fmt 4.6, Leading zero omitted, Abs format (unit mm)*
G04 Created by KiCad (PCBNEW 9.0.1) date 2025-09-04 18:16:01*
%MOMM*%
%LPD*%
G01*
G04 APERTURE LIST*
%ADD10C,0.150000*%
%ADD11C,0.120000*%
G04 APERTURE END LIST*
D10*
X42562704Y-38094571D02*
X42562704Y-37637428D01*
X42562704Y-37866000D02*
X43362704Y-37866000D01*
X43362704Y-37866000D02*
X43248419Y-37789809D01*
X43248419Y-37789809D02*
X43172228Y-37713619D01*
X43172228Y-37713619D02*
X43134133Y-37637428D01*
D11*
%TO.C,D1*%
X38525000Y-35616000D02*
X38525000Y-42166000D01*
X38525000Y-42166000D02*
X38975000Y-42616000D01*
X38975000Y-42616000D02*
X44025000Y-42616000D01*
X40375000Y-36416000D02*
X42175000Y-36416000D01*
X40375000Y-41816000D02*
X42175000Y-41816000D01*
X44025000Y-35616000D02*
X38525000Y-35616000D01*
X44025000Y-35616000D02*
X44025000Y-42616000D01*
%TO.C,C1*%
X32498420Y-39622000D02*
X32779580Y-39622000D01*
X32498420Y-40642000D02*
X32779580Y-40642000D01*
%TO.C,R2*%
X32876258Y-42609500D02*
X32401742Y-42609500D01*
X32876258Y-43654500D02*
X32401742Y-43654500D01*
%TO.C,C3*%
X41415580Y-34211800D02*
X41134420Y-34211800D01*
X41415580Y-35231800D02*
X41134420Y-35231800D01*
%TO.C,R5*%
X36059342Y-34554900D02*
X36533858Y-34554900D01*
X36059342Y-35599900D02*
X36533858Y-35599900D01*
%TO.C,R1*%
X32401742Y-41109500D02*
X32876258Y-41109500D01*
X32401742Y-42154500D02*
X32876258Y-42154500D01*
%TO.C,R4*%
X41037742Y-42962300D02*
X41512258Y-42962300D01*
X41037742Y-44007300D02*
X41512258Y-44007300D01*
%TO.C,U1*%
X32589000Y-35984500D02*
X31939000Y-35984500D01*
X32589000Y-35984500D02*
X33239000Y-35984500D01*
X32589000Y-39104500D02*
X31939000Y-39104500D01*
X32589000Y-39104500D02*
X33239000Y-39104500D01*
X33991500Y-39384500D02*
X33511500Y-39384500D01*
X33751500Y-39054500D01*
X33991500Y-39384500D01*
G36*
X33991500Y-39384500D02*
G01*
X33511500Y-39384500D01*
X33751500Y-39054500D01*
X33991500Y-39384500D01*
G37*
%TO.C,C2*%
X32779580Y-34572000D02*
X32498420Y-34572000D01*
X32779580Y-35592000D02*
X32498420Y-35592000D01*
%TD*%
M02*
