%TF.GenerationSoftware,KiCad,Pcbnew,9.0.1*%
%TF.CreationDate,2025-09-04T18:16:01+02:00*%
%TF.ProjectId,Neopixel USB,4e656f70-6978-4656-9c20-5553422e6b69,rev?*%
%TF.SameCoordinates,Original*%
%TF.FileFunction,Soldermask,Top*%
%TF.FilePolarity,Negative*%
%FSLAX46Y46*%
G04 Gerber Fmt 4.6, Leading zero omitted, Abs format (unit mm)*
G04 Created by KiCad (PCBNEW 9.0.1) date 2025-09-04 18:16:01*
%MOMM*%
%LPD*%
G01*
G04 APERTURE LIST*
G04 Aperture macros list*
%AMRoundRect*
0 Rectangle with rounded corners*
0 $1 Rounding radius*
0 $2 $3 $4 $5 $6 $7 $8 $9 X,Y pos of 4 corners*
0 Add a 4 corners polygon primitive as box body*
4,1,4,$2,$3,$4,$5,$6,$7,$8,$9,$2,$3,0*
0 Add four circle primitives for the rounded corners*
1,1,$1+$1,$2,$3*
1,1,$1+$1,$4,$5*
1,1,$1+$1,$6,$7*
1,1,$1+$1,$8,$9*
0 Add four rect primitives between the rounded corners*
20,1,$1+$1,$2,$3,$4,$5,0*
20,1,$1+$1,$4,$5,$6,$7,0*
20,1,$1+$1,$6,$7,$8,$9,0*
20,1,$1+$1,$8,$9,$2,$3,0*%
G04 Aperture macros list end*
%ADD10C,0.010000*%
%ADD11RoundRect,0.090000X-0.360000X0.660000X-0.360000X-0.660000X0.360000X-0.660000X0.360000X0.660000X0*%
%ADD12RoundRect,0.225000X-0.225000X-0.250000X0.225000X-0.250000X0.225000X0.250000X-0.225000X0.250000X0*%
%ADD13RoundRect,0.200000X0.200000X0.275000X-0.200000X0.275000X-0.200000X-0.275000X0.200000X-0.275000X0*%
%ADD14C,1.000000*%
%ADD15RoundRect,0.225000X0.225000X0.250000X-0.225000X0.250000X-0.225000X-0.250000X0.225000X-0.250000X0*%
%ADD16RoundRect,0.200000X-0.200000X-0.275000X0.200000X-0.275000X0.200000X0.275000X-0.200000X0.275000X0*%
%ADD17RoundRect,0.102000X-0.650000X0.350000X-0.650000X-0.350000X0.650000X-0.350000X0.650000X0.350000X0*%
%ADD18RoundRect,0.150000X0.587500X0.150000X-0.587500X0.150000X-0.587500X-0.150000X0.587500X-0.150000X0*%
G04 APERTURE END LIST*
D10*
%TO.C,J1*%
X30148809Y-36574819D02*
X28548809Y-36574819D01*
X28548809Y-36174819D01*
X30148809Y-36174819D01*
X30148809Y-36574819D01*
G36*
X30148809Y-36574819D02*
G01*
X28548809Y-36574819D01*
X28548809Y-36174819D01*
X30148809Y-36174819D01*
X30148809Y-36574819D01*
G37*
X30148809Y-37074819D02*
X28548809Y-37074819D01*
X28548809Y-36674819D01*
X30148809Y-36674819D01*
X30148809Y-37074819D01*
G36*
X30148809Y-37074819D02*
G01*
X28548809Y-37074819D01*
X28548809Y-36674819D01*
X30148809Y-36674819D01*
X30148809Y-37074819D01*
G37*
X30148809Y-37574819D02*
X28548809Y-37574819D01*
X28548809Y-37174819D01*
X30148809Y-37174819D01*
X30148809Y-37574819D01*
G36*
X30148809Y-37574819D02*
G01*
X28548809Y-37574819D01*
X28548809Y-37174819D01*
X30148809Y-37174819D01*
X30148809Y-37574819D01*
G37*
X30148809Y-38074819D02*
X28548809Y-38074819D01*
X28548809Y-37674819D01*
X30148809Y-37674819D01*
X30148809Y-38074819D01*
G36*
X30148809Y-38074819D02*
G01*
X28548809Y-38074819D01*
X28548809Y-37674819D01*
X30148809Y-37674819D01*
X30148809Y-38074819D01*
G37*
X30148809Y-38574819D02*
X28548809Y-38574819D01*
X28548809Y-38174819D01*
X30148809Y-38174819D01*
X30148809Y-38574819D01*
G36*
X30148809Y-38574819D02*
G01*
X28548809Y-38574819D01*
X28548809Y-38174819D01*
X30148809Y-38174819D01*
X30148809Y-38574819D01*
G37*
X30148809Y-39074819D02*
X28548809Y-39074819D01*
X28548809Y-38674819D01*
X30148809Y-38674819D01*
X30148809Y-39074819D01*
G36*
X30148809Y-39074819D02*
G01*
X28548809Y-39074819D01*
X28548809Y-38674819D01*
X30148809Y-38674819D01*
X30148809Y-39074819D01*
G37*
X30148809Y-39574819D02*
X28548809Y-39574819D01*
X28548809Y-39174819D01*
X30148809Y-39174819D01*
X30148809Y-39574819D01*
G36*
X30148809Y-39574819D02*
G01*
X28548809Y-39574819D01*
X28548809Y-39174819D01*
X30148809Y-39174819D01*
X30148809Y-39574819D01*
G37*
X30148809Y-40074819D02*
X28548809Y-40074819D01*
X28548809Y-39674819D01*
X30148809Y-39674819D01*
X30148809Y-40074819D01*
G36*
X30148809Y-40074819D02*
G01*
X28548809Y-40074819D01*
X28548809Y-39674819D01*
X30148809Y-39674819D01*
X30148809Y-40074819D01*
G37*
X30148809Y-40574819D02*
X28548809Y-40574819D01*
X28548809Y-40174819D01*
X30148809Y-40174819D01*
X30148809Y-40574819D01*
G36*
X30148809Y-40574819D02*
G01*
X28548809Y-40574819D01*
X28548809Y-40174819D01*
X30148809Y-40174819D01*
X30148809Y-40574819D01*
G37*
X30148809Y-41074819D02*
X28548809Y-41074819D01*
X28548809Y-40674819D01*
X30148809Y-40674819D01*
X30148809Y-41074819D01*
G36*
X30148809Y-41074819D02*
G01*
X28548809Y-41074819D01*
X28548809Y-40674819D01*
X30148809Y-40674819D01*
X30148809Y-41074819D01*
G37*
X30148809Y-41574819D02*
X28548809Y-41574819D01*
X28548809Y-41174819D01*
X30148809Y-41174819D01*
X30148809Y-41574819D01*
G36*
X30148809Y-41574819D02*
G01*
X28548809Y-41574819D01*
X28548809Y-41174819D01*
X30148809Y-41174819D01*
X30148809Y-41574819D01*
G37*
X30148809Y-42074819D02*
X28548809Y-42074819D01*
X28548809Y-41674819D01*
X30148809Y-41674819D01*
X30148809Y-42074819D01*
G36*
X30148809Y-42074819D02*
G01*
X28548809Y-42074819D01*
X28548809Y-41674819D01*
X30148809Y-41674819D01*
X30148809Y-42074819D01*
G37*
%TD*%
D11*
%TO.C,D1*%
X42925000Y-36666000D03*
X39625000Y-36666000D03*
X39625000Y-41566000D03*
X42925000Y-41566000D03*
%TD*%
D12*
%TO.C,C1*%
X31864000Y-40132000D03*
X33414000Y-40132000D03*
%TD*%
D13*
%TO.C,R2*%
X33464000Y-43132000D03*
X31814000Y-43132000D03*
%TD*%
D14*
%TO.C,TP1*%
X36906200Y-37820600D03*
%TD*%
D15*
%TO.C,C3*%
X42050000Y-34721800D03*
X40500000Y-34721800D03*
%TD*%
D14*
%TO.C,TP2*%
X35636200Y-37820600D03*
%TD*%
D16*
%TO.C,R5*%
X35471600Y-35077400D03*
X37121600Y-35077400D03*
%TD*%
%TO.C,R1*%
X31814000Y-41632000D03*
X33464000Y-41632000D03*
%TD*%
D14*
%TO.C,TP4*%
X35636200Y-40360600D03*
%TD*%
%TO.C,TP5*%
X36906200Y-39090600D03*
%TD*%
D16*
%TO.C,R4*%
X40450000Y-43484800D03*
X42100000Y-43484800D03*
%TD*%
D14*
%TO.C,TP3*%
X35636200Y-39090600D03*
%TD*%
D17*
%TO.C,J1*%
X29448809Y-42724819D03*
%TD*%
D18*
%TO.C,U1*%
X33526500Y-38494500D03*
X33526500Y-36594500D03*
X31651500Y-37544500D03*
%TD*%
D14*
%TO.C,TP6*%
X36906200Y-40360600D03*
%TD*%
D15*
%TO.C,C2*%
X33414000Y-35082000D03*
X31864000Y-35082000D03*
%TD*%
M02*
