%TF.GenerationSoftware,KiCad,Pcbnew,9.0.1*%
%TF.CreationDate,2025-07-08T09:29:25+02:00*%
%TF.ProjectId,Neopixel USB,4e656f70-6978-4656-9c20-5553422e6b69,rev?*%
%TF.SameCoordinates,Original*%
%TF.FileFunction,Legend,Top*%
%TF.FilePolarity,Positive*%
%FSLAX46Y46*%
G04 Gerber Fmt 4.6, Leading zero omitted, Abs format (unit mm)*
G04 Created by KiCad (PCBNEW 9.0.1) date 2025-07-08 09:29:25*
%MOMM*%
%LPD*%
G01*
G04 APERTURE LIST*
%ADD10C,0.150000*%
%ADD11C,0.120000*%
G04 APERTURE END LIST*
D10*
X42333333Y-20754819D02*
X42000000Y-20278628D01*
X41761905Y-20754819D02*
X41761905Y-19754819D01*
X41761905Y-19754819D02*
X42142857Y-19754819D01*
X42142857Y-19754819D02*
X42238095Y-19802438D01*
X42238095Y-19802438D02*
X42285714Y-19850057D01*
X42285714Y-19850057D02*
X42333333Y-19945295D01*
X42333333Y-19945295D02*
X42333333Y-20088152D01*
X42333333Y-20088152D02*
X42285714Y-20183390D01*
X42285714Y-20183390D02*
X42238095Y-20231009D01*
X42238095Y-20231009D02*
X42142857Y-20278628D01*
X42142857Y-20278628D02*
X41761905Y-20278628D01*
X42714286Y-19850057D02*
X42761905Y-19802438D01*
X42761905Y-19802438D02*
X42857143Y-19754819D01*
X42857143Y-19754819D02*
X43095238Y-19754819D01*
X43095238Y-19754819D02*
X43190476Y-19802438D01*
X43190476Y-19802438D02*
X43238095Y-19850057D01*
X43238095Y-19850057D02*
X43285714Y-19945295D01*
X43285714Y-19945295D02*
X43285714Y-20040533D01*
X43285714Y-20040533D02*
X43238095Y-20183390D01*
X43238095Y-20183390D02*
X42666667Y-20754819D01*
X42666667Y-20754819D02*
X43285714Y-20754819D01*
X41761905Y-17154819D02*
X41761905Y-16154819D01*
X41761905Y-16154819D02*
X42000000Y-16154819D01*
X42000000Y-16154819D02*
X42142857Y-16202438D01*
X42142857Y-16202438D02*
X42238095Y-16297676D01*
X42238095Y-16297676D02*
X42285714Y-16392914D01*
X42285714Y-16392914D02*
X42333333Y-16583390D01*
X42333333Y-16583390D02*
X42333333Y-16726247D01*
X42333333Y-16726247D02*
X42285714Y-16916723D01*
X42285714Y-16916723D02*
X42238095Y-17011961D01*
X42238095Y-17011961D02*
X42142857Y-17107200D01*
X42142857Y-17107200D02*
X42000000Y-17154819D01*
X42000000Y-17154819D02*
X41761905Y-17154819D01*
X42714286Y-16250057D02*
X42761905Y-16202438D01*
X42761905Y-16202438D02*
X42857143Y-16154819D01*
X42857143Y-16154819D02*
X43095238Y-16154819D01*
X43095238Y-16154819D02*
X43190476Y-16202438D01*
X43190476Y-16202438D02*
X43238095Y-16250057D01*
X43238095Y-16250057D02*
X43285714Y-16345295D01*
X43285714Y-16345295D02*
X43285714Y-16440533D01*
X43285714Y-16440533D02*
X43238095Y-16583390D01*
X43238095Y-16583390D02*
X42666667Y-17154819D01*
X42666667Y-17154819D02*
X43285714Y-17154819D01*
X51254819Y-22749404D02*
X52064342Y-22749404D01*
X52064342Y-22749404D02*
X52159580Y-22701785D01*
X52159580Y-22701785D02*
X52207200Y-22654166D01*
X52207200Y-22654166D02*
X52254819Y-22558928D01*
X52254819Y-22558928D02*
X52254819Y-22368452D01*
X52254819Y-22368452D02*
X52207200Y-22273214D01*
X52207200Y-22273214D02*
X52159580Y-22225595D01*
X52159580Y-22225595D02*
X52064342Y-22177976D01*
X52064342Y-22177976D02*
X51254819Y-22177976D01*
X52254819Y-21177976D02*
X52254819Y-21749404D01*
X52254819Y-21463690D02*
X51254819Y-21463690D01*
X51254819Y-21463690D02*
X51397676Y-21558928D01*
X51397676Y-21558928D02*
X51492914Y-21654166D01*
X51492914Y-21654166D02*
X51540533Y-21749404D01*
X59733333Y-17354819D02*
X59400000Y-16878628D01*
X59161905Y-17354819D02*
X59161905Y-16354819D01*
X59161905Y-16354819D02*
X59542857Y-16354819D01*
X59542857Y-16354819D02*
X59638095Y-16402438D01*
X59638095Y-16402438D02*
X59685714Y-16450057D01*
X59685714Y-16450057D02*
X59733333Y-16545295D01*
X59733333Y-16545295D02*
X59733333Y-16688152D01*
X59733333Y-16688152D02*
X59685714Y-16783390D01*
X59685714Y-16783390D02*
X59638095Y-16831009D01*
X59638095Y-16831009D02*
X59542857Y-16878628D01*
X59542857Y-16878628D02*
X59161905Y-16878628D01*
X60638095Y-16354819D02*
X60161905Y-16354819D01*
X60161905Y-16354819D02*
X60114286Y-16831009D01*
X60114286Y-16831009D02*
X60161905Y-16783390D01*
X60161905Y-16783390D02*
X60257143Y-16735771D01*
X60257143Y-16735771D02*
X60495238Y-16735771D01*
X60495238Y-16735771D02*
X60590476Y-16783390D01*
X60590476Y-16783390D02*
X60638095Y-16831009D01*
X60638095Y-16831009D02*
X60685714Y-16926247D01*
X60685714Y-16926247D02*
X60685714Y-17164342D01*
X60685714Y-17164342D02*
X60638095Y-17259580D01*
X60638095Y-17259580D02*
X60590476Y-17307200D01*
X60590476Y-17307200D02*
X60495238Y-17354819D01*
X60495238Y-17354819D02*
X60257143Y-17354819D01*
X60257143Y-17354819D02*
X60161905Y-17307200D01*
X60161905Y-17307200D02*
X60114286Y-17259580D01*
X42333333Y-25054819D02*
X42000000Y-24578628D01*
X41761905Y-25054819D02*
X41761905Y-24054819D01*
X41761905Y-24054819D02*
X42142857Y-24054819D01*
X42142857Y-24054819D02*
X42238095Y-24102438D01*
X42238095Y-24102438D02*
X42285714Y-24150057D01*
X42285714Y-24150057D02*
X42333333Y-24245295D01*
X42333333Y-24245295D02*
X42333333Y-24388152D01*
X42333333Y-24388152D02*
X42285714Y-24483390D01*
X42285714Y-24483390D02*
X42238095Y-24531009D01*
X42238095Y-24531009D02*
X42142857Y-24578628D01*
X42142857Y-24578628D02*
X41761905Y-24578628D01*
X43190476Y-24388152D02*
X43190476Y-25054819D01*
X42952381Y-24007200D02*
X42714286Y-24721485D01*
X42714286Y-24721485D02*
X43333333Y-24721485D01*
X42333333Y-19254819D02*
X42000000Y-18778628D01*
X41761905Y-19254819D02*
X41761905Y-18254819D01*
X41761905Y-18254819D02*
X42142857Y-18254819D01*
X42142857Y-18254819D02*
X42238095Y-18302438D01*
X42238095Y-18302438D02*
X42285714Y-18350057D01*
X42285714Y-18350057D02*
X42333333Y-18445295D01*
X42333333Y-18445295D02*
X42333333Y-18588152D01*
X42333333Y-18588152D02*
X42285714Y-18683390D01*
X42285714Y-18683390D02*
X42238095Y-18731009D01*
X42238095Y-18731009D02*
X42142857Y-18778628D01*
X42142857Y-18778628D02*
X41761905Y-18778628D01*
X42666667Y-18254819D02*
X43285714Y-18254819D01*
X43285714Y-18254819D02*
X42952381Y-18635771D01*
X42952381Y-18635771D02*
X43095238Y-18635771D01*
X43095238Y-18635771D02*
X43190476Y-18683390D01*
X43190476Y-18683390D02*
X43238095Y-18731009D01*
X43238095Y-18731009D02*
X43285714Y-18826247D01*
X43285714Y-18826247D02*
X43285714Y-19064342D01*
X43285714Y-19064342D02*
X43238095Y-19159580D01*
X43238095Y-19159580D02*
X43190476Y-19207200D01*
X43190476Y-19207200D02*
X43095238Y-19254819D01*
X43095238Y-19254819D02*
X42809524Y-19254819D01*
X42809524Y-19254819D02*
X42714286Y-19207200D01*
X42714286Y-19207200D02*
X42666667Y-19159580D01*
X42333333Y-26654819D02*
X42000000Y-26178628D01*
X41761905Y-26654819D02*
X41761905Y-25654819D01*
X41761905Y-25654819D02*
X42142857Y-25654819D01*
X42142857Y-25654819D02*
X42238095Y-25702438D01*
X42238095Y-25702438D02*
X42285714Y-25750057D01*
X42285714Y-25750057D02*
X42333333Y-25845295D01*
X42333333Y-25845295D02*
X42333333Y-25988152D01*
X42333333Y-25988152D02*
X42285714Y-26083390D01*
X42285714Y-26083390D02*
X42238095Y-26131009D01*
X42238095Y-26131009D02*
X42142857Y-26178628D01*
X42142857Y-26178628D02*
X41761905Y-26178628D01*
X43285714Y-26654819D02*
X42714286Y-26654819D01*
X43000000Y-26654819D02*
X43000000Y-25654819D01*
X43000000Y-25654819D02*
X42904762Y-25797676D01*
X42904762Y-25797676D02*
X42809524Y-25892914D01*
X42809524Y-25892914D02*
X42714286Y-25940533D01*
X57112295Y-22221428D02*
X57112295Y-22678571D01*
X57112295Y-22449999D02*
X56312295Y-22449999D01*
X56312295Y-22449999D02*
X56426580Y-22526190D01*
X56426580Y-22526190D02*
X56502771Y-22602380D01*
X56502771Y-22602380D02*
X56540866Y-22678571D01*
X41761905Y-23054819D02*
X41761905Y-22054819D01*
X41761905Y-22054819D02*
X42000000Y-22054819D01*
X42000000Y-22054819D02*
X42142857Y-22102438D01*
X42142857Y-22102438D02*
X42238095Y-22197676D01*
X42238095Y-22197676D02*
X42285714Y-22292914D01*
X42285714Y-22292914D02*
X42333333Y-22483390D01*
X42333333Y-22483390D02*
X42333333Y-22626247D01*
X42333333Y-22626247D02*
X42285714Y-22816723D01*
X42285714Y-22816723D02*
X42238095Y-22911961D01*
X42238095Y-22911961D02*
X42142857Y-23007200D01*
X42142857Y-23007200D02*
X42000000Y-23054819D01*
X42000000Y-23054819D02*
X41761905Y-23054819D01*
X43285714Y-23054819D02*
X42714286Y-23054819D01*
X43000000Y-23054819D02*
X43000000Y-22054819D01*
X43000000Y-22054819D02*
X42904762Y-22197676D01*
X42904762Y-22197676D02*
X42809524Y-22292914D01*
X42809524Y-22292914D02*
X42714286Y-22340533D01*
X59733333Y-26059580D02*
X59685714Y-26107200D01*
X59685714Y-26107200D02*
X59542857Y-26154819D01*
X59542857Y-26154819D02*
X59447619Y-26154819D01*
X59447619Y-26154819D02*
X59304762Y-26107200D01*
X59304762Y-26107200D02*
X59209524Y-26011961D01*
X59209524Y-26011961D02*
X59161905Y-25916723D01*
X59161905Y-25916723D02*
X59114286Y-25726247D01*
X59114286Y-25726247D02*
X59114286Y-25583390D01*
X59114286Y-25583390D02*
X59161905Y-25392914D01*
X59161905Y-25392914D02*
X59209524Y-25297676D01*
X59209524Y-25297676D02*
X59304762Y-25202438D01*
X59304762Y-25202438D02*
X59447619Y-25154819D01*
X59447619Y-25154819D02*
X59542857Y-25154819D01*
X59542857Y-25154819D02*
X59685714Y-25202438D01*
X59685714Y-25202438D02*
X59733333Y-25250057D01*
X60066667Y-25154819D02*
X60685714Y-25154819D01*
X60685714Y-25154819D02*
X60352381Y-25535771D01*
X60352381Y-25535771D02*
X60495238Y-25535771D01*
X60495238Y-25535771D02*
X60590476Y-25583390D01*
X60590476Y-25583390D02*
X60638095Y-25631009D01*
X60638095Y-25631009D02*
X60685714Y-25726247D01*
X60685714Y-25726247D02*
X60685714Y-25964342D01*
X60685714Y-25964342D02*
X60638095Y-26059580D01*
X60638095Y-26059580D02*
X60590476Y-26107200D01*
X60590476Y-26107200D02*
X60495238Y-26154819D01*
X60495238Y-26154819D02*
X60209524Y-26154819D01*
X60209524Y-26154819D02*
X60114286Y-26107200D01*
X60114286Y-26107200D02*
X60066667Y-26059580D01*
X53133333Y-16859580D02*
X53085714Y-16907200D01*
X53085714Y-16907200D02*
X52942857Y-16954819D01*
X52942857Y-16954819D02*
X52847619Y-16954819D01*
X52847619Y-16954819D02*
X52704762Y-16907200D01*
X52704762Y-16907200D02*
X52609524Y-16811961D01*
X52609524Y-16811961D02*
X52561905Y-16716723D01*
X52561905Y-16716723D02*
X52514286Y-16526247D01*
X52514286Y-16526247D02*
X52514286Y-16383390D01*
X52514286Y-16383390D02*
X52561905Y-16192914D01*
X52561905Y-16192914D02*
X52609524Y-16097676D01*
X52609524Y-16097676D02*
X52704762Y-16002438D01*
X52704762Y-16002438D02*
X52847619Y-15954819D01*
X52847619Y-15954819D02*
X52942857Y-15954819D01*
X52942857Y-15954819D02*
X53085714Y-16002438D01*
X53085714Y-16002438D02*
X53133333Y-16050057D01*
X54085714Y-16954819D02*
X53514286Y-16954819D01*
X53800000Y-16954819D02*
X53800000Y-15954819D01*
X53800000Y-15954819D02*
X53704762Y-16097676D01*
X53704762Y-16097676D02*
X53609524Y-16192914D01*
X53609524Y-16192914D02*
X53514286Y-16240533D01*
D11*
%TO.C,R2*%
X46254724Y-19777500D02*
X45745276Y-19777500D01*
X46254724Y-20822500D02*
X45745276Y-20822500D01*
%TO.C,D2*%
X43640000Y-15700000D02*
X43640000Y-17700000D01*
X43640000Y-15700000D02*
X47650000Y-15700000D01*
X43640000Y-17700000D02*
X47650000Y-17700000D01*
%TO.C,U1*%
X49040000Y-24747500D02*
X49310000Y-24747500D01*
X54560000Y-24747500D02*
X54290000Y-24747500D01*
X49040000Y-21987500D02*
X49040000Y-24747500D01*
X49040000Y-21987500D02*
X49040000Y-19227500D01*
X54560000Y-21987500D02*
X54560000Y-24747500D01*
X54560000Y-21987500D02*
X54560000Y-19227500D01*
X49040000Y-19227500D02*
X49310000Y-19227500D01*
X54560000Y-19227500D02*
X54290000Y-19227500D01*
X49310000Y-25512500D02*
X48980000Y-25752500D01*
X48980000Y-25272500D01*
X49310000Y-25512500D01*
G36*
X49310000Y-25512500D02*
G01*
X48980000Y-25752500D01*
X48980000Y-25272500D01*
X49310000Y-25512500D01*
G37*
%TO.C,R5*%
X56945276Y-16327500D02*
X57454724Y-16327500D01*
X56945276Y-17372500D02*
X57454724Y-17372500D01*
%TO.C,R4*%
X45745276Y-24077500D02*
X46254724Y-24077500D01*
X45745276Y-25122500D02*
X46254724Y-25122500D01*
%TO.C,R3*%
X46254724Y-19222500D02*
X45745276Y-19222500D01*
X46254724Y-18177500D02*
X45745276Y-18177500D01*
%TO.C,R1*%
X46254724Y-26722500D02*
X45745276Y-26722500D01*
X46254724Y-25677500D02*
X45745276Y-25677500D01*
%TO.C,D3*%
X55600000Y-24750000D02*
X61100000Y-24750000D01*
X55600000Y-24750000D02*
X55600000Y-17750000D01*
X61100000Y-24750000D02*
X61100000Y-18200000D01*
X59250000Y-23950000D02*
X57450000Y-23950000D01*
X59250000Y-18550000D02*
X57450000Y-18550000D01*
X61100000Y-18200000D02*
X60650000Y-17750000D01*
X60650000Y-17750000D02*
X55600000Y-17750000D01*
%TO.C,D1*%
X43640000Y-21600000D02*
X43640000Y-23600000D01*
X43640000Y-21600000D02*
X47650000Y-21600000D01*
X43640000Y-23600000D02*
X47650000Y-23600000D01*
%TO.C,C3*%
X57053733Y-25140000D02*
X57346267Y-25140000D01*
X57053733Y-26160000D02*
X57346267Y-26160000D01*
%TO.C,C1*%
X50453733Y-15990000D02*
X50746267Y-15990000D01*
X50453733Y-17010000D02*
X50746267Y-17010000D01*
%TD*%
M02*
