M48
; DRILL file {KiCad 9.0.1} date 2025-09-04T18:16:23+0200
; FORMAT={-:-/ absolute / metric / decimal}
; #@! TF.CreationDate,2025-09-04T18:16:23+02:00
; #@! TF.GenerationSoftware,Kicad,Pcbnew,9.0.1
; #@! TF.FileFunction,Plated,1,2,PTH
FMAT,2
METRIC
; #@! TA.AperFunction,Plated,PTH,ViaDrill
T1C0.300
%
G90
G05
T1
X28.0Y-37.9
X28.0Y-39.4
X28.0Y-40.4
X29.399Y-35.525
X29.399Y-42.725
X31.1Y-39.0
X31.864Y-40.132
X33.414Y-35.082
X34.646Y-39.7
X34.76Y-41.846
X35.636Y-37.821
X35.636Y-39.091
X35.636Y-40.361
X36.906Y-37.821
X36.906Y-39.091
X36.906Y-40.361
X37.795Y-41.758
X38.405Y-38.491
X38.532Y-35.662
X39.624Y-38.329
X39.625Y-41.566
X39.653Y-40.263
X41.148Y-35.585
X43.631Y-38.105
X43.676Y-34.671
X43.688Y-43.434
M30
