%TF.GenerationSoftware,KiCad,Pcbnew,9.0.1*%
%TF.CreationDate,2025-09-04T18:16:01+02:00*%
%TF.ProjectId,Neopixel USB,4e656f70-6978-4656-9c20-5553422e6b69,rev?*%
%TF.SameCoordinates,Original*%
%TF.FileFunction,Copper,L2,Bot*%
%TF.FilePolarity,Positive*%
%FSLAX46Y46*%
G04 Gerber Fmt 4.6, Leading zero omitted, Abs format (unit mm)*
G04 Created by KiCad (PCBNEW 9.0.1) date 2025-09-04 18:16:01*
%MOMM*%
%LPD*%
G01*
G04 APERTURE LIST*
G04 Aperture macros list*
%AMRoundRect*
0 Rectangle with rounded corners*
0 $1 Rounding radius*
0 $2 $3 $4 $5 $6 $7 $8 $9 X,Y pos of 4 corners*
0 Add a 4 corners polygon primitive as box body*
4,1,4,$2,$3,$4,$5,$6,$7,$8,$9,$2,$3,0*
0 Add four circle primitives for the rounded corners*
1,1,$1+$1,$2,$3*
1,1,$1+$1,$4,$5*
1,1,$1+$1,$6,$7*
1,1,$1+$1,$8,$9*
0 Add four rect primitives between the rounded corners*
20,1,$1+$1,$2,$3,$4,$5,0*
20,1,$1+$1,$4,$5,$6,$7,0*
20,1,$1+$1,$6,$7,$8,$9,0*
20,1,$1+$1,$8,$9,$2,$3,0*%
G04 Aperture macros list end*
%TA.AperFunction,SMDPad,CuDef*%
%ADD10R,1.500000X0.300000*%
%TD*%
%TA.AperFunction,SMDPad,CuDef*%
%ADD11R,1.300000X0.700000*%
%TD*%
%TA.AperFunction,SMDPad,CuDef*%
%ADD12RoundRect,0.225000X-0.250000X0.225000X-0.250000X-0.225000X0.250000X-0.225000X0.250000X0.225000X0*%
%TD*%
%TA.AperFunction,SMDPad,CuDef*%
%ADD13RoundRect,0.075000X0.662500X0.075000X-0.662500X0.075000X-0.662500X-0.075000X0.662500X-0.075000X0*%
%TD*%
%TA.AperFunction,SMDPad,CuDef*%
%ADD14RoundRect,0.075000X0.075000X0.662500X-0.075000X0.662500X-0.075000X-0.662500X0.075000X-0.662500X0*%
%TD*%
%TA.AperFunction,SMDPad,CuDef*%
%ADD15RoundRect,0.225000X0.225000X0.250000X-0.225000X0.250000X-0.225000X-0.250000X0.225000X-0.250000X0*%
%TD*%
%TA.AperFunction,SMDPad,CuDef*%
%ADD16RoundRect,0.200000X-0.275000X0.200000X-0.275000X-0.200000X0.275000X-0.200000X0.275000X0.200000X0*%
%TD*%
%TA.AperFunction,SMDPad,CuDef*%
%ADD17RoundRect,0.225000X-0.225000X-0.250000X0.225000X-0.250000X0.225000X0.250000X-0.225000X0.250000X0*%
%TD*%
%TA.AperFunction,ViaPad*%
%ADD18C,0.600000*%
%TD*%
%TA.AperFunction,Conductor*%
%ADD19C,0.200000*%
%TD*%
G04 APERTURE END LIST*
D10*
%TO.P,J1,B1,GND_B*%
%TO.N,GND*%
X29348809Y-36374819D03*
%TO.P,J1,B2,TX2+*%
%TO.N,unconnected-(J1-TX2+-PadB2)*%
X29348809Y-36874819D03*
%TO.P,J1,B3,TX2-*%
%TO.N,unconnected-(J1-TX2--PadB3)*%
X29348809Y-37374819D03*
%TO.P,J1,B4,VBUS_B*%
%TO.N,+5V*%
X29348809Y-37874819D03*
%TO.P,J1,B5,VCONN*%
%TO.N,Net-(J1-VCONN)*%
X29348809Y-38374819D03*
%TO.P,J1,B6,D2+*%
%TO.N,USB_P*%
X29348809Y-38874819D03*
%TO.P,J1,B7,D2-*%
%TO.N,USB_N*%
X29348809Y-39374819D03*
%TO.P,J1,B8,SBU2*%
%TO.N,unconnected-(J1-SBU2-PadB8)*%
X29348809Y-39874819D03*
%TO.P,J1,B9,VBUS_B*%
%TO.N,+5V*%
X29348809Y-40374819D03*
%TO.P,J1,B10,RX1-*%
%TO.N,unconnected-(J1-RX1--PadB10)*%
X29348809Y-40874819D03*
%TO.P,J1,B11,RX1+*%
%TO.N,unconnected-(J1-RX1+-PadB11)*%
X29348809Y-41374819D03*
%TO.P,J1,B12,GND_B*%
%TO.N,GND*%
X29348809Y-41874819D03*
D11*
%TO.P,J1,SH2,SHIELD*%
X29448809Y-35524819D03*
%TD*%
D12*
%TO.P,C7,1*%
%TO.N,+3.3V*%
X43631000Y-36555000D03*
%TO.P,C7,2*%
%TO.N,GND*%
X43631000Y-38105000D03*
%TD*%
D13*
%TO.P,U2,1,VBAT*%
%TO.N,+3.3V*%
X41697500Y-36334000D03*
%TO.P,U2,2,PC13*%
%TO.N,unconnected-(U2-PC13-Pad2)*%
X41697500Y-36834000D03*
%TO.P,U2,3,PC14*%
%TO.N,unconnected-(U2-PC14-Pad3)*%
X41697500Y-37334000D03*
%TO.P,U2,4,PC15*%
%TO.N,unconnected-(U2-PC15-Pad4)*%
X41697500Y-37834000D03*
%TO.P,U2,5,PF0*%
%TO.N,unconnected-(U2-PF0-Pad5)*%
X41697500Y-38334000D03*
%TO.P,U2,6,PF1*%
%TO.N,unconnected-(U2-PF1-Pad6)*%
X41697500Y-38834000D03*
%TO.P,U2,7,NRST*%
%TO.N,NRST*%
X41697500Y-39334000D03*
%TO.P,U2,8,VSSA*%
%TO.N,GND*%
X41697500Y-39834000D03*
%TO.P,U2,9,VDDA*%
%TO.N,+3.3V*%
X41697500Y-40334000D03*
%TO.P,U2,10,PA0*%
%TO.N,unconnected-(U2-PA0-Pad10)*%
X41697500Y-40834000D03*
%TO.P,U2,11,PA1*%
%TO.N,unconnected-(U2-PA1-Pad11)*%
X41697500Y-41334000D03*
%TO.P,U2,12,PA2*%
%TO.N,unconnected-(U2-PA2-Pad12)*%
X41697500Y-41834000D03*
D14*
%TO.P,U2,13,PA3*%
%TO.N,unconnected-(U2-PA3-Pad13)*%
X40285000Y-43246500D03*
%TO.P,U2,14,PA4*%
%TO.N,unconnected-(U2-PA4-Pad14)*%
X39785000Y-43246500D03*
%TO.P,U2,15,PA5*%
%TO.N,unconnected-(U2-PA5-Pad15)*%
X39285000Y-43246500D03*
%TO.P,U2,16,PA6*%
%TO.N,unconnected-(U2-PA6-Pad16)*%
X38785000Y-43246500D03*
%TO.P,U2,17,PA7*%
%TO.N,unconnected-(U2-PA7-Pad17)*%
X38285000Y-43246500D03*
%TO.P,U2,18,PB0*%
%TO.N,unconnected-(U2-PB0-Pad18)*%
X37785000Y-43246500D03*
%TO.P,U2,19,PB1*%
%TO.N,unconnected-(U2-PB1-Pad19)*%
X37285000Y-43246500D03*
%TO.P,U2,20,PB2*%
%TO.N,unconnected-(U2-PB2-Pad20)*%
X36785000Y-43246500D03*
%TO.P,U2,21,PB10*%
%TO.N,unconnected-(U2-PB10-Pad21)*%
X36285000Y-43246500D03*
%TO.P,U2,22,PB11*%
%TO.N,unconnected-(U2-PB11-Pad22)*%
X35785000Y-43246500D03*
%TO.P,U2,23,VSS*%
%TO.N,GND*%
X35285000Y-43246500D03*
%TO.P,U2,24,VDD*%
%TO.N,+3.3V*%
X34785000Y-43246500D03*
D13*
%TO.P,U2,25,PB12*%
%TO.N,unconnected-(U2-PB12-Pad25)*%
X33372500Y-41834000D03*
%TO.P,U2,26,PB13*%
%TO.N,unconnected-(U2-PB13-Pad26)*%
X33372500Y-41334000D03*
%TO.P,U2,27,PB14*%
%TO.N,unconnected-(U2-PB14-Pad27)*%
X33372500Y-40834000D03*
%TO.P,U2,28,PB15*%
%TO.N,unconnected-(U2-PB15-Pad28)*%
X33372500Y-40334000D03*
%TO.P,U2,29,PA8*%
%TO.N,unconnected-(U2-PA8-Pad29)*%
X33372500Y-39834000D03*
%TO.P,U2,30,PA9*%
%TO.N,unconnected-(U2-PA9-Pad30)*%
X33372500Y-39334000D03*
%TO.P,U2,31,PA10*%
%TO.N,unconnected-(U2-PA10-Pad31)*%
X33372500Y-38834000D03*
%TO.P,U2,32,PA11*%
%TO.N,USB_N*%
X33372500Y-38334000D03*
%TO.P,U2,33,PA12*%
%TO.N,USB_P*%
X33372500Y-37834000D03*
%TO.P,U2,34,PA13*%
%TO.N,SWDIO*%
X33372500Y-37334000D03*
%TO.P,U2,35,VSS*%
%TO.N,GND*%
X33372500Y-36834000D03*
%TO.P,U2,36,VDDIO2*%
%TO.N,+3.3V*%
X33372500Y-36334000D03*
D14*
%TO.P,U2,37,PA14*%
%TO.N,SWCLK*%
X34785000Y-34921500D03*
%TO.P,U2,38,PA15*%
%TO.N,unconnected-(U2-PA15-Pad38)*%
X35285000Y-34921500D03*
%TO.P,U2,39,PB3*%
%TO.N,unconnected-(U2-PB3-Pad39)*%
X35785000Y-34921500D03*
%TO.P,U2,40,PB4*%
%TO.N,unconnected-(U2-PB4-Pad40)*%
X36285000Y-34921500D03*
%TO.P,U2,41,PB5*%
%TO.N,unconnected-(U2-PB5-Pad41)*%
X36785000Y-34921500D03*
%TO.P,U2,42,PB6*%
%TO.N,unconnected-(U2-PB6-Pad42)*%
X37285000Y-34921500D03*
%TO.P,U2,43,PB7*%
%TO.N,unconnected-(U2-PB7-Pad43)*%
X37785000Y-34921500D03*
%TO.P,U2,44,BOOT0*%
%TO.N,BOOT0*%
X38285000Y-34921500D03*
%TO.P,U2,45,PB8*%
X38785000Y-34921500D03*
%TO.P,U2,46,PB9*%
%TO.N,LED*%
X39285000Y-34921500D03*
%TO.P,U2,47,VSS*%
%TO.N,GND*%
X39785000Y-34921500D03*
%TO.P,U2,48,VDD*%
%TO.N,+3.3V*%
X40285000Y-34921500D03*
%TD*%
D15*
%TO.P,C5,1*%
%TO.N,+3.3V*%
X32906000Y-43484800D03*
%TO.P,C5,2*%
%TO.N,GND*%
X31356000Y-43484800D03*
%TD*%
%TO.P,C4,1*%
%TO.N,+3.3V*%
X32855200Y-34823400D03*
%TO.P,C4,2*%
%TO.N,GND*%
X31305200Y-34823400D03*
%TD*%
D12*
%TO.P,C6,1*%
%TO.N,+3.3V*%
X43631000Y-40087000D03*
%TO.P,C6,2*%
%TO.N,GND*%
X43631000Y-41637000D03*
%TD*%
D16*
%TO.P,R3,1*%
%TO.N,GND*%
X31100000Y-36375000D03*
%TO.P,R3,2*%
%TO.N,Net-(J1-VCONN)*%
X31100000Y-38025000D03*
%TD*%
D17*
%TO.P,C8,1*%
%TO.N,+3.3V*%
X42125600Y-34671000D03*
%TO.P,C8,2*%
%TO.N,GND*%
X43675600Y-34671000D03*
%TD*%
D18*
%TO.N,GND*%
X29398809Y-42724819D03*
X37795200Y-41757600D03*
X41148000Y-35585400D03*
X43675600Y-34671000D03*
X39624000Y-38328600D03*
X36906200Y-40360600D03*
X29398809Y-35524819D03*
X43631000Y-38105000D03*
X39625000Y-41566000D03*
X43688000Y-43434000D03*
%TO.N,+5V*%
X28000000Y-40400000D03*
X28000000Y-37900000D03*
X31864000Y-40132000D03*
X39653015Y-40262615D03*
X34645600Y-39700200D03*
%TO.N,+3.3V*%
X34759900Y-41846500D03*
X36906200Y-39090600D03*
X33414000Y-35082000D03*
%TO.N,LED*%
X38404800Y-38490600D03*
%TO.N,USB_P*%
X31100000Y-39000000D03*
%TO.N,BOOT0*%
X38531800Y-35661600D03*
X36906200Y-37820600D03*
%TO.N,SWDIO*%
X35636200Y-37820600D03*
%TO.N,SWCLK*%
X35636200Y-39090600D03*
%TO.N,NRST*%
X35636200Y-40360600D03*
%TO.N,USB_N*%
X28000000Y-39400000D03*
%TD*%
D19*
%TO.N,GND*%
X43688000Y-43434000D02*
X43700000Y-43422000D01*
X43700000Y-41706000D02*
X43631000Y-41637000D01*
%TO.N,LED*%
X38404800Y-38481000D02*
X39285000Y-37600800D01*
X38404800Y-38490600D02*
X38404800Y-38481000D01*
X39285000Y-37600800D02*
X39285000Y-34921500D01*
%TO.N,GND*%
X29348809Y-35574819D02*
X29398809Y-35524819D01*
X29348809Y-36374819D02*
X29348809Y-35574819D01*
X29348809Y-42674819D02*
X29398809Y-42724819D01*
X29348809Y-41874819D02*
X29348809Y-42674819D01*
%TO.N,+5V*%
X34772600Y-40970200D02*
X38938200Y-40970200D01*
X28000000Y-40400000D02*
X29323628Y-40400000D01*
X29323628Y-37900000D02*
X29348809Y-37874819D01*
X39645785Y-40262615D02*
X39653015Y-40262615D01*
X29323628Y-40400000D02*
X29348809Y-40374819D01*
X38938200Y-40970200D02*
X39645785Y-40262615D01*
X31621181Y-40374819D02*
X29348809Y-40374819D01*
X28000000Y-37900000D02*
X29323628Y-37900000D01*
X31864000Y-40132000D02*
X31621181Y-40374819D01*
X34645600Y-39700200D02*
X34645600Y-40843200D01*
X34645600Y-40843200D02*
X34772600Y-40970200D01*
%TO.N,+3.3V*%
X43631000Y-39999500D02*
X43543500Y-40087000D01*
X34772600Y-43234100D02*
X34785000Y-43246500D01*
X32855200Y-35192000D02*
X33372500Y-35709300D01*
X34759900Y-41846500D02*
X34772600Y-41859200D01*
X32855200Y-34823400D02*
X32855200Y-35192000D01*
X43543500Y-40087000D02*
X42715824Y-40087000D01*
X40285000Y-38607400D02*
X39776400Y-39116000D01*
X40285000Y-36524600D02*
X40475600Y-36334000D01*
X32906000Y-43484800D02*
X33909000Y-43484800D01*
X41837500Y-34700000D02*
X41100000Y-34700000D01*
X40475600Y-36334000D02*
X41697500Y-36334000D01*
X42715824Y-40087000D02*
X42468824Y-40334000D01*
X43543500Y-36555000D02*
X43631000Y-36467500D01*
X33372500Y-35709300D02*
X33372500Y-36334000D01*
X34147300Y-43246500D02*
X34785000Y-43246500D01*
X40878500Y-34921500D02*
X40285000Y-34921500D01*
X42468824Y-40334000D02*
X41697500Y-40334000D01*
X42855000Y-36600000D02*
X42855000Y-39311000D01*
X36931600Y-39116000D02*
X36906200Y-39090600D01*
X40285000Y-36524600D02*
X40285000Y-34921500D01*
X33909000Y-43484800D02*
X34147300Y-43246500D01*
X40285000Y-36524600D02*
X40285000Y-38607400D01*
X41100000Y-34700000D02*
X40878500Y-34921500D01*
X42689824Y-36555000D02*
X42900000Y-36555000D01*
X42468824Y-36334000D02*
X42689824Y-36555000D01*
X39776400Y-39116000D02*
X36931600Y-39116000D01*
X42855000Y-39311000D02*
X43631000Y-40087000D01*
X34772600Y-41859200D02*
X34772600Y-43234100D01*
X41697500Y-36334000D02*
X42468824Y-36334000D01*
X42900000Y-36555000D02*
X43543500Y-36555000D01*
X42900000Y-36555000D02*
X42855000Y-36600000D01*
%TO.N,USB_P*%
X29348809Y-38874819D02*
X30974819Y-38874819D01*
X31876000Y-38724000D02*
X31876000Y-38024000D01*
X30974819Y-38874819D02*
X31100000Y-39000000D01*
X31600000Y-39000000D02*
X31876000Y-38724000D01*
X31876000Y-38024000D02*
X32066000Y-37834000D01*
X32066000Y-37834000D02*
X33372500Y-37834000D01*
X31100000Y-39000000D02*
X31600000Y-39000000D01*
%TO.N,BOOT0*%
X38531800Y-35661600D02*
X36906200Y-37287200D01*
X36906200Y-37287200D02*
X36906200Y-37820600D01*
%TO.N,SWDIO*%
X35134000Y-37334000D02*
X33372500Y-37334000D01*
X35661600Y-37861600D02*
X35134000Y-37334000D01*
%TO.N,SWCLK*%
X34785000Y-34921500D02*
X34785000Y-35877200D01*
X36296600Y-38430200D02*
X35636200Y-39090600D01*
X36296600Y-37388800D02*
X36296600Y-38430200D01*
X34785000Y-35877200D02*
X36296600Y-37388800D01*
%TO.N,NRST*%
X37515800Y-39522400D02*
X37287200Y-39751000D01*
X41648500Y-39383000D02*
X40652400Y-39383000D01*
X40513000Y-39522400D02*
X37515800Y-39522400D01*
X37287200Y-39751000D02*
X36245800Y-39751000D01*
X36245800Y-39751000D02*
X35636200Y-40360600D01*
X41697500Y-39334000D02*
X41648500Y-39383000D01*
X40652400Y-39383000D02*
X40513000Y-39522400D01*
%TO.N,USB_N*%
X33372500Y-38334000D02*
X32466000Y-38334000D01*
X28000000Y-39400000D02*
X29323628Y-39400000D01*
X32466000Y-38334000D02*
X32277000Y-38523000D01*
X30524990Y-39601000D02*
X30298809Y-39374819D01*
X32277000Y-38523000D02*
X32277000Y-38890100D01*
X32277000Y-38890100D02*
X31566100Y-39601000D01*
X30298809Y-39374819D02*
X29348809Y-39374819D01*
X29323628Y-39400000D02*
X29348809Y-39374819D01*
X31566100Y-39601000D02*
X30524990Y-39601000D01*
%TO.N,Net-(J1-VCONN)*%
X30750181Y-38374819D02*
X29348809Y-38374819D01*
X31100000Y-38025000D02*
X30750181Y-38374819D01*
%TD*%
%TA.AperFunction,Conductor*%
%TO.N,GND*%
G36*
X32334886Y-40429746D02*
G01*
X32365744Y-40429836D01*
X32369424Y-40432216D01*
X32373797Y-40432529D01*
X32398500Y-40451021D01*
X32424412Y-40467780D01*
X32427639Y-40472834D01*
X32429731Y-40474400D01*
X32432258Y-40480067D01*
X32443407Y-40497527D01*
X32449297Y-40510525D01*
X32450485Y-40516495D01*
X32455202Y-40523555D01*
X32459399Y-40532815D01*
X32469142Y-40602002D01*
X32454535Y-40639960D01*
X32455159Y-40640219D01*
X32450484Y-40651505D01*
X32434500Y-40731863D01*
X32434500Y-40936129D01*
X32450486Y-41016498D01*
X32455159Y-41027780D01*
X32453714Y-41028378D01*
X32470436Y-41081788D01*
X32454482Y-41139938D01*
X32455159Y-41140219D01*
X32452926Y-41145609D01*
X32451950Y-41149168D01*
X32450550Y-41151345D01*
X32450484Y-41151505D01*
X32434500Y-41231863D01*
X32434500Y-41436129D01*
X32450486Y-41516498D01*
X32455159Y-41527780D01*
X32453714Y-41528378D01*
X32470436Y-41581788D01*
X32454482Y-41639938D01*
X32455159Y-41640219D01*
X32452926Y-41645609D01*
X32451950Y-41649168D01*
X32450550Y-41651345D01*
X32450484Y-41651505D01*
X32434500Y-41731863D01*
X32434500Y-41936129D01*
X32450485Y-42016495D01*
X32511375Y-42107624D01*
X32534010Y-42122748D01*
X32602505Y-42168515D01*
X32602508Y-42168515D01*
X32602509Y-42168516D01*
X32642686Y-42176507D01*
X32682867Y-42184500D01*
X34062132Y-42184499D01*
X34142495Y-42168515D01*
X34196775Y-42132245D01*
X34227105Y-42122748D01*
X34256889Y-42111659D01*
X34260208Y-42112383D01*
X34263451Y-42111368D01*
X34294096Y-42119774D01*
X34325153Y-42126549D01*
X34328150Y-42129116D01*
X34330831Y-42129852D01*
X34353396Y-42147716D01*
X34359280Y-42153607D01*
X34359400Y-42153814D01*
X34435832Y-42230246D01*
X34452950Y-42261638D01*
X34469266Y-42291518D01*
X34469271Y-42291568D01*
X34469281Y-42291586D01*
X34469277Y-42291628D01*
X34472100Y-42317876D01*
X34472100Y-42406541D01*
X34454899Y-42465118D01*
X34455158Y-42465225D01*
X34454163Y-42467626D01*
X34452415Y-42473580D01*
X34451237Y-42475378D01*
X34450714Y-42476161D01*
X34450484Y-42476506D01*
X34450483Y-42476509D01*
X34434500Y-42556862D01*
X34434500Y-42822000D01*
X34414815Y-42889039D01*
X34362011Y-42934794D01*
X34310500Y-42946000D01*
X34107738Y-42946000D01*
X34077167Y-42954191D01*
X34031308Y-42966479D01*
X34031307Y-42966480D01*
X33984268Y-42993639D01*
X33984267Y-42993640D01*
X33962790Y-43006039D01*
X33962787Y-43006041D01*
X33820848Y-43147981D01*
X33793920Y-43162684D01*
X33768102Y-43179277D01*
X33761901Y-43180168D01*
X33759525Y-43181466D01*
X33733167Y-43184300D01*
X33657657Y-43184300D01*
X33590618Y-43164615D01*
X33544863Y-43111811D01*
X33541554Y-43103313D01*
X33527027Y-43074802D01*
X33479528Y-42981580D01*
X33479524Y-42981576D01*
X33479523Y-42981574D01*
X33384225Y-42886276D01*
X33384221Y-42886273D01*
X33384220Y-42886272D01*
X33264126Y-42825081D01*
X33264124Y-42825080D01*
X33264121Y-42825079D01*
X33164493Y-42809300D01*
X33164488Y-42809300D01*
X32647512Y-42809300D01*
X32647507Y-42809300D01*
X32547878Y-42825079D01*
X32427778Y-42886273D01*
X32427774Y-42886276D01*
X32332476Y-42981574D01*
X32332473Y-42981578D01*
X32271279Y-43101678D01*
X32255500Y-43201306D01*
X32255500Y-43768293D01*
X32271279Y-43867921D01*
X32271280Y-43867924D01*
X32271281Y-43867926D01*
X32332472Y-43988020D01*
X32332473Y-43988021D01*
X32332476Y-43988025D01*
X32382270Y-44037819D01*
X32415755Y-44099142D01*
X32410771Y-44168834D01*
X32368899Y-44224767D01*
X32303435Y-44249184D01*
X32294589Y-44249500D01*
X28873914Y-44249500D01*
X28806875Y-44229815D01*
X28761120Y-44177011D01*
X28749914Y-44125571D01*
X28749309Y-43074802D01*
X28749309Y-43074786D01*
X28749309Y-43034936D01*
X28749291Y-43034892D01*
X28749291Y-43034849D01*
X28749286Y-43034825D01*
X28749286Y-43034822D01*
X28733740Y-42997352D01*
X28733730Y-42997326D01*
X28732202Y-42993640D01*
X28718784Y-42961245D01*
X28718759Y-42961220D01*
X28718743Y-42961181D01*
X28718719Y-42961145D01*
X28689728Y-42932188D01*
X28689732Y-42932183D01*
X28689680Y-42932141D01*
X28535626Y-42778086D01*
X28502143Y-42716765D01*
X28499309Y-42690407D01*
X28499309Y-42384938D01*
X28499308Y-42384935D01*
X28492883Y-42369424D01*
X28468785Y-42311245D01*
X28412383Y-42254843D01*
X28405318Y-42247778D01*
X28405311Y-42247772D01*
X28286655Y-42129116D01*
X28162383Y-42004843D01*
X28088692Y-41974319D01*
X28088691Y-41974319D01*
X27783221Y-41974319D01*
X27753783Y-41965674D01*
X27723793Y-41959151D01*
X27718776Y-41955395D01*
X27716182Y-41954634D01*
X27695539Y-41938000D01*
X27635627Y-41878087D01*
X27602143Y-41816763D01*
X27599309Y-41790406D01*
X27599309Y-40961363D01*
X27618994Y-40894324D01*
X27671798Y-40848569D01*
X27740956Y-40838625D01*
X27785311Y-40853977D01*
X27806811Y-40866391D01*
X27806813Y-40866391D01*
X27806814Y-40866392D01*
X27934108Y-40900500D01*
X27934110Y-40900500D01*
X28065890Y-40900500D01*
X28065892Y-40900500D01*
X28193186Y-40866392D01*
X28212306Y-40855352D01*
X28213053Y-40855171D01*
X28213591Y-40854621D01*
X28246964Y-40846943D01*
X28280206Y-40838878D01*
X28280932Y-40839129D01*
X28281682Y-40838957D01*
X28313927Y-40850548D01*
X28346233Y-40861729D01*
X28346707Y-40862332D01*
X28347433Y-40862593D01*
X28368305Y-40889795D01*
X28389425Y-40916649D01*
X28389653Y-40917616D01*
X28389967Y-40918025D01*
X28390779Y-40922381D01*
X28397879Y-40952420D01*
X28398309Y-40957569D01*
X28398309Y-41044567D01*
X28409942Y-41103050D01*
X28410529Y-41103928D01*
X28411412Y-41114501D01*
X28409460Y-41124018D01*
X28409460Y-41149009D01*
X28398309Y-41205071D01*
X28398309Y-41544571D01*
X28409940Y-41603048D01*
X28409941Y-41603049D01*
X28454256Y-41669371D01*
X28520578Y-41713686D01*
X28520579Y-41713687D01*
X28579056Y-41725318D01*
X28579059Y-41725319D01*
X28579061Y-41725319D01*
X30118559Y-41725319D01*
X30118560Y-41725318D01*
X30133377Y-41722371D01*
X30177038Y-41713687D01*
X30177038Y-41713686D01*
X30177040Y-41713686D01*
X30243361Y-41669371D01*
X30287676Y-41603050D01*
X30287676Y-41603048D01*
X30287677Y-41603048D01*
X30299308Y-41544571D01*
X30299309Y-41544569D01*
X30299309Y-41205068D01*
X30288158Y-41149011D01*
X30288158Y-41100627D01*
X30299309Y-41044569D01*
X30299309Y-40799319D01*
X30318994Y-40732280D01*
X30371798Y-40686525D01*
X30423309Y-40675319D01*
X31660741Y-40675319D01*
X31660743Y-40675319D01*
X31737170Y-40654840D01*
X31738458Y-40654096D01*
X31747089Y-40649114D01*
X31809090Y-40632500D01*
X31929890Y-40632500D01*
X31929892Y-40632500D01*
X32057186Y-40598392D01*
X32171314Y-40532500D01*
X32242786Y-40461027D01*
X32269868Y-40446239D01*
X32295874Y-40429633D01*
X32300257Y-40429645D01*
X32304105Y-40427545D01*
X32334886Y-40429746D01*
G37*
%TD.AperFunction*%
%TA.AperFunction,Conductor*%
G36*
X41003770Y-39684097D02*
G01*
X41007862Y-39684499D01*
X41007867Y-39684500D01*
X42387132Y-39684499D01*
X42393223Y-39684499D01*
X42393223Y-39687157D01*
X42450556Y-39698025D01*
X42501271Y-39746085D01*
X42517952Y-39813934D01*
X42495303Y-39880031D01*
X42481755Y-39896097D01*
X42430669Y-39947182D01*
X42369346Y-39980666D01*
X42342989Y-39983500D01*
X41007870Y-39983500D01*
X40927504Y-39999485D01*
X40836375Y-40060375D01*
X40775485Y-40151505D01*
X40775483Y-40151509D01*
X40759500Y-40231863D01*
X40759500Y-40436129D01*
X40763413Y-40455801D01*
X40771712Y-40497527D01*
X40775486Y-40516498D01*
X40780159Y-40527780D01*
X40778714Y-40528378D01*
X40795436Y-40581788D01*
X40779482Y-40639938D01*
X40780159Y-40640219D01*
X40777926Y-40645609D01*
X40776950Y-40649168D01*
X40775550Y-40651345D01*
X40775484Y-40651505D01*
X40759500Y-40731863D01*
X40759500Y-40936129D01*
X40775486Y-41016498D01*
X40780159Y-41027780D01*
X40778714Y-41028378D01*
X40795436Y-41081788D01*
X40779482Y-41139938D01*
X40780159Y-41140219D01*
X40777926Y-41145609D01*
X40776950Y-41149168D01*
X40775550Y-41151345D01*
X40775484Y-41151505D01*
X40759500Y-41231863D01*
X40759500Y-41436129D01*
X40775486Y-41516498D01*
X40780159Y-41527780D01*
X40778714Y-41528378D01*
X40795436Y-41581788D01*
X40779482Y-41639938D01*
X40780159Y-41640219D01*
X40777926Y-41645609D01*
X40776950Y-41649168D01*
X40775550Y-41651345D01*
X40775484Y-41651505D01*
X40759500Y-41731863D01*
X40759500Y-41936129D01*
X40775485Y-42016495D01*
X40836375Y-42107624D01*
X40859010Y-42122748D01*
X40927505Y-42168515D01*
X40927508Y-42168515D01*
X40927509Y-42168516D01*
X40967686Y-42176507D01*
X41007867Y-42184500D01*
X42387132Y-42184499D01*
X42467495Y-42168515D01*
X42558624Y-42107624D01*
X42619515Y-42016495D01*
X42635500Y-41936133D01*
X42635499Y-41731868D01*
X42619515Y-41651505D01*
X42619513Y-41651502D01*
X42614841Y-41640222D01*
X42616285Y-41639623D01*
X42599563Y-41586211D01*
X42615517Y-41528056D01*
X42614842Y-41527777D01*
X42617070Y-41522396D01*
X42618049Y-41518831D01*
X42619452Y-41516647D01*
X42619516Y-41516493D01*
X42635499Y-41436136D01*
X42635500Y-41436133D01*
X42635499Y-41231868D01*
X42619515Y-41151505D01*
X42619513Y-41151502D01*
X42614841Y-41140222D01*
X42616285Y-41139623D01*
X42599563Y-41086211D01*
X42615517Y-41028056D01*
X42614842Y-41027777D01*
X42617070Y-41022396D01*
X42618049Y-41018831D01*
X42619452Y-41016647D01*
X42619516Y-41016493D01*
X42635499Y-40936136D01*
X42635500Y-40936133D01*
X42635499Y-40731868D01*
X42625273Y-40680455D01*
X42625980Y-40672550D01*
X42623206Y-40665112D01*
X42629049Y-40638248D01*
X42631500Y-40610866D01*
X42636748Y-40602856D01*
X42638058Y-40596839D01*
X42659207Y-40568587D01*
X42709284Y-40518511D01*
X42786937Y-40440857D01*
X42848256Y-40407375D01*
X42848257Y-40407375D01*
X42917949Y-40412359D01*
X42941024Y-40429633D01*
X42973882Y-40454230D01*
X42985096Y-40472240D01*
X43032472Y-40565220D01*
X43032474Y-40565222D01*
X43032476Y-40565225D01*
X43127774Y-40660523D01*
X43127778Y-40660526D01*
X43127780Y-40660528D01*
X43247874Y-40721719D01*
X43247876Y-40721719D01*
X43247878Y-40721720D01*
X43347507Y-40737500D01*
X43347512Y-40737500D01*
X43914493Y-40737500D01*
X44014121Y-40721720D01*
X44014121Y-40721719D01*
X44014126Y-40721719D01*
X44134220Y-40660528D01*
X44149139Y-40645609D01*
X44164819Y-40629930D01*
X44226142Y-40596445D01*
X44295834Y-40601429D01*
X44351767Y-40643301D01*
X44376184Y-40708765D01*
X44376500Y-40717611D01*
X44376500Y-44125500D01*
X44356815Y-44192539D01*
X44304011Y-44238294D01*
X44252500Y-44249500D01*
X40695813Y-44249500D01*
X40628774Y-44229815D01*
X40583019Y-44177011D01*
X40573075Y-44107853D01*
X40592711Y-44056609D01*
X40600938Y-44044297D01*
X40619515Y-44016495D01*
X40635500Y-43936133D01*
X40635499Y-42556868D01*
X40619515Y-42476505D01*
X40593997Y-42438315D01*
X40558624Y-42385375D01*
X40497891Y-42344795D01*
X40467495Y-42324485D01*
X40467493Y-42324484D01*
X40467490Y-42324483D01*
X40387135Y-42308500D01*
X40182870Y-42308500D01*
X40135733Y-42317876D01*
X40102505Y-42324485D01*
X40102504Y-42324485D01*
X40102501Y-42324486D01*
X40091220Y-42329159D01*
X40090621Y-42327714D01*
X40037204Y-42344436D01*
X39979061Y-42328481D01*
X39978781Y-42329159D01*
X39973383Y-42326923D01*
X39969825Y-42325947D01*
X39967648Y-42324547D01*
X39967494Y-42324484D01*
X39887135Y-42308500D01*
X39682870Y-42308500D01*
X39635733Y-42317876D01*
X39602505Y-42324485D01*
X39602504Y-42324485D01*
X39602501Y-42324486D01*
X39591220Y-42329159D01*
X39590621Y-42327714D01*
X39537204Y-42344436D01*
X39479061Y-42328481D01*
X39478781Y-42329159D01*
X39473383Y-42326923D01*
X39469825Y-42325947D01*
X39467648Y-42324547D01*
X39467494Y-42324484D01*
X39387135Y-42308500D01*
X39182870Y-42308500D01*
X39135733Y-42317876D01*
X39102505Y-42324485D01*
X39102504Y-42324485D01*
X39102501Y-42324486D01*
X39091220Y-42329159D01*
X39090621Y-42327714D01*
X39037204Y-42344436D01*
X38979061Y-42328481D01*
X38978781Y-42329159D01*
X38973383Y-42326923D01*
X38969825Y-42325947D01*
X38967648Y-42324547D01*
X38967494Y-42324484D01*
X38887135Y-42308500D01*
X38682870Y-42308500D01*
X38635733Y-42317876D01*
X38602505Y-42324485D01*
X38602504Y-42324485D01*
X38602501Y-42324486D01*
X38591220Y-42329159D01*
X38590621Y-42327714D01*
X38537204Y-42344436D01*
X38479061Y-42328481D01*
X38478781Y-42329159D01*
X38473383Y-42326923D01*
X38469825Y-42325947D01*
X38467648Y-42324547D01*
X38467494Y-42324484D01*
X38387135Y-42308500D01*
X38182870Y-42308500D01*
X38135733Y-42317876D01*
X38102505Y-42324485D01*
X38102504Y-42324485D01*
X38102501Y-42324486D01*
X38091220Y-42329159D01*
X38090621Y-42327714D01*
X38037204Y-42344436D01*
X37979061Y-42328481D01*
X37978781Y-42329159D01*
X37973383Y-42326923D01*
X37969825Y-42325947D01*
X37967648Y-42324547D01*
X37967494Y-42324484D01*
X37887135Y-42308500D01*
X37682870Y-42308500D01*
X37635733Y-42317876D01*
X37602505Y-42324485D01*
X37602504Y-42324485D01*
X37602501Y-42324486D01*
X37591220Y-42329159D01*
X37590621Y-42327714D01*
X37537204Y-42344436D01*
X37479061Y-42328481D01*
X37478781Y-42329159D01*
X37473383Y-42326923D01*
X37469825Y-42325947D01*
X37467648Y-42324547D01*
X37467494Y-42324484D01*
X37387135Y-42308500D01*
X37182870Y-42308500D01*
X37135733Y-42317876D01*
X37102505Y-42324485D01*
X37102504Y-42324485D01*
X37102501Y-42324486D01*
X37091220Y-42329159D01*
X37090621Y-42327714D01*
X37037204Y-42344436D01*
X36979061Y-42328481D01*
X36978781Y-42329159D01*
X36973383Y-42326923D01*
X36969825Y-42325947D01*
X36967648Y-42324547D01*
X36967494Y-42324484D01*
X36887135Y-42308500D01*
X36682870Y-42308500D01*
X36635733Y-42317876D01*
X36602505Y-42324485D01*
X36602504Y-42324485D01*
X36602501Y-42324486D01*
X36591220Y-42329159D01*
X36590621Y-42327714D01*
X36537204Y-42344436D01*
X36479061Y-42328481D01*
X36478781Y-42329159D01*
X36473383Y-42326923D01*
X36469825Y-42325947D01*
X36467648Y-42324547D01*
X36467494Y-42324484D01*
X36387135Y-42308500D01*
X36182870Y-42308500D01*
X36135733Y-42317876D01*
X36102505Y-42324485D01*
X36102504Y-42324485D01*
X36102501Y-42324486D01*
X36091220Y-42329159D01*
X36090621Y-42327714D01*
X36037204Y-42344436D01*
X35979061Y-42328481D01*
X35978781Y-42329159D01*
X35973383Y-42326923D01*
X35969825Y-42325947D01*
X35967648Y-42324547D01*
X35967494Y-42324484D01*
X35887135Y-42308500D01*
X35682870Y-42308500D01*
X35602504Y-42324485D01*
X35511375Y-42385375D01*
X35450485Y-42476505D01*
X35450483Y-42476509D01*
X35434500Y-42556862D01*
X35434500Y-43936129D01*
X35444822Y-43988025D01*
X35450485Y-44016495D01*
X35464733Y-44037819D01*
X35477289Y-44056609D01*
X35480326Y-44066309D01*
X35486981Y-44073989D01*
X35490589Y-44099086D01*
X35498167Y-44123286D01*
X35495478Y-44133086D01*
X35496925Y-44143147D01*
X35486390Y-44166213D01*
X35479683Y-44190666D01*
X35472122Y-44197457D01*
X35467900Y-44206703D01*
X35446567Y-44220412D01*
X35427704Y-44237357D01*
X35416106Y-44239988D01*
X35409122Y-44244477D01*
X35374187Y-44249500D01*
X35195813Y-44249500D01*
X35128774Y-44229815D01*
X35083019Y-44177011D01*
X35073075Y-44107853D01*
X35092711Y-44056609D01*
X35100938Y-44044297D01*
X35119515Y-44016495D01*
X35135500Y-43936133D01*
X35135499Y-42556868D01*
X35119515Y-42476505D01*
X35119514Y-42476503D01*
X35119513Y-42476501D01*
X35093998Y-42438315D01*
X35088347Y-42420268D01*
X35078123Y-42404359D01*
X35073671Y-42373397D01*
X35073120Y-42371637D01*
X35073100Y-42369424D01*
X35073100Y-42292476D01*
X35092785Y-42225437D01*
X35109419Y-42204795D01*
X35129715Y-42184499D01*
X35160400Y-42153814D01*
X35226292Y-42039686D01*
X35260400Y-41912392D01*
X35260400Y-41780608D01*
X35226292Y-41653314D01*
X35160400Y-41539186D01*
X35103595Y-41482381D01*
X35070110Y-41421058D01*
X35075094Y-41351366D01*
X35116966Y-41295433D01*
X35182430Y-41271016D01*
X35191276Y-41270700D01*
X38977760Y-41270700D01*
X38977762Y-41270700D01*
X39054189Y-41250221D01*
X39122711Y-41210660D01*
X39178660Y-41154711D01*
X39533936Y-40799433D01*
X39595259Y-40765949D01*
X39621617Y-40763115D01*
X39718905Y-40763115D01*
X39718907Y-40763115D01*
X39846201Y-40729007D01*
X39960329Y-40663115D01*
X40053515Y-40569929D01*
X40119407Y-40455801D01*
X40153515Y-40328507D01*
X40153515Y-40196723D01*
X40119407Y-40069429D01*
X40117490Y-40066108D01*
X40084461Y-40008900D01*
X40067988Y-39941000D01*
X40090840Y-39874973D01*
X40145762Y-39831782D01*
X40191848Y-39822900D01*
X40552560Y-39822900D01*
X40552562Y-39822900D01*
X40628989Y-39802421D01*
X40697511Y-39762860D01*
X40740552Y-39719819D01*
X40767479Y-39705115D01*
X40793298Y-39688523D01*
X40799498Y-39687631D01*
X40801875Y-39686334D01*
X40828233Y-39683500D01*
X40991619Y-39683500D01*
X41003770Y-39684097D01*
G37*
%TD.AperFunction*%
%TA.AperFunction,Conductor*%
G36*
X39181221Y-39842585D02*
G01*
X39226976Y-39895389D01*
X39236920Y-39964547D01*
X39221569Y-40008900D01*
X39186624Y-40069425D01*
X39186624Y-40069426D01*
X39186623Y-40069428D01*
X39186623Y-40069429D01*
X39180303Y-40093016D01*
X39152515Y-40196723D01*
X39152515Y-40279551D01*
X39132830Y-40346590D01*
X39116196Y-40367232D01*
X38850048Y-40633381D01*
X38788725Y-40666866D01*
X38762367Y-40669700D01*
X36233132Y-40669700D01*
X36216716Y-40664879D01*
X36199606Y-40665082D01*
X36183884Y-40655239D01*
X36166093Y-40650015D01*
X36154890Y-40637086D01*
X36140385Y-40628005D01*
X36132480Y-40611224D01*
X36120338Y-40597211D01*
X36117753Y-40579958D01*
X36110611Y-40564796D01*
X36111895Y-40540858D01*
X36110194Y-40529505D01*
X36111253Y-40521458D01*
X36136700Y-40426492D01*
X36136700Y-40328298D01*
X36137762Y-40320237D01*
X36148741Y-40295422D01*
X36156385Y-40269393D01*
X36164977Y-40258729D01*
X36166034Y-40256342D01*
X36167885Y-40255121D01*
X36173014Y-40248755D01*
X36333953Y-40087816D01*
X36395275Y-40054334D01*
X36421633Y-40051500D01*
X37326760Y-40051500D01*
X37326762Y-40051500D01*
X37403189Y-40031021D01*
X37471711Y-39991460D01*
X37527660Y-39935511D01*
X37603952Y-39859219D01*
X37665275Y-39825734D01*
X37691633Y-39822900D01*
X39114182Y-39822900D01*
X39181221Y-39842585D01*
G37*
%TD.AperFunction*%
%TA.AperFunction,Conductor*%
G36*
X44295834Y-37069429D02*
G01*
X44351767Y-37111301D01*
X44376184Y-37176765D01*
X44376500Y-37185611D01*
X44376500Y-39456389D01*
X44356815Y-39523428D01*
X44304011Y-39569183D01*
X44234853Y-39579127D01*
X44171297Y-39550102D01*
X44164819Y-39544070D01*
X44134225Y-39513476D01*
X44134221Y-39513473D01*
X44134220Y-39513472D01*
X44014126Y-39452281D01*
X44014124Y-39452280D01*
X44014121Y-39452279D01*
X43914493Y-39436500D01*
X43914488Y-39436500D01*
X43456833Y-39436500D01*
X43389794Y-39416815D01*
X43369152Y-39400181D01*
X43191819Y-39222848D01*
X43158334Y-39161525D01*
X43155500Y-39135167D01*
X43155500Y-37320274D01*
X43175185Y-37253235D01*
X43227989Y-37207480D01*
X43297147Y-37197536D01*
X43298898Y-37197801D01*
X43347507Y-37205500D01*
X43347512Y-37205500D01*
X43914493Y-37205500D01*
X44014121Y-37189720D01*
X44014121Y-37189719D01*
X44014126Y-37189719D01*
X44134220Y-37128528D01*
X44137929Y-37124819D01*
X44164819Y-37097930D01*
X44226142Y-37064445D01*
X44295834Y-37069429D01*
G37*
%TD.AperFunction*%
%TA.AperFunction,Conductor*%
G36*
X39866391Y-33991744D02*
G01*
X39898188Y-33999861D01*
X39899750Y-34001539D01*
X39901949Y-34002185D01*
X39923427Y-34026972D01*
X39945796Y-34051000D01*
X39946203Y-34053256D01*
X39947704Y-34054989D01*
X39952373Y-34087465D01*
X39958199Y-34119760D01*
X39957443Y-34122721D01*
X39957648Y-34124147D01*
X39951387Y-34146966D01*
X39934500Y-34231862D01*
X39934500Y-35611129D01*
X39950485Y-35691495D01*
X39963602Y-35711125D01*
X39966638Y-35720823D01*
X39973294Y-35728504D01*
X39982967Y-35772972D01*
X39984480Y-35777802D01*
X39984222Y-35778740D01*
X39984500Y-35780016D01*
X39984500Y-38431567D01*
X39964815Y-38498606D01*
X39948181Y-38519248D01*
X39688248Y-38779181D01*
X39626925Y-38812666D01*
X39600567Y-38815500D01*
X38997499Y-38815500D01*
X38980864Y-38810615D01*
X38963530Y-38810756D01*
X38948037Y-38800976D01*
X38930460Y-38795815D01*
X38919109Y-38782715D01*
X38904447Y-38773460D01*
X38896700Y-38756854D01*
X38884705Y-38743011D01*
X38882133Y-38725630D01*
X38874908Y-38710141D01*
X38876254Y-38685883D01*
X38874622Y-38674848D01*
X38875681Y-38667031D01*
X38905300Y-38556492D01*
X38905300Y-38448466D01*
X38906423Y-38440180D01*
X38917404Y-38415609D01*
X38924985Y-38389793D01*
X38933871Y-38378765D01*
X38934932Y-38376392D01*
X38936733Y-38375213D01*
X38941619Y-38369151D01*
X39182857Y-38127913D01*
X39525460Y-37785311D01*
X39565022Y-37716788D01*
X39585500Y-37640362D01*
X39585500Y-37561238D01*
X39585500Y-35780016D01*
X39588050Y-35771331D01*
X39586762Y-35762371D01*
X39597740Y-35738332D01*
X39605185Y-35712978D01*
X39606398Y-35711126D01*
X39610311Y-35705268D01*
X39619515Y-35691495D01*
X39619515Y-35691493D01*
X39619516Y-35691493D01*
X39635499Y-35611137D01*
X39635500Y-35611133D01*
X39635499Y-34231868D01*
X39619515Y-34151505D01*
X39619514Y-34151503D01*
X39617132Y-34139527D01*
X39618938Y-34139167D01*
X39613061Y-34084479D01*
X39644338Y-34022001D01*
X39704429Y-33986351D01*
X39735090Y-33982500D01*
X39834910Y-33982500D01*
X39866391Y-33991744D01*
G37*
%TD.AperFunction*%
%TA.AperFunction,Conductor*%
G36*
X32403204Y-34002185D02*
G01*
X32448959Y-34054989D01*
X32458903Y-34124147D01*
X32429878Y-34187703D01*
X32392461Y-34216984D01*
X32376981Y-34224871D01*
X32376974Y-34224876D01*
X32281676Y-34320174D01*
X32281673Y-34320178D01*
X32220479Y-34440278D01*
X32204700Y-34539906D01*
X32204700Y-35106893D01*
X32220479Y-35206521D01*
X32220480Y-35206524D01*
X32220481Y-35206526D01*
X32281672Y-35326620D01*
X32281673Y-35326621D01*
X32281676Y-35326625D01*
X32376974Y-35421923D01*
X32376978Y-35421926D01*
X32376980Y-35421928D01*
X32497074Y-35483119D01*
X32497076Y-35483119D01*
X32497078Y-35483120D01*
X32596707Y-35498900D01*
X32596712Y-35498900D01*
X32685767Y-35498900D01*
X32752806Y-35518585D01*
X32773448Y-35535219D01*
X33010048Y-35771819D01*
X33043533Y-35833142D01*
X33038549Y-35902834D01*
X32996677Y-35958767D01*
X32931213Y-35983184D01*
X32922368Y-35983500D01*
X32682870Y-35983500D01*
X32602504Y-35999485D01*
X32511375Y-36060375D01*
X32450485Y-36151505D01*
X32450483Y-36151509D01*
X32434500Y-36231863D01*
X32434500Y-36436129D01*
X32450485Y-36516495D01*
X32511375Y-36607624D01*
X32547876Y-36632013D01*
X32602505Y-36668515D01*
X32602508Y-36668515D01*
X32602509Y-36668516D01*
X32642686Y-36676507D01*
X32682867Y-36684500D01*
X34062132Y-36684499D01*
X34142495Y-36668515D01*
X34233624Y-36607624D01*
X34294515Y-36516495D01*
X34310500Y-36436133D01*
X34310499Y-36231868D01*
X34294515Y-36151505D01*
X34274309Y-36121266D01*
X34233624Y-36060375D01*
X34178995Y-36023874D01*
X34142495Y-35999485D01*
X34142493Y-35999484D01*
X34142490Y-35999483D01*
X34062137Y-35983500D01*
X34062133Y-35983500D01*
X33797000Y-35983500D01*
X33729961Y-35963815D01*
X33684206Y-35911011D01*
X33673000Y-35859500D01*
X33673000Y-35669740D01*
X33673000Y-35669738D01*
X33660650Y-35623646D01*
X33662313Y-35553798D01*
X33701476Y-35495936D01*
X33718428Y-35484166D01*
X33721314Y-35482500D01*
X33814500Y-35389314D01*
X33880392Y-35275186D01*
X33914500Y-35147892D01*
X33914500Y-35016108D01*
X33880392Y-34888814D01*
X33814500Y-34774686D01*
X33721314Y-34681500D01*
X33664250Y-34648554D01*
X33607187Y-34615608D01*
X33591501Y-34611405D01*
X33531842Y-34575038D01*
X33501315Y-34512190D01*
X33501126Y-34511029D01*
X33489920Y-34440278D01*
X33489919Y-34440276D01*
X33489919Y-34440274D01*
X33428728Y-34320180D01*
X33428726Y-34320178D01*
X33428723Y-34320174D01*
X33333425Y-34224876D01*
X33333421Y-34224873D01*
X33333420Y-34224872D01*
X33317939Y-34216984D01*
X33267144Y-34169010D01*
X33250349Y-34101189D01*
X33272887Y-34035054D01*
X33327602Y-33991603D01*
X33374235Y-33982500D01*
X34334910Y-33982500D01*
X34401949Y-34002185D01*
X34447704Y-34054989D01*
X34457648Y-34124147D01*
X34451387Y-34146966D01*
X34434500Y-34231862D01*
X34434500Y-35611129D01*
X34450485Y-35691495D01*
X34463602Y-35711125D01*
X34484480Y-35777802D01*
X34484500Y-35780016D01*
X34484500Y-35916762D01*
X34496420Y-35961246D01*
X34504979Y-35993190D01*
X34504980Y-35993191D01*
X34529007Y-36034807D01*
X34529008Y-36034808D01*
X34544539Y-36061710D01*
X35314560Y-36831731D01*
X35348045Y-36893054D01*
X35343061Y-36962746D01*
X35301189Y-37018679D01*
X35235725Y-37043096D01*
X35194786Y-37039187D01*
X35173562Y-37033500D01*
X34231017Y-37033500D01*
X34163978Y-37013815D01*
X34162127Y-37012603D01*
X34142495Y-36999485D01*
X34142492Y-36999484D01*
X34142492Y-36999483D01*
X34062136Y-36983500D01*
X32682870Y-36983500D01*
X32602504Y-36999485D01*
X32511375Y-37060375D01*
X32450485Y-37151505D01*
X32450483Y-37151509D01*
X32434500Y-37231863D01*
X32434500Y-37231865D01*
X32434500Y-37231867D01*
X32434500Y-37325433D01*
X32434501Y-37409499D01*
X32414817Y-37476539D01*
X32362013Y-37522294D01*
X32310501Y-37533500D01*
X32026438Y-37533500D01*
X31950010Y-37553978D01*
X31881489Y-37593540D01*
X31875043Y-37598487D01*
X31873807Y-37596876D01*
X31822037Y-37625128D01*
X31752346Y-37620125D01*
X31708029Y-37591636D01*
X31613347Y-37496954D01*
X31613344Y-37496952D01*
X31613342Y-37496950D01*
X31527286Y-37453102D01*
X31500301Y-37439352D01*
X31406524Y-37424500D01*
X30793482Y-37424500D01*
X30712519Y-37437323D01*
X30699696Y-37439354D01*
X30586658Y-37496950D01*
X30586657Y-37496951D01*
X30586652Y-37496954D01*
X30510990Y-37572617D01*
X30449667Y-37606102D01*
X30379975Y-37601118D01*
X30324042Y-37559246D01*
X30299625Y-37493782D01*
X30299309Y-37484936D01*
X30299309Y-37205068D01*
X30288158Y-37149011D01*
X30288158Y-37100627D01*
X30299309Y-37044569D01*
X30299309Y-36705068D01*
X30299308Y-36705066D01*
X30287677Y-36646589D01*
X30287676Y-36646588D01*
X30243361Y-36580266D01*
X30177039Y-36535951D01*
X30177038Y-36535950D01*
X30118561Y-36524319D01*
X30118557Y-36524319D01*
X28579061Y-36524319D01*
X28579056Y-36524319D01*
X28520579Y-36535950D01*
X28520578Y-36535951D01*
X28454256Y-36580266D01*
X28409941Y-36646588D01*
X28409940Y-36646589D01*
X28398309Y-36705066D01*
X28398309Y-36705071D01*
X28398309Y-37044567D01*
X28398741Y-37046740D01*
X28409460Y-37100629D01*
X28411591Y-37132702D01*
X28410786Y-37145323D01*
X28409942Y-37146588D01*
X28398309Y-37205071D01*
X28398309Y-37341203D01*
X28398058Y-37345144D01*
X28387397Y-37374420D01*
X28378624Y-37404300D01*
X28375546Y-37406966D01*
X28374152Y-37410797D01*
X28349347Y-37429668D01*
X28325820Y-37450055D01*
X28321789Y-37450634D01*
X28318546Y-37453102D01*
X28287489Y-37455566D01*
X28256662Y-37459999D01*
X28251993Y-37458383D01*
X28248895Y-37458629D01*
X28241952Y-37454907D01*
X28212309Y-37444648D01*
X28193189Y-37433609D01*
X28193186Y-37433608D01*
X28065892Y-37399500D01*
X27934108Y-37399500D01*
X27806812Y-37433608D01*
X27785308Y-37446024D01*
X27717408Y-37462496D01*
X27651381Y-37439643D01*
X27608191Y-37384721D01*
X27599309Y-37338636D01*
X27599309Y-36459230D01*
X27607953Y-36429789D01*
X27614477Y-36399803D01*
X27618231Y-36394787D01*
X27618994Y-36392191D01*
X27635628Y-36371549D01*
X27695539Y-36311638D01*
X27756862Y-36278153D01*
X27783220Y-36275319D01*
X28088689Y-36275319D01*
X28088691Y-36275319D01*
X28162383Y-36244795D01*
X28394942Y-36012233D01*
X28394945Y-36012232D01*
X28412382Y-35994795D01*
X28412383Y-35994795D01*
X28468785Y-35938393D01*
X28499309Y-35864701D01*
X28499309Y-35559230D01*
X28518994Y-35492191D01*
X28535628Y-35471549D01*
X28718782Y-35288395D01*
X28718784Y-35288393D01*
X28749309Y-35214702D01*
X28749309Y-35134937D01*
X28749309Y-34106500D01*
X28768994Y-34039461D01*
X28821798Y-33993706D01*
X28873309Y-33982500D01*
X32336165Y-33982500D01*
X32403204Y-34002185D01*
G37*
%TD.AperFunction*%
%TA.AperFunction,Conductor*%
G36*
X44319539Y-34002185D02*
G01*
X44365294Y-34054989D01*
X44376500Y-34106500D01*
X44376500Y-35924389D01*
X44356815Y-35991428D01*
X44304011Y-36037183D01*
X44234853Y-36047127D01*
X44171297Y-36018102D01*
X44164819Y-36012070D01*
X44134225Y-35981476D01*
X44134221Y-35981473D01*
X44134220Y-35981472D01*
X44014126Y-35920281D01*
X44014124Y-35920280D01*
X44014121Y-35920279D01*
X43914493Y-35904500D01*
X43914488Y-35904500D01*
X43347512Y-35904500D01*
X43347507Y-35904500D01*
X43247878Y-35920279D01*
X43127778Y-35981473D01*
X43127774Y-35981476D01*
X43032476Y-36076774D01*
X43032473Y-36076779D01*
X43032472Y-36076780D01*
X42976417Y-36186795D01*
X42965967Y-36197859D01*
X42959645Y-36211703D01*
X42942464Y-36222744D01*
X42928442Y-36237591D01*
X42912762Y-36241832D01*
X42900867Y-36249477D01*
X42865932Y-36254500D01*
X42865657Y-36254500D01*
X42798618Y-36234815D01*
X42777976Y-36218181D01*
X42653336Y-36093541D01*
X42653331Y-36093537D01*
X42584816Y-36053980D01*
X42584811Y-36053978D01*
X42544880Y-36043278D01*
X42508086Y-36026607D01*
X42488941Y-36013815D01*
X42467495Y-35999485D01*
X42467494Y-35999484D01*
X42467493Y-35999484D01*
X42467492Y-35999483D01*
X42387136Y-35983500D01*
X41007870Y-35983500D01*
X40927503Y-35999485D01*
X40927500Y-35999486D01*
X40907875Y-36012601D01*
X40889828Y-36018252D01*
X40873918Y-36028477D01*
X40842960Y-36032928D01*
X40841198Y-36033480D01*
X40838983Y-36033500D01*
X40709500Y-36033500D01*
X40642461Y-36013815D01*
X40596706Y-35961011D01*
X40585500Y-35909500D01*
X40585500Y-35780017D01*
X40605185Y-35712978D01*
X40606398Y-35711126D01*
X40610311Y-35705268D01*
X40619515Y-35691495D01*
X40619515Y-35691493D01*
X40619516Y-35691493D01*
X40635499Y-35611137D01*
X40635500Y-35611135D01*
X40635500Y-35346000D01*
X40655185Y-35278961D01*
X40707989Y-35233206D01*
X40759500Y-35222000D01*
X40918060Y-35222000D01*
X40918062Y-35222000D01*
X40994489Y-35201521D01*
X41063011Y-35161960D01*
X41118960Y-35106011D01*
X41188152Y-35036819D01*
X41215079Y-35022115D01*
X41240898Y-35005523D01*
X41247098Y-35004631D01*
X41249475Y-35003334D01*
X41275833Y-35000500D01*
X41387570Y-35000500D01*
X41454609Y-35020185D01*
X41498054Y-35068204D01*
X41552072Y-35174220D01*
X41552074Y-35174222D01*
X41552076Y-35174225D01*
X41647374Y-35269523D01*
X41647378Y-35269526D01*
X41647380Y-35269528D01*
X41767474Y-35330719D01*
X41767476Y-35330719D01*
X41767478Y-35330720D01*
X41867107Y-35346500D01*
X41867112Y-35346500D01*
X42384093Y-35346500D01*
X42483721Y-35330720D01*
X42483721Y-35330719D01*
X42483726Y-35330719D01*
X42603820Y-35269528D01*
X42699128Y-35174220D01*
X42760319Y-35054126D01*
X42765695Y-35020185D01*
X42776100Y-34954493D01*
X42776100Y-34387506D01*
X42760320Y-34287878D01*
X42760319Y-34287876D01*
X42760319Y-34287874D01*
X42699128Y-34167780D01*
X42699125Y-34167777D01*
X42696587Y-34162795D01*
X42683691Y-34094126D01*
X42709967Y-34029385D01*
X42767074Y-33989128D01*
X42807072Y-33982500D01*
X44252500Y-33982500D01*
X44319539Y-34002185D01*
G37*
%TD.AperFunction*%
%TD*%
M02*
